<svg viewBox="0 0 512 512" xml:space="preserve" xmlns="http://www.w3.org/2000/svg"><path d="M256.4 74.2c22.7 0 45.3-.4 68 .1 28.8.6 57.6 1.7 86.3 3 11.9.6 24 .9 35.8 3.2 28.1 5.4 44.8 22.7 52.5 50 4.1 14.5 5.6 29.4 6.9 44.3 3.5 40.1 2.8 80.2 1.8 120.3-.6 23.7-1.6 47.6-7.6 70.8-2.5 9.5-5.4 19-10.9 27.3-10 15.1-24.4 23.7-42 26.9-15.1 2.8-30.4 3.1-45.7 3.8-28.3 1.3-56.6 1.9-84.9 2.6-33.5.9-67 .7-100.4.4-27.1-.3-54.3-.9-81.4-2-22.9-.9-45.9-1.3-68.5-5.7-12.5-2.4-23.6-7.6-33.2-16.2-9-8.2-13.6-18.8-17-30-7.3-24-7.8-48.8-9.3-73.6-1.7-29-1.2-58-.5-86.9.6-24.4 1.7-48.9 6.8-72.9 3-14.2 7.1-28.3 17.4-39.2C43.2 87 59.4 80.6 77.7 79.3c21.9-1.5 43.9-2.5 65.8-3.4 37.6-1.6 75.3-2.1 112.9-1.7zm83.1 171.2c-.4-1.2-1.5-1.4-2.3-1.8-23.5-12.4-47.1-24.8-70.7-37.2-18.7-9.8-37.4-19.7-56.1-29.6-5.2-2.7-5.3-2.6-5.3 3.4v131.9c-.1 2.6.9 3.4 3.3 2.1 2.9-1.6 5.8-3.2 8.8-4.8 39.4-20.4 78.9-40.9 118.3-61.3 1.4-.8 3.2-1.1 4-2.7z" fill="#ffffff" class="fill-a7a7a7"></path></svg>