<svg width="16" height="13" viewBox="0 0 16 13" fill="none" xmlns="http://www.w3.org/2000/svg">
<path d="M10.3203 4.03516C10.1172 4.35547 9.80078 4.98438 9.37109 5.92188C8.94141 6.85938 8.44141 7.78125 7.87109 8.6875C7.29297 9.58594 6.66406 10.3008 5.98438 10.832C5.29688 11.3633 4.59766 11.3867 3.88672 10.9023C2.98047 10.3086 2.23828 9.55078 1.66016 8.62891C1.08203 7.70703 0.773438 6.84375 0.734375 6.03906C0.695313 5.22656 0.980469 4.57813 1.58984 4.09375C2.19922 3.60938 3.23828 3.50781 4.70703 3.78906C5.00391 3.83594 5.24609 4.01953 5.43359 4.33984C5.62109 4.66016 5.73828 4.96875 5.78516 5.26563C5.85547 5.65625 5.76172 6.01953 5.50391 6.35547C5.24609 6.68359 4.96484 6.82422 4.66016 6.77734C2.80859 6.23047 2.01953 6.32813 2.29297 7.07031C2.55859 7.8125 3.31641 8.47656 4.56641 9.0625C5.24609 9.38281 5.85938 9.03125 6.40625 8.00781C6.95312 6.98438 7.52344 5.86719 8.11719 4.65625C8.70313 3.4375 9.35547 2.40625 10.0742 1.5625C10.793 0.71875 11.6641 0.636719 12.6875 1.31641C13.375 1.84766 13.9961 2.72656 14.5508 3.95313C15.1055 5.17969 15.457 6.40625 15.6055 7.63281C15.7461 8.85156 15.6133 9.88672 15.207 10.7383C14.793 11.5977 13.9609 11.9219 12.7109 11.7109C11.5781 11.4141 10.8555 11.1484 10.543 10.9141C10.2227 10.6797 9.75391 10.2227 9.13672 9.54297C8.80078 8.92578 8.71875 8.31641 8.89062 7.71484C9.05469 7.10547 9.40625 7.07031 9.94531 7.60938C11.7188 9.54688 12.8438 10.2891 13.3203 9.83594C13.7969 9.38281 13.9141 8.58203 13.6719 7.43359C13.4219 6.27734 12.9492 5.20313 12.2539 4.21094C11.5508 3.21875 10.9063 3.16016 10.3203 4.03516Z" fill="white"/>
</svg>
