<svg width="18" height="22" viewBox="0 0 18 22" fill="none" xmlns="http://www.w3.org/2000/svg">
<path d="M1.3916 4.5376C1.98307 1.8374 3.23031 0.821615 5.1333 1.49023C7.0363 2.13314 7.6792 3.84326 7.06201 6.62061C6.75342 7.98356 6.43197 9.60368 6.09766 11.481C5.78906 13.3582 5.90479 14.9012 6.44482 16.1099C7.37061 18.27 7.26774 19.6973 6.13623 20.3916C5.00472 21.0859 3.97607 20.3659 3.05029 18.2314C2.17594 16.2256 1.55876 13.9883 1.19873 11.5195C0.838704 9.05078 0.902995 6.72347 1.3916 4.5376ZM11.1895 4.5376C11.7809 1.8374 13.0282 0.821615 14.9312 1.49023C16.8341 2.13314 17.4771 3.84326 16.8599 6.62061C16.5513 7.98356 16.2298 9.60368 15.8955 11.481C15.5869 13.3582 15.7026 14.9012 16.2427 16.1099C17.1685 18.27 17.0656 19.6973 15.9341 20.3916C14.8026 21.0859 13.7739 20.3659 12.8481 18.2314C11.9738 16.2256 11.3566 13.9883 10.9966 11.5195C10.6366 9.05078 10.7008 6.72347 11.1895 4.5376Z" fill="white"/>
</svg>
