<svg width="35" height="13" viewBox="0 0 35 13" fill="none" xmlns="http://www.w3.org/2000/svg">
<path d="M33.425 9.98193L29.7775 11.3516C29.4504 10.9805 29.006 10.5044 28.4445 9.92334C27.8879 9.34229 27.3776 8.82471 26.9137 8.37061H26.8625C26.34 8.84912 25.7126 9.43262 24.9802 10.1211C24.2477 10.8047 23.7961 11.2295 23.6252 11.3955L20.0436 10.0625C20.3171 9.79883 20.8517 9.27637 21.6476 8.49512C22.4484 7.70898 23.1882 6.96924 23.8669 6.27588V6.23926C23.3346 5.68262 22.6657 4.97461 21.86 4.11523C21.0544 3.25098 20.5026 2.64795 20.2048 2.30615L23.8815 0.768066C24.1257 1.06104 24.5334 1.52246 25.1047 2.15234C25.676 2.77734 26.2472 3.3877 26.8185 3.9834H26.8844C27.2409 3.64648 27.7341 3.10693 28.3639 2.36475C28.9938 1.61768 29.3844 1.11719 29.5358 0.863281L33.2858 2.21826C33.0368 2.50146 32.5217 3.06055 31.7404 3.89551C30.964 4.73047 30.3024 5.43604 29.7555 6.01221V6.04883C30.3952 6.75684 31.0275 7.44287 31.6525 8.10693C32.2824 8.771 32.8732 9.396 33.425 9.98193Z" fill="#EE6059"/>
<path d="M15.925 9.98193L12.2775 11.3516C11.9504 10.9805 11.506 10.5044 10.9445 9.92334C10.3879 9.34229 9.87761 8.82471 9.41374 8.37061H9.36247C8.84001 8.84912 8.21257 9.43262 7.48015 10.1211C6.74772 10.8047 6.29606 11.2295 6.12517 11.3955L2.54362 10.0625C2.81706 9.79883 3.35173 9.27637 4.14763 8.49512C4.94841 7.70898 5.68815 6.96924 6.36687 6.27588V6.23926C5.83464 5.68262 5.16569 4.97461 4.36003 4.11523C3.55437 3.25098 3.00261 2.64795 2.70476 2.30615L6.38151 0.768066C6.62565 1.06104 7.03337 1.52246 7.60466 2.15234C8.17595 2.77734 8.74724 3.3877 9.31853 3.9834H9.38444C9.74089 3.64648 10.2341 3.10693 10.8639 2.36475C11.4938 1.61768 11.8844 1.11719 12.0358 0.863281L15.7858 2.21826C15.5368 2.50146 15.0217 3.06055 14.2404 3.89551C13.464 4.73047 12.8024 5.43604 12.2555 6.01221V6.04883C12.8952 6.75684 13.5275 7.44287 14.1525 8.10693C14.7824 8.771 15.3732 9.396 15.925 9.98193Z" fill="#EE6059"/>
</svg>
