<svg width="25" height="30" viewBox="0 0 25 30" fill="none" xmlns="http://www.w3.org/2000/svg">
<path d="M1.33008 6.25488C2.15365 2.49512 3.8903 1.08073 6.54004 2.01172C9.18978 2.9069 10.085 5.28809 9.22559 9.15527C8.7959 11.0531 8.34831 13.3089 7.88281 15.9229C7.45312 18.5368 7.61426 20.6852 8.36621 22.3682C9.65527 25.376 9.51204 27.3633 7.93652 28.3301C6.361 29.2969 4.92871 28.2943 3.63965 25.3223C2.4222 22.5293 1.56283 19.4141 1.06152 15.9766C0.560221 12.5391 0.64974 9.2985 1.33008 6.25488ZM14.9727 6.25488C15.7962 2.49512 17.5329 1.08073 20.1826 2.01172C22.8324 2.9069 23.7275 5.28809 22.8682 9.15527C22.4385 11.0531 21.9909 13.3089 21.5254 15.9229C21.0957 18.5368 21.2568 20.6852 22.0088 22.3682C23.2979 25.376 23.1546 27.3633 21.5791 28.3301C20.0036 29.2969 18.5713 28.2943 17.2822 25.3223C16.0648 22.5293 15.2054 19.4141 14.7041 15.9766C14.2028 12.5391 14.2923 9.2985 14.9727 6.25488Z" fill="#EE6059"/>
</svg>
