<svg width="33" height="24" viewBox="0 0 33 24" fill="none" xmlns="http://www.w3.org/2000/svg">
<path d="M32.312 0.455996C31.736 2.88799 31.128 5.512 30.488 8.328C29.848 11.144 29.272 13.896 28.76 16.584C28.248 19.272 27.832 21.736 27.512 23.976H18.392L17.72 22.92C18.296 20.68 19.032 18.28 19.928 15.72C20.824 13.096 21.816 10.472 22.904 7.848C23.992 5.224 25.048 2.76 26.072 0.455996H32.312ZM14.552 0.455996C13.976 2.88799 13.368 5.512 12.728 8.328C12.088 11.144 11.512 13.896 11 16.584C10.488 19.272 10.072 21.736 9.752 23.976H0.728L0.152 22.92C0.728 20.68 1.464 18.28 2.36 15.72C3.256 13.096 4.216 10.472 5.24 7.848C6.328 5.224 7.384 2.76 8.408 0.455996H14.552Z" fill="#EE6059"/>
</svg>
