<svg width="237" height="40" viewBox="0 0 237 40" fill="none" xmlns="http://www.w3.org/2000/svg">
<path d="M1.78906 10.7852C1.78906 8.91016 2.45703 7.49219 3.79297 6.53125C4.54297 5.99219 5.375 5.72266 6.28906 5.72266C8.86719 5.72266 12.0547 6.89453 15.8516 9.23828C17.1406 10.0352 18.0195 10.668 18.4883 11.1367C19.2383 9.51953 19.8359 8.71094 20.2812 8.71094C20.6328 8.75781 20.8203 9.20312 20.8438 10.0469C20.8438 11.3594 20.5859 12.5547 20.0703 13.6328C19.6484 14.4297 19.168 14.8398 18.6289 14.8633C18.6289 14.8633 17.832 14.1953 16.2383 12.8594C15.1133 11.9687 14.0586 11.2188 13.0742 10.6094C12.3008 10.3281 11.668 10.1875 11.1758 10.1875C9.91016 10.2344 9.26562 10.8672 9.24219 12.0859C9.26562 14.1719 10.3789 15.9062 12.582 17.2891C13.332 17.6172 14.5156 18.0859 16.1328 18.6953C19.0156 19.75 21.0195 20.6289 22.1445 21.332C25.0273 22.6211 26.8203 24.0742 27.5234 25.6914C27.8281 26.3711 27.9805 27.0977 27.9805 27.8711C27.9805 29.9102 26.5742 31.375 23.7617 32.2656C22.1914 32.7578 20.375 33.0039 18.3125 33.0039C14.3281 33.0039 10.8242 32.2422 7.80078 30.7188C7.33203 30.4844 6.91016 30.25 6.53516 30.0156C5.90234 29.7578 5.24609 29.4297 4.56641 29.0312C4.66016 30.8594 4.70703 32.2188 4.70703 33.1094C4.68359 33.6953 4.50781 34 4.17969 34.0234C3.94531 34 3.82812 33.5195 3.82812 32.582C3.82812 32.1367 3.83984 31.4688 3.86328 30.5781C3.86328 29.6875 3.86328 29.0312 3.86328 28.6094C1.58984 27.0391 0.441406 25.1992 0.417969 23.0898C0.417969 22.2461 0.792969 21.6484 1.54297 21.2969C1.80078 21.1562 2.08203 21.0859 2.38672 21.0859C2.38672 21.0859 3.65234 21.8594 6.18359 23.4062C11.6211 26.5469 15.5586 28.1289 17.9961 28.1523C19.6836 28.1055 20.5391 27.2734 20.5625 25.6562C20.5391 24.6484 19.9531 23.7695 18.8047 23.0195C18.125 22.7383 17.0234 22.3281 15.5 21.7891C12.2891 20.6172 10.0039 19.6328 8.64453 18.8359C5.19922 17.2891 3.06641 15.4492 2.24609 13.3164C1.94141 12.5195 1.78906 11.6758 1.78906 10.7852ZM6.88672 6.42578H6.81641C4.37891 6.49609 3.13672 7.51562 3.08984 9.48438C3.08984 10.5156 3.19531 11.1719 3.40625 11.4531C3.42969 11.4766 3.45312 11.4883 3.47656 11.4883C3.64062 11.4414 3.72266 11.2188 3.72266 10.8203C3.72266 10.7266 3.71094 10.5742 3.6875 10.3633C3.6875 10.2461 3.6875 10.1641 3.6875 10.1172C3.6875 8.33594 4.27344 7.32812 5.44531 7.09375C5.67969 7.04687 5.99609 7.02344 6.39453 7.02344H6.5C6.61719 7.02344 6.73438 7.02344 6.85156 7.02344C7.03906 7.04687 7.23828 7.05859 7.44922 7.05859C7.58984 7.03516 7.67188 7 7.69531 6.95312C7.48438 6.64844 7.21484 6.47266 6.88672 6.42578ZM8.15234 12.0859C8.15234 10.8437 8.62109 9.96484 9.55859 9.44922C9.79297 9.33203 10.0156 9.25 10.2266 9.20312C9.66406 9.01562 9.18359 8.92188 8.78516 8.92188C7.49609 8.96875 6.83984 9.625 6.81641 10.8906C6.83984 12.5312 7.55469 13.9492 8.96094 15.1445C8.42188 14.0898 8.15234 13.0703 8.15234 12.0859ZM24.9922 24.1797C25.3906 25 25.5898 25.8086 25.5898 26.6055C25.5898 28.6211 24.2305 30.0859 21.5117 31C19.8945 31.5391 18.0195 31.8086 15.8867 31.8086H15.5C15.6406 31.832 15.793 31.8438 15.957 31.8438C16.1211 31.8672 16.2852 31.8789 16.4492 31.8789C16.6367 31.8789 16.8125 31.8789 16.9766 31.8789C17.1641 31.9023 17.3281 31.9141 17.4688 31.9141C17.6328 31.9375 17.7734 31.9492 17.8906 31.9492C18.0312 31.9492 18.1367 31.9492 18.207 31.9492H18.3125C21.8984 31.9258 24.4297 31.2578 25.9062 29.9453C26.5859 29.3125 26.9258 28.6211 26.9258 27.8711C26.9023 26.4648 26.2578 25.2344 24.9922 24.1797ZM41.1992 7.23438V7.86719C45.2773 7.25781 50.0938 6.90625 55.6484 6.8125C56.2812 6.8125 56.7383 6.50781 57.0195 5.89844C57.0898 5.6875 57.125 5.48828 57.125 5.30078C57.125 4.64453 56.8203 4.1875 56.2109 3.92969C56 3.83594 55.8008 3.78906 55.6133 3.78906H55.2266V3.96484C55.2266 4.97266 54.7812 5.73438 53.8906 6.25C53.4922 6.4375 53.0938 6.54297 52.6953 6.56641C48.5938 6.63672 44.7617 6.85938 41.1992 7.23438ZM37.4375 7.72656C37.7188 7.9375 37.9297 8.16016 38.0703 8.39453C38.7266 8.25391 39.6055 8.10156 40.707 7.9375V7.30469C38.7148 7.5625 37.625 7.70313 37.4375 7.72656ZM34.0977 5.05469C34.0039 4.89063 33.793 4.80859 33.4648 4.80859C33.2773 4.80859 33.0664 4.83203 32.832 4.87891C32.1055 5.08984 31.0742 5.45313 29.7383 5.96875C29.668 5.99219 29.5156 6.05078 29.2812 6.14453C28.25 6.56641 27.7227 6.90625 27.6992 7.16406C27.6992 7.1875 27.7109 7.22266 27.7344 7.26953H27.7695C28.1914 7.26953 29.668 6.8125 32.1992 5.89844C32.6445 5.75781 33.0078 5.62891 33.2891 5.51172C33.8281 5.27734 34.0977 5.125 34.0977 5.05469ZM34.6953 16.5859V17.3594C34.7188 18.3906 34.8711 18.918 35.1523 18.9414C35.2695 18.9414 35.4102 17.5234 35.5742 14.6875C35.5977 14.0547 35.6094 13.5391 35.6094 13.1406C35.6094 12.5312 35.5742 12.2148 35.5039 12.1914C35.2227 12.1914 35.0234 12.4961 34.9062 13.1055C34.8828 13.1758 34.8711 13.2344 34.8711 13.2812C34.7539 14.5703 34.6953 15.6719 34.6953 16.5859ZM21.4414 11.4883C20.9258 11.0898 20.6562 10.5625 20.6328 9.90625C20.6328 9.10938 20.9844 8.52344 21.6875 8.14844C21.7578 8.10156 21.8164 8.06641 21.8633 8.04297C27.2305 5.93359 31.332 4.49219 34.168 3.71875C39.6289 2.26562 45.7695 1.48047 52.5898 1.36328H52.625C53.6094 1.38672 54.3594 1.83203 54.875 2.69922H55.6133C56.5977 2.69922 57.3477 3.14453 57.8633 4.03516C58.0977 4.43359 58.2148 4.85547 58.2148 5.30078C58.2148 6.28516 57.7695 7.03516 56.8789 7.55078C56.4805 7.76172 56.0703 7.87891 55.6484 7.90234C49.9062 8.01953 45.1133 8.35938 41.2695 8.92188C41.3633 10.8437 41.4102 12.2969 41.4102 13.2812C41.3867 13.8672 41.2227 14.1719 40.918 14.1953C40.6602 14.1719 40.5312 13.6914 40.5312 12.7539C40.5312 12.6602 40.5664 11.418 40.6367 9.02734C40.2852 9.07422 39.793 9.16797 39.1602 9.30859C38.7852 9.37891 38.5156 9.42578 38.3516 9.44922C38.3516 10.7148 38.3867 12.543 38.457 14.9336C38.5039 17.207 38.5273 18.9062 38.5273 20.0312C38.5273 23.3594 38.3516 26.3242 38 28.9258C37.8828 29.7695 37.4258 30.3555 36.6289 30.6836C36.3477 30.7773 36.0781 30.8242 35.8203 30.8242C34.9531 30.8242 34.3086 30.4258 33.8867 29.6289C33.7227 29.3008 33.6406 28.9609 33.6406 28.6094C33.6406 26.875 33.8047 22.8555 34.1328 16.5508C34.25 14.1836 34.3203 12.1211 34.3438 10.3633C31.5078 11.1602 28.8594 12.0625 26.3984 13.0703C26.5391 13.6328 26.6094 14.1484 26.6094 14.6172C26.5391 15.6484 26.1992 16.1992 25.5898 16.2695C24.6289 16.2695 23.5039 15.1562 22.2148 12.9297C21.957 12.4609 21.6992 11.9805 21.4414 11.4883ZM26.082 12.0156C28.8711 10.9141 31.6367 10 34.3789 9.27344C34.4258 8.92188 34.5664 8.58203 34.8008 8.25391C31.7539 8.88672 28.6953 9.76562 25.625 10.8906C25.6953 11.0312 25.8477 11.4062 26.082 12.0156ZM48.3711 17.4648C47.9258 17.8633 47.4336 18.0742 46.8945 18.0977C46.4023 18.0742 45.9922 17.9453 45.6641 17.7109C46.0391 18.2734 46.4492 18.7422 46.8945 19.1172C47.1055 19.2812 47.3047 19.3633 47.4922 19.3633C48.1016 19.3164 48.418 18.918 48.4414 18.168C48.4414 18.0039 48.418 17.7695 48.3711 17.4648ZM49.5312 18.168C49.5312 19.1758 49.1445 19.8672 48.3711 20.2422C48.0898 20.3828 47.7969 20.4531 47.4922 20.4531C46.9766 20.4297 46.543 20.2656 46.1914 19.9609C44.5508 18.4141 43.6016 16.5977 43.3438 14.5117C42.875 13.3633 42.6406 12.2148 42.6406 11.0664C42.6406 5.41797 44.457 2.13672 48.0898 1.22266C48.7695 1.05859 49.4727 0.976562 50.1992 0.976562C53.3633 0.976562 56.8555 2.25391 60.6758 4.80859C63.9336 7.01172 66.3945 9.42578 68.0586 12.0508C68.9727 13.5508 69.4883 14.9102 69.6055 16.1289C70.0508 17.2773 70.2734 18.1914 70.2734 18.8711C70.2734 21.0508 68.8789 22.5391 66.0898 23.3359C66.0664 23.3594 66.043 23.3711 66.0195 23.3711C67.1914 24.5195 68.9141 26.3945 71.1875 28.9961C71.2344 29.0664 71.2695 29.1133 71.293 29.1367C71.8789 29.8398 72.1719 30.625 72.1719 31.4922C72.1719 32.7109 71.6445 33.707 70.5898 34.4805C69.957 34.9258 69.2773 35.1484 68.5508 35.1484C67.3789 35.125 66.4766 34.7031 65.8438 33.8828C64.7656 32.5 63.8867 30.6016 63.207 28.1875C62.6914 26.3594 62.2109 25.1406 61.7656 24.5312C61.6016 24.3203 61.4375 24.1328 61.2734 23.9688H60.7109C60.0312 23.9688 58.8828 23.9453 57.2656 23.8984V24.0742C57.2656 28.2227 56.7617 30.8477 55.7539 31.9492C55.4727 32.2539 55.168 32.4062 54.8398 32.4062C53.7383 32.4062 52.9531 31.9258 52.4844 30.9648C52.3203 30.6367 52.2266 30.2969 52.2031 29.9453C51.7812 25.2578 51.2891 21.6953 50.7266 19.2578C50.1172 16.7031 49.6484 14.5703 49.3203 12.8594C49.2969 12.7656 49.2852 12.6367 49.2852 12.4727C49.2852 11.582 49.6836 10.9727 50.4805 10.6445C50.7383 10.5273 51.0078 10.4688 51.2891 10.4688C52.625 10.4688 53.8672 11.5703 55.0156 13.7734C55.5312 14.7812 55.9648 15.918 56.3164 17.1836C57.5352 17.3242 59.5273 17.6289 62.293 18.0977C64.8008 18.0742 66.1836 17.4648 66.4414 16.2695C65.3633 14.4414 63.4414 12.6133 60.6758 10.7852C58.8477 9.58984 57.0781 8.69922 55.3672 8.11328C55.4609 9.94141 55.5078 11.3125 55.5078 12.2266C55.4844 12.8125 55.3086 13.1172 54.9805 13.1406C54.7461 13.1172 54.6289 12.6367 54.6289 11.6992C54.6289 11.2539 54.6406 10.6094 54.6641 9.76562C54.6641 8.94531 54.6641 8.32422 54.6641 7.90234C53.4922 7.59766 52.625 7.44531 52.0625 7.44531C49.7188 7.44531 48.4648 8.66406 48.3008 11.1016C48.2773 11.3125 48.2656 11.5117 48.2656 11.6992C48.2656 12.4258 48.5352 13.7383 49.0742 15.6367C49.3789 16.7148 49.5312 17.5586 49.5312 18.168ZM54.6641 5.75781C53.4688 5.35937 52.4023 5.16016 51.4648 5.16016C49.0273 5.16016 47.75 6.4375 47.6328 8.99219C47.6328 9.01562 47.6328 9.03906 47.6328 9.0625C47.7969 8.6875 48.0078 8.33594 48.2656 8.00781C49.1328 6.92969 50.3984 6.39062 52.0625 6.39062C52.8594 6.39062 53.7266 6.51953 54.6641 6.77734V5.75781ZM55.2266 5.93359C55.2266 6.05078 55.2383 6.21484 55.2617 6.42578C55.2852 6.66016 55.2969 6.82422 55.2969 6.91797C55.7891 7.05859 56.3984 7.28125 57.125 7.58594C60.1484 8.89844 62.832 10.7266 65.1758 13.0703C63.6523 11.0547 61.4727 9.21484 58.6367 7.55078C57.4648 6.87109 56.3281 6.33203 55.2266 5.93359ZM57.1953 22.457C57.1953 22.5039 57.207 22.5742 57.2305 22.668C57.2305 22.7617 57.2305 22.832 57.2305 22.8789C57.4648 22.8789 57.8164 22.8906 58.2852 22.9141C58.7773 22.9141 59.1406 22.9141 59.375 22.9141C58.6719 22.6797 57.9453 22.5273 57.1953 22.457ZM65.0703 22.4922C67.5547 21.9531 68.9141 20.9336 69.1484 19.4336C69.1719 19.2461 69.1836 19.0586 69.1836 18.8711V18.5195C68.8086 19.1992 68.1875 19.7852 67.3203 20.2773C66.4531 20.957 65.3281 21.3555 63.9453 21.4727C64.3438 21.8008 64.7188 22.1406 65.0703 22.4922ZM45.8398 5.16016C46.8477 3.63672 48.4297 2.875 50.5859 2.875C50.8203 2.875 51.3477 2.94531 52.168 3.08594C52.4727 3.13281 52.8242 3.15625 53.2227 3.15625C53.4336 3.13281 53.5508 3.07422 53.5742 2.98047C53.5742 2.62891 52.6484 2.35938 50.7969 2.17188C50.4453 2.14844 50.1523 2.13672 49.918 2.13672C47.8789 2.16016 46.332 3.01562 45.2773 4.70312C45.1133 4.98438 45.0312 5.24219 45.0312 5.47656C45.0547 5.6875 45.125 5.80469 45.2422 5.82812H45.2773C45.4648 5.57031 45.6523 5.34766 45.8398 5.16016ZM76.3203 3.78906C76.2969 3.625 76.1562 3.53125 75.8984 3.50781C74.5391 3.50781 73.1797 4.10547 71.8203 5.30078C70.8125 6.21484 70.0625 7.30469 69.5703 8.57031V8.60547C69.5703 8.88672 69.6406 9.02734 69.7812 9.02734C69.9922 9.02734 70.2031 8.86328 70.4141 8.53516C70.4375 8.46484 70.4609 8.41797 70.4844 8.39453C71.1406 6.80078 72.5469 5.53516 74.7031 4.59766C75.1484 4.41016 75.5469 4.26953 75.8984 4.17578C76.1562 4.05859 76.2969 3.92969 76.3203 3.78906ZM86.4805 18.6953C86.4336 18.1797 86.0703 17.875 85.3906 17.7812C85.1562 18.5547 84.6406 19.0234 83.8438 19.1875C83.7031 19.2109 83.5742 19.2227 83.457 19.2227C83.4102 19.2227 83.3633 19.2344 83.3164 19.2578C83.2461 19.2578 83.1992 19.2578 83.1758 19.2578V19.8203C83.9961 19.6797 84.793 19.6094 85.5664 19.6094C85.9648 19.6094 86.2461 19.4102 86.4102 19.0117C86.457 18.8945 86.4805 18.7891 86.4805 18.6953ZM87.5703 18.6953C87.5703 19.4922 87.207 20.0898 86.4805 20.4883C86.1758 20.6289 85.8711 20.6992 85.5664 20.6992C84.6758 20.6992 83.9023 20.7578 83.2461 20.875C83.3164 21.9062 83.3516 22.9375 83.3516 23.9688C83.3281 24.5547 83.1641 24.8594 82.8594 24.8828C82.625 24.8594 82.5078 24.3789 82.5078 23.4414V21.0156C79.7422 21.6484 77.7383 22.7617 76.4961 24.3555C75.8633 25.1992 75.5469 26.0898 75.5469 27.0273C75.5469 27.2617 75.5938 27.5195 75.6875 27.8008C76.4609 27.9648 77.5273 28.0469 78.8867 28.0469C80.6914 28.0469 83.4453 27.5664 87.1484 26.6055C88.3438 26.2773 89.2227 26.0547 89.7852 25.9375C89.9727 25.8906 90.207 25.832 90.4883 25.7617C91.1211 25.5977 91.6602 25.5156 92.1055 25.5156C93.1836 25.5156 93.9688 25.9727 94.4609 26.8867C94.4844 26.9336 94.5078 26.9688 94.5312 26.9922C95.5156 27.0859 96.2188 27.5898 96.6406 28.5039C96.8047 28.8555 96.8867 29.207 96.8867 29.5586C96.8867 30.5195 96.4531 31.2578 95.5859 31.7734C95.1875 31.9844 94.7891 32.1016 94.3906 32.125C89.2578 33.0391 84.793 33.4961 80.9961 33.4961C77.2461 33.4727 74.5859 32.6406 73.0156 31C70.6719 29.875 69.4883 28.0703 69.4648 25.5859C69.4883 23.1953 70.7188 20.9688 73.1562 18.9062C72.7344 18.5547 72.5234 18.3789 72.5234 18.3789C70.5078 17.3945 69.1719 15.918 68.5156 13.9492C68.2578 13.2227 68.1289 12.4727 68.1289 11.6992C68.1289 8.93359 69.2656 6.625 71.5391 4.77344C73.6719 3.03906 76.168 2.17188 79.0273 2.17188C80.4805 2.19531 81.6172 2.73438 82.4375 3.78906C84.2891 4.30469 85.3672 5.81641 85.6719 8.32422C85.7188 8.74609 85.7422 9.17969 85.7422 9.625C85.7422 10.4219 85.3789 11.0195 84.6523 11.418C84.3477 11.5586 84.043 11.6289 83.7383 11.6289C82.8945 11.6289 82.2852 11.2422 81.9102 10.4688C81.8633 10.3516 81.8281 10.2461 81.8047 10.1523H81.6289C80.8086 10.1523 80.2227 9.78906 79.8711 9.0625C79.7305 8.75781 79.6602 8.46484 79.6602 8.18359C79.6602 8.13672 79.6602 8.05469 79.6602 7.9375C79.6367 7.84375 79.625 7.77344 79.625 7.72656C77.5859 8.07812 76.0742 8.99219 75.0898 10.4688C74.5273 11.3125 74.2461 12.2031 74.2461 13.1406C74.2695 13.8438 74.4453 14.4648 74.7734 15.0039C75.7812 15.3086 76.8711 15.4609 78.043 15.4609C78.4648 15.4609 79.7422 15.3906 81.875 15.25C82.2266 15.2266 82.5664 15.2148 82.8945 15.2148C84.3242 15.2383 85.168 15.7305 85.4258 16.6914C86.7617 16.9727 87.4766 17.6406 87.5703 18.6953ZM82.543 19.293C79.8711 19.5039 77.6211 20.2773 75.793 21.6133C74.2695 22.7852 73.4961 24.1094 73.4727 25.5859C73.4961 26.3828 73.8242 26.9805 74.457 27.3789V27.0273C74.4805 25.4805 75.1484 24.0859 76.4609 22.8438C77.9609 21.4609 79.9883 20.5 82.543 19.9609V19.293ZM94.8125 28.1523C94.7891 29.1133 94.332 29.8398 93.4414 30.332C93.0664 30.543 92.6797 30.6602 92.2812 30.6836C87.1484 31.5977 82.6836 32.0547 78.8867 32.0547C78.4414 32.0547 77.832 32.0312 77.0586 31.9844C78.2773 32.2656 79.5898 32.4062 80.9961 32.4062C84.8633 32.4062 89.2578 31.9609 94.1797 31.0703C94.2031 31.0703 94.2383 31.0586 94.2852 31.0352C94.332 31.0352 94.3555 31.0352 94.3555 31.0352C94.9883 31.0117 95.4336 30.707 95.6914 30.1211C95.7852 29.9102 95.832 29.7227 95.832 29.5586C95.832 28.9258 95.5391 28.4805 94.9531 28.2227C94.8828 28.1992 94.8359 28.1758 94.8125 28.1523ZM83.2461 5.40625C83.4805 6.22656 83.5977 7.15234 83.5977 8.18359C83.5742 8.83984 83.3164 9.36719 82.8242 9.76562C82.8945 10.1172 83.1172 10.3633 83.4922 10.5039C83.5859 10.5273 83.668 10.5391 83.7383 10.5391C84.1367 10.5391 84.418 10.3398 84.582 9.94141C84.6289 9.82422 84.6523 9.71875 84.6523 9.625C84.6289 7.60937 84.1602 6.20312 83.2461 5.40625ZM73.1562 13.1406C73.1562 10.8672 74.2344 9.08594 76.3906 7.79688C77.3516 7.23438 78.3945 6.85938 79.5195 6.67188C79.3789 6.34375 79.2148 6.16797 79.0273 6.14453C76.8477 6.14453 75.0664 6.83594 73.6836 8.21875C72.6523 9.22656 72.1367 10.3867 72.1367 11.6992C72.1602 12.7539 72.5469 13.6094 73.2969 14.2656C73.2031 13.7969 73.1562 13.4219 73.1562 13.1406ZM93.8633 3.78906C93.8398 3.625 93.6992 3.53125 93.4414 3.50781C92.082 3.50781 90.7227 4.10547 89.3633 5.30078C88.3555 6.21484 87.6055 7.30469 87.1133 8.57031V8.60547C87.1133 8.88672 87.1836 9.02734 87.3242 9.02734C87.5352 9.02734 87.7461 8.86328 87.957 8.53516C87.9805 8.46484 88.0039 8.41797 88.0273 8.39453C88.6836 6.80078 90.0898 5.53516 92.2461 4.59766C92.6914 4.41016 93.0898 4.26953 93.4414 4.17578C93.6992 4.05859 93.8398 3.92969 93.8633 3.78906ZM104.023 18.6953C103.977 18.1797 103.613 17.875 102.934 17.7812C102.699 18.5547 102.184 19.0234 101.387 19.1875C101.246 19.2109 101.117 19.2227 101 19.2227C100.953 19.2227 100.906 19.2344 100.859 19.2578C100.789 19.2578 100.742 19.2578 100.719 19.2578V19.8203C101.539 19.6797 102.336 19.6094 103.109 19.6094C103.508 19.6094 103.789 19.4102 103.953 19.0117C104 18.8945 104.023 18.7891 104.023 18.6953ZM105.113 18.6953C105.113 19.4922 104.75 20.0898 104.023 20.4883C103.719 20.6289 103.414 20.6992 103.109 20.6992C102.219 20.6992 101.445 20.7578 100.789 20.875C100.859 21.9062 100.895 22.9375 100.895 23.9688C100.871 24.5547 100.707 24.8594 100.402 24.8828C100.168 24.8594 100.051 24.3789 100.051 23.4414V21.0156C97.2852 21.6484 95.2812 22.7617 94.0391 24.3555C93.4062 25.1992 93.0898 26.0898 93.0898 27.0273C93.0898 27.2617 93.1367 27.5195 93.2305 27.8008C94.0039 27.9648 95.0703 28.0469 96.4297 28.0469C98.2344 28.0469 100.988 27.5664 104.691 26.6055C105.887 26.2773 106.766 26.0547 107.328 25.9375C107.516 25.8906 107.75 25.832 108.031 25.7617C108.664 25.5977 109.203 25.5156 109.648 25.5156C110.727 25.5156 111.512 25.9727 112.004 26.8867C112.027 26.9336 112.051 26.9688 112.074 26.9922C113.059 27.0859 113.762 27.5898 114.184 28.5039C114.348 28.8555 114.43 29.207 114.43 29.5586C114.43 30.5195 113.996 31.2578 113.129 31.7734C112.73 31.9844 112.332 32.1016 111.934 32.125C106.801 33.0391 102.336 33.4961 98.5391 33.4961C94.7891 33.4727 92.1289 32.6406 90.5586 31C88.2148 29.875 87.0312 28.0703 87.0078 25.5859C87.0312 23.1953 88.2617 20.9688 90.6992 18.9062C90.2773 18.5547 90.0664 18.3789 90.0664 18.3789C88.0508 17.3945 86.7148 15.918 86.0586 13.9492C85.8008 13.2227 85.6719 12.4727 85.6719 11.6992C85.6719 8.93359 86.8086 6.625 89.082 4.77344C91.2148 3.03906 93.7109 2.17188 96.5703 2.17188C98.0234 2.19531 99.1602 2.73438 99.9805 3.78906C101.832 4.30469 102.91 5.81641 103.215 8.32422C103.262 8.74609 103.285 9.17969 103.285 9.625C103.285 10.4219 102.922 11.0195 102.195 11.418C101.891 11.5586 101.586 11.6289 101.281 11.6289C100.438 11.6289 99.8281 11.2422 99.4531 10.4688C99.4062 10.3516 99.3711 10.2461 99.3477 10.1523H99.1719C98.3516 10.1523 97.7656 9.78906 97.4141 9.0625C97.2734 8.75781 97.2031 8.46484 97.2031 8.18359C97.2031 8.13672 97.2031 8.05469 97.2031 7.9375C97.1797 7.84375 97.168 7.77344 97.168 7.72656C95.1289 8.07812 93.6172 8.99219 92.6328 10.4688C92.0703 11.3125 91.7891 12.2031 91.7891 13.1406C91.8125 13.8438 91.9883 14.4648 92.3164 15.0039C93.3242 15.3086 94.4141 15.4609 95.5859 15.4609C96.0078 15.4609 97.2852 15.3906 99.418 15.25C99.7695 15.2266 100.109 15.2148 100.438 15.2148C101.867 15.2383 102.711 15.7305 102.969 16.6914C104.305 16.9727 105.02 17.6406 105.113 18.6953ZM100.086 19.293C97.4141 19.5039 95.1641 20.2773 93.3359 21.6133C91.8125 22.7852 91.0391 24.1094 91.0156 25.5859C91.0391 26.3828 91.3672 26.9805 92 27.3789V27.0273C92.0234 25.4805 92.6914 24.0859 94.0039 22.8438C95.5039 21.4609 97.5312 20.5 100.086 19.9609V19.293ZM112.355 28.1523C112.332 29.1133 111.875 29.8398 110.984 30.332C110.609 30.543 110.223 30.6602 109.824 30.6836C104.691 31.5977 100.227 32.0547 96.4297 32.0547C95.9844 32.0547 95.375 32.0312 94.6016 31.9844C95.8203 32.2656 97.1328 32.4062 98.5391 32.4062C102.406 32.4062 106.801 31.9609 111.723 31.0703C111.746 31.0703 111.781 31.0586 111.828 31.0352C111.875 31.0352 111.898 31.0352 111.898 31.0352C112.531 31.0117 112.977 30.707 113.234 30.1211C113.328 29.9102 113.375 29.7227 113.375 29.5586C113.375 28.9258 113.082 28.4805 112.496 28.2227C112.426 28.1992 112.379 28.1758 112.355 28.1523ZM100.789 5.40625C101.023 6.22656 101.141 7.15234 101.141 8.18359C101.117 8.83984 100.859 9.36719 100.367 9.76562C100.438 10.1172 100.66 10.3633 101.035 10.5039C101.129 10.5273 101.211 10.5391 101.281 10.5391C101.68 10.5391 101.961 10.3398 102.125 9.94141C102.172 9.82422 102.195 9.71875 102.195 9.625C102.172 7.60937 101.703 6.20312 100.789 5.40625ZM90.6992 13.1406C90.6992 10.8672 91.7773 9.08594 93.9336 7.79688C94.8945 7.23438 95.9375 6.85938 97.0625 6.67188C96.9219 6.34375 96.7578 6.16797 96.5703 6.14453C94.3906 6.14453 92.6094 6.83594 91.2266 8.21875C90.1953 9.22656 89.6797 10.3867 89.6797 11.6992C89.7031 12.7539 90.0898 13.6094 90.8398 14.2656C90.7461 13.7969 90.6992 13.4219 90.6992 13.1406ZM120.828 7.23438V7.86719C124.906 7.25781 129.723 6.90625 135.277 6.8125C135.91 6.8125 136.367 6.50781 136.648 5.89844C136.719 5.6875 136.754 5.48828 136.754 5.30078C136.754 4.64453 136.449 4.1875 135.84 3.92969C135.629 3.83594 135.43 3.78906 135.242 3.78906H134.855V3.96484C134.855 4.97266 134.41 5.73438 133.52 6.25C133.121 6.4375 132.723 6.54297 132.324 6.56641C128.223 6.63672 124.391 6.85938 120.828 7.23438ZM117.066 7.72656C117.348 7.9375 117.559 8.16016 117.699 8.39453C118.355 8.25391 119.234 8.10156 120.336 7.9375V7.30469C118.344 7.5625 117.254 7.70313 117.066 7.72656ZM113.727 5.05469C113.633 4.89063 113.422 4.80859 113.094 4.80859C112.906 4.80859 112.695 4.83203 112.461 4.87891C111.734 5.08984 110.703 5.45313 109.367 5.96875C109.297 5.99219 109.145 6.05078 108.91 6.14453C107.879 6.56641 107.352 6.90625 107.328 7.16406C107.328 7.1875 107.34 7.22266 107.363 7.26953H107.398C107.82 7.26953 109.297 6.8125 111.828 5.89844C112.273 5.75781 112.637 5.62891 112.918 5.51172C113.457 5.27734 113.727 5.125 113.727 5.05469ZM114.324 16.5859V17.3594C114.348 18.3906 114.5 18.918 114.781 18.9414C114.898 18.9414 115.039 17.5234 115.203 14.6875C115.227 14.0547 115.238 13.5391 115.238 13.1406C115.238 12.5312 115.203 12.2148 115.133 12.1914C114.852 12.1914 114.652 12.4961 114.535 13.1055C114.512 13.1758 114.5 13.2344 114.5 13.2812C114.383 14.5703 114.324 15.6719 114.324 16.5859ZM101.07 11.4883C100.555 11.0898 100.285 10.5625 100.262 9.90625C100.262 9.10938 100.613 8.52344 101.316 8.14844C101.387 8.10156 101.445 8.06641 101.492 8.04297C106.859 5.93359 110.961 4.49219 113.797 3.71875C119.258 2.26562 125.398 1.48047 132.219 1.36328H132.254C133.238 1.38672 133.988 1.83203 134.504 2.69922H135.242C136.227 2.69922 136.977 3.14453 137.492 4.03516C137.727 4.43359 137.844 4.85547 137.844 5.30078C137.844 6.28516 137.398 7.03516 136.508 7.55078C136.109 7.76172 135.699 7.87891 135.277 7.90234C129.535 8.01953 124.742 8.35938 120.898 8.92188C120.992 10.8437 121.039 12.2969 121.039 13.2812C121.016 13.8672 120.852 14.1719 120.547 14.1953C120.289 14.1719 120.16 13.6914 120.16 12.7539C120.16 12.6602 120.195 11.418 120.266 9.02734C119.914 9.07422 119.422 9.16797 118.789 9.30859C118.414 9.37891 118.145 9.42578 117.98 9.44922C117.98 10.7148 118.016 12.543 118.086 14.9336C118.133 17.207 118.156 18.9062 118.156 20.0312C118.156 23.3594 117.98 26.3242 117.629 28.9258C117.512 29.7695 117.055 30.3555 116.258 30.6836C115.977 30.7773 115.707 30.8242 115.449 30.8242C114.582 30.8242 113.938 30.4258 113.516 29.6289C113.352 29.3008 113.27 28.9609 113.27 28.6094C113.27 26.875 113.434 22.8555 113.762 16.5508C113.879 14.1836 113.949 12.1211 113.973 10.3633C111.137 11.1602 108.488 12.0625 106.027 13.0703C106.168 13.6328 106.238 14.1484 106.238 14.6172C106.168 15.6484 105.828 16.1992 105.219 16.2695C104.258 16.2695 103.133 15.1562 101.844 12.9297C101.586 12.4609 101.328 11.9805 101.07 11.4883ZM105.711 12.0156C108.5 10.9141 111.266 10 114.008 9.27344C114.055 8.92188 114.195 8.58203 114.43 8.25391C111.383 8.88672 108.324 9.76562 105.254 10.8906C105.324 11.0312 105.477 11.4062 105.711 12.0156ZM136.648 10.3633C138.383 8.16016 141.875 6.19141 147.125 4.45703C147.266 4.41016 147.395 4.36328 147.512 4.31641C148.051 4.10547 148.332 3.95312 148.355 3.85938C148.332 3.67187 148.203 3.56641 147.969 3.54297C146.797 3.54297 144.992 4.12891 142.555 5.30078C139.484 6.77734 137.434 8.3125 136.402 9.90625C136.332 10.0469 136.297 10.1875 136.297 10.3281C136.297 10.4688 136.332 10.5391 136.402 10.5391C136.496 10.4922 136.578 10.4336 136.648 10.3633ZM141.605 30.5781C141.559 30.5781 141.512 30.5664 141.465 30.543C141.371 30.5195 141.312 30.5078 141.289 30.5078H141.078C140.656 30.5078 140.363 30.7188 140.199 31.1406C140.176 31.2344 140.164 31.3164 140.164 31.3867C140.164 31.7617 140.34 32.043 140.691 32.2305C140.762 32.2773 140.82 32.3008 140.867 32.3008H140.902V32.125C140.926 31.4922 141.16 30.9766 141.605 30.5781ZM141.395 9.48438C140.832 9.78906 140.328 10.0938 139.883 10.3984C140 13.2812 140.059 15.0039 140.059 15.5664C140.012 16.1289 139.848 16.4219 139.566 16.4453C139.332 16.4219 139.215 15.9414 139.215 15.0039C139.215 14.957 139.25 13.5625 139.32 10.8203C138.078 11.7813 137.328 12.6367 137.07 13.3867C136.836 14.0664 136.344 14.4883 135.594 14.6523C135.453 14.6758 135.324 14.6875 135.207 14.6875C134.574 14.6641 134.059 14.4297 133.66 13.9844H133.414C132.617 13.9844 132.02 13.6211 131.621 12.8945C131.48 12.5898 131.41 12.2852 131.41 11.9805C131.41 11.7461 131.445 11.5234 131.516 11.3125C132.312 9.08594 134.492 6.92969 138.055 4.84375C141.992 2.52344 146.258 1.03516 150.852 0.378906C152.141 0.191406 153.383 0.0976562 154.578 0.0976562C156.242 0.0976562 157.578 0.414062 158.586 1.04688C161.07 1.63281 162.324 3.21484 162.348 5.79297C162.324 11.3477 158.832 16.4922 151.871 21.2266C154.566 21.4375 156.559 21.9062 157.848 22.6328C160.004 23.2422 161.094 24.2031 161.117 25.5156C161.117 28.4453 159.406 30.7773 155.984 32.5117C153.242 33.8711 150.195 34.5508 146.844 34.5508C145.297 34.5508 143.82 34.3867 142.414 34.0586C142.062 33.9648 141.746 33.7891 141.465 33.5312C140.012 33.3672 139.227 32.7461 139.109 31.668C139.086 31.5742 139.074 31.4805 139.074 31.3867C139.074 30.5664 139.461 29.9688 140.234 29.5938C140.516 29.4766 140.797 29.418 141.078 29.418H141.219V29.3828C141.219 28.3047 141.301 26.9336 141.465 25.2695C140.715 25.2227 140.152 25.0117 139.777 24.6367C139.379 24.1914 139.168 23.7109 139.145 23.1953C139.168 22.3516 139.578 21.7422 140.375 21.3672C141.008 21.0625 141.512 20.8164 141.887 20.6289C141.934 19.9961 141.957 19.1055 141.957 17.957C141.957 14.7461 141.77 11.9219 141.395 9.48438ZM145.156 7.79688C145.742 10.9844 146.059 14.4414 146.105 18.168C150.395 15.3555 153.195 12.6836 154.508 10.1523C154.742 9.68359 154.918 9.23828 155.035 8.81641C154.824 8.16016 154.027 7.69141 152.645 7.41016C152.176 7.31641 151.73 7.26953 151.309 7.26953C151.074 7.24609 150.945 7.1875 150.922 7.09375C150.945 6.8125 151.473 6.67188 152.504 6.67188C153.676 6.69531 154.566 6.96484 155.176 7.48047C155.129 6.87109 154.859 6.36719 154.367 5.96875C153.875 5.875 153.254 5.82812 152.504 5.82812C151.098 5.82812 148.777 6.4375 145.543 7.65625C145.402 7.70313 145.273 7.75 145.156 7.79688ZM146.105 20.0312C150.535 17.3828 153.676 14.7695 155.527 12.1914C156.488 10.8086 156.969 9.55469 156.969 8.42969C156.945 7.67969 156.664 7.09375 156.125 6.67188C156.219 6.97656 156.266 7.31641 156.266 7.69141C156.242 8.81641 155.832 10.0703 155.035 11.4531C153.441 13.9844 150.465 16.6445 146.105 19.4336V20.0312ZM141.746 22.3164C141.746 22.2695 141.746 22.1992 141.746 22.1055C141.77 22.0117 141.781 21.9414 141.781 21.8945C141.359 22.1055 141.043 22.2578 140.832 22.3516C140.457 22.5391 140.258 22.8203 140.234 23.1953C140.234 23.4297 140.316 23.6289 140.48 23.793L140.516 23.8281C140.656 23.9688 140.785 24.0508 140.902 24.0742C140.926 24.0742 140.961 24.0859 141.008 24.1094C141.008 24.0859 140.996 24.0508 140.973 24.0039C140.973 23.957 140.973 23.9219 140.973 23.8984C140.996 23.2422 141.254 22.7148 141.746 22.3164ZM145.754 25.9727C145.52 27.707 145.309 28.9961 145.121 29.8398C147.699 29.8164 150.266 29.3242 152.82 28.3633C154.578 27.707 155.469 27.0859 155.492 26.5C155.469 26.3594 155.434 26.2539 155.387 26.1836C154.004 25.9492 152.117 25.832 149.727 25.832C148.742 25.832 147.418 25.8789 145.754 25.9727ZM133.238 12.8945V12.7188C133.238 12.4609 133.273 12.2266 133.344 12.0156C134.164 9.76562 136.344 7.59766 139.883 5.51172C142.812 3.80078 146.023 2.52344 149.516 1.67969C145.086 2.54687 141.102 4.11719 137.562 6.39062C136.344 7.1875 135.324 7.99609 134.504 8.81641C133.496 9.82422 132.84 10.7734 132.535 11.6641C132.512 11.7578 132.5 11.8633 132.5 11.9805C132.5 12.3789 132.699 12.6719 133.098 12.8594C133.168 12.8828 133.215 12.8945 133.238 12.8945ZM150.605 30.1562C153.488 29.6172 155.527 28.9023 156.723 28.0117C157.098 27.707 157.297 27.4375 157.32 27.2031C157.273 26.9453 157.027 26.7109 156.582 26.5C156.582 27.0859 156.242 27.6484 155.562 28.1875C155.492 28.2344 155.457 28.2578 155.457 28.2578C154.449 28.9375 152.832 29.5703 150.605 30.1562ZM183.055 29.9453C183.055 30.7656 182.691 31.375 181.965 31.7734C181.684 31.9141 181.391 31.9844 181.086 31.9844C180.688 31.9609 180.289 31.8203 179.891 31.5625C179.469 31.8438 179.082 31.9844 178.73 31.9844C178.332 31.9609 177.957 31.8438 177.605 31.6328L176.902 31.3867H176.691C174.465 31.3867 171.453 31.832 167.656 32.7227H167.621H167.586L167.551 32.7578H167.516H167.48H167.445L167.41 32.793H167.375H167.34H167.305L167.27 32.8281H167.199C167.199 32.9688 167.199 33.1914 167.199 33.4961C167.223 33.8008 167.234 34.0234 167.234 34.1641C167.211 34.75 167.047 35.0547 166.742 35.0781C166.484 35.0547 166.355 34.5742 166.355 33.6367V33.0391L162.594 33.6367C161.797 33.6367 161.199 33.2734 160.801 32.5469C160.66 32.2422 160.59 31.9375 160.59 31.6328V31.4219C160.613 30.1562 161.293 29.1836 162.629 28.5039C162.582 28.2695 162.559 28.0938 162.559 27.9766V24.7773C162.559 23.8867 162.57 22.6211 162.594 20.9805C162.594 19.6445 162.594 18.6836 162.594 18.0977C162.594 13.4805 162.277 9.82422 161.645 7.12891C161.457 6.35547 161.246 5.59375 161.012 4.84375C160.965 4.70312 160.941 4.49219 160.941 4.21094C160.941 3.39062 161.305 2.80469 162.031 2.45312C162.336 2.3125 162.629 2.24219 162.91 2.24219C163.379 2.26562 163.777 2.39453 164.105 2.62891C164.457 2.37109 164.855 2.24219 165.301 2.24219C166.145 2.24219 166.742 2.61719 167.094 3.36719C167.141 3.46094 167.176 3.54297 167.199 3.61328C168.582 7.99609 169.449 12.0742 169.801 15.8477C170.059 18.6602 170.199 22.4336 170.223 27.168H171.664C172.812 27.168 173.809 27.2148 174.652 27.3086C173.645 25.5039 172.602 23.4062 171.523 21.0156C171.453 20.875 171.418 20.7344 171.418 20.5938C171.418 20.0078 171.676 19.668 172.191 19.5742C172.285 19.5508 172.367 19.5391 172.438 19.5391C172.906 19.5391 173.293 19.832 173.598 20.418C173.691 20.6289 173.75 20.7461 173.773 20.7695C173.773 20.7461 173.762 20.7109 173.738 20.6641C173.738 20.6172 173.738 20.582 173.738 20.5586C173.738 20.1133 173.973 19.7969 174.441 19.6094C174.582 19.5625 174.711 19.5391 174.828 19.5391C175.297 19.5391 175.613 19.7148 175.777 20.0664C175.801 20.0898 175.812 20.1133 175.812 20.1367C176.117 20.7461 177.312 22.2812 179.398 24.7422C180.875 26.4531 181.977 27.8125 182.703 28.8203C182.938 29.1484 183.055 29.5234 183.055 29.9453ZM162.348 6.35547C162.676 7.85547 162.898 10.3398 163.016 13.8086C163.016 13.9023 163.016 13.9961 163.016 14.0898C163.062 14.793 163.285 15.1562 163.684 15.1797C164.035 15.0156 164.246 14.6523 164.316 14.0898V13.9844C164.223 11.0078 163.93 8.44141 163.438 6.28516C163.414 6.21484 163.391 6.13281 163.367 6.03906C163.227 5.40625 162.992 5.07812 162.664 5.05469C162.453 5.10156 162.336 5.33594 162.312 5.75781C162.312 6.01563 162.324 6.21484 162.348 6.35547ZM181.086 30.8945C181.578 30.8945 181.871 30.6484 181.965 30.1562C181.988 30.0859 182 30.0156 182 29.9453C181.977 29.7344 181.93 29.5703 181.859 29.4531C181.273 28.6562 179.785 26.8516 177.395 24.0391C176.809 23.3594 176.328 22.7852 175.953 22.3164C175.672 21.9648 175.402 21.5781 175.145 21.1562C175.566 22.1406 176.07 23.1953 176.656 24.3203C178.203 26.125 179.305 27.4609 179.961 28.3281C180.477 28.75 180.746 29.2773 180.77 29.9102C180.77 30.2148 180.711 30.4961 180.594 30.7539C180.781 30.8477 180.945 30.8945 181.086 30.8945ZM167.832 27.3086C167.973 27.2852 168.184 27.2734 168.465 27.2734C168.77 27.2266 168.992 27.2031 169.133 27.2031C169.039 19.8906 168.629 14.3828 167.902 10.6797C167.527 8.73437 166.941 6.48437 166.145 3.92969C165.98 3.57812 165.699 3.37891 165.301 3.33203C165.113 3.35547 164.938 3.41406 164.773 3.50781C164.773 3.53125 164.785 3.56641 164.809 3.61328C166.191 7.99609 167.059 12.1094 167.41 15.9531C167.668 18.7891 167.809 22.5742 167.832 27.3086ZM192.723 11.3477C191.926 11.3477 191.328 10.9375 190.93 10.1172C190.93 10.0703 190.918 10.0352 190.895 10.0117C187.543 11.2305 185.469 13.1875 184.672 15.8828C184.484 16.5859 184.391 17.3008 184.391 18.0273C184.391 20.5352 185.363 22.8086 187.309 24.8477C189.559 27.1914 192.383 28.4453 195.781 28.6094C195.992 28.6094 196.191 28.6094 196.379 28.6094C199.355 28.6094 201.477 27.625 202.742 25.6562C203.469 24.5078 203.832 23.125 203.832 21.5078C203.832 18.9766 202.953 16.7266 201.195 14.7578C199.109 12.4609 196.426 11.3125 193.145 11.3125H192.758L192.723 11.3477ZM200.352 19.4688C200.023 19.375 199.848 19.0352 199.824 18.4492C199.824 17.0195 199.273 15.8008 198.172 14.793C197.047 13.7617 195.594 13.2461 193.812 13.2461C193.625 13.2461 193.332 13.2695 192.934 13.3164C192.488 13.3633 192.16 13.3867 191.949 13.3867C191.645 13.3633 191.48 13.2461 191.457 13.0352C191.48 12.4492 192.547 12.1562 194.656 12.1562C196.25 12.1562 197.773 12.7188 199.227 13.8438C200.562 14.9453 201.242 16.1523 201.266 17.4648C201.266 18.4258 201.055 19.0586 200.633 19.3633C200.539 19.4336 200.445 19.4688 200.352 19.4688ZM182.422 12.8594C183.828 11.0547 185.223 9.76562 186.605 8.99219C187.543 8.47656 188.762 7.97266 190.262 7.48047C190.801 7.26953 191.082 7.11719 191.105 7.02344C191.059 6.83594 190.953 6.73047 190.789 6.70703C189.5 6.70703 187.906 7.33984 186.008 8.60547C184.367 9.73047 183.09 10.9961 182.176 12.4023C182.105 12.543 182.07 12.6836 182.07 12.8242C182.07 12.9648 182.105 13.0352 182.176 13.0352C182.27 12.9883 182.352 12.9297 182.422 12.8594ZM208.895 21.0508V22.1406C208.871 25.5156 207.793 28.1055 205.66 29.9102C205.824 32.6992 205.906 34.5039 205.906 35.3242C205.859 35.8867 205.684 36.1797 205.379 36.2031C205.145 36.1797 205.027 35.7109 205.027 34.7969C205.027 34.2812 205.039 33.5312 205.062 32.5469C205.062 31.5859 205.062 30.8711 205.062 30.4023C203.141 31.7383 200.68 32.4062 197.68 32.4062H196.59C191.223 32.4062 186.828 30.7539 183.406 27.4492C180.664 24.8008 179.07 21.6602 178.625 18.0273C178.555 17.4414 178.52 16.8555 178.52 16.2695C178.52 12.6836 179.727 9.69531 182.141 7.30469C182.445 7 182.762 6.71875 183.09 6.46094C185.785 4.35156 189.23 3.29688 193.426 3.29688C194.527 3.29688 195.383 3.75391 195.992 4.66797C196.203 4.97266 196.344 5.30078 196.414 5.65234C200.375 6.51953 203.539 8.61719 205.906 11.9453C207.898 14.7578 208.895 17.793 208.895 21.0508ZM195.289 5.58203C195.008 4.90234 194.492 4.50391 193.742 4.38672C193.625 4.36328 193.52 4.35156 193.426 4.35156C188.34 4.35156 184.555 5.89844 182.07 8.99219C180.43 11.0547 179.609 13.4805 179.609 16.2695C179.609 19.6914 180.77 22.7852 183.09 25.5508C183.535 26.0664 184.004 26.5469 184.496 26.9922C182.035 24.1094 180.77 20.8984 180.699 17.3594C180.699 13.9141 181.895 11.0898 184.285 8.88672C186.793 6.58984 190.203 5.44141 194.516 5.44141C194.82 5.44141 195.078 5.48828 195.289 5.58203ZM196.379 6.77734C196.473 7.05859 196.52 7.26953 196.52 7.41016C196.52 7.43359 196.508 7.46875 196.484 7.51562C196.484 7.5625 196.484 7.59766 196.484 7.62109C199.32 8.11328 201.793 9.30859 203.902 11.207C201.84 8.93359 199.332 7.45703 196.379 6.77734ZM227.562 2.66406C223.133 2.875 219.113 4.22266 215.504 6.70703C215.012 7.03516 214.555 7.375 214.133 7.72656C213.57 8.19531 213.277 8.60547 213.254 8.95703C213.301 9.14453 213.395 9.25 213.535 9.27344C213.84 9.25 214.203 9.0625 214.625 8.71094C218 5.99219 221.949 4.375 226.473 3.85938C226.941 3.8125 227.41 3.77734 227.879 3.75391C228.137 3.73047 228.277 3.61328 228.301 3.40234C228.301 3.07422 228.148 2.83984 227.844 2.69922C227.75 2.67578 227.68 2.66406 227.633 2.66406H227.562ZM227.281 21.0859L223.484 21.4375C222.711 21.4375 222.031 21.4023 221.445 21.332C221.633 24.543 221.727 26.3594 221.727 26.7812C221.703 27.3672 221.527 27.6719 221.199 27.6953C220.965 27.6719 220.848 27.1914 220.848 26.2539C220.848 25.6914 220.859 24.8359 220.883 23.6875C220.883 22.5625 220.883 21.7305 220.883 21.1914C219.359 20.8867 218.586 20.2656 218.562 19.3281C218.562 18.4141 218.984 17.8047 219.828 17.5C220.039 17.4297 220.25 17.3828 220.461 17.3594C224.938 17.125 228.969 16.6914 232.555 16.0586C233.938 15.8242 234.852 15.6719 235.297 15.6016H235.473C236.059 15.6016 236.445 15.8828 236.633 16.4453C236.68 16.5859 236.703 16.7148 236.703 16.832C236.703 17.6055 235.625 18.4492 233.469 19.3633C232.906 19.5977 232.32 19.8203 231.711 20.0312C231.758 20.0781 231.828 20.1719 231.922 20.3125C232.016 20.4531 232.086 20.5469 232.133 20.5938C234.734 23.1016 236.047 26.1484 236.07 29.7344C236.07 32.8516 234.664 35.2891 231.852 37.0469C229.672 38.3828 227.094 39.0508 224.117 39.0508C220.016 39.0508 216.582 37.7734 213.816 35.2188C213.113 34.5625 212.48 33.8477 211.918 33.0742C208.871 30.1211 207.348 26.1133 207.348 21.0508C207.348 15.4258 209.445 10.8086 213.641 7.19922C216.875 4.38672 220.754 2.65234 225.277 1.99609C226.191 1.87891 227.07 1.80859 227.914 1.78516C229.133 1.78516 230.012 2.17188 230.551 2.94531C230.762 3.27344 230.879 3.61328 230.902 3.96484C232.004 4.36328 232.566 5.04297 232.59 6.00391C232.59 6.84766 232.227 7.45703 231.5 7.83203C231.336 7.92578 231.16 7.98438 230.973 8.00781C226.637 8.78125 223.344 9.70703 221.094 10.7852C215.609 13.4805 212.855 17.9805 212.832 24.2852C212.855 25.8086 213.23 27.2031 213.957 28.4688C215.949 30.1562 218.469 31 221.516 31H222.113C224.41 30.9062 226.191 30.2852 227.457 29.1367C228.16 28.4805 228.523 27.7773 228.547 27.0273C228.547 24.8242 228.242 22.9727 227.633 21.4727C227.422 21.2383 227.305 21.1094 227.281 21.0859ZM234.172 25.4102C234.312 26.207 234.383 27.0039 234.383 27.8008C234.383 30.9414 232.965 33.3789 230.129 35.1133C227.949 36.4258 225.383 37.082 222.43 37.082C220.461 37.082 218.621 36.7656 216.91 36.1328C219.09 37.375 221.492 37.9961 224.117 37.9961C227.328 37.9961 230.012 37.1523 232.168 35.4648C232.543 35.1602 232.871 34.8555 233.152 34.5508C234.371 33.1914 234.98 31.5859 234.98 29.7344C234.98 28.2344 234.711 26.793 234.172 25.4102ZM230.656 5.01953C230.328 5.58203 229.871 5.92187 229.285 6.03906C224.949 6.8125 221.656 7.73828 219.406 8.81641C213.922 11.5117 211.168 16.0117 211.145 22.3164C211.145 23.5352 211.379 24.6602 211.848 25.6914C211.777 25.2227 211.742 24.7539 211.742 24.2852C211.766 17.7461 214.543 13.0117 220.074 10.082C222.535 8.79297 226.051 7.76172 230.621 6.98828H230.656L230.691 6.95312H230.727H230.762C231.113 6.88281 231.348 6.64844 231.465 6.25C231.488 6.15625 231.5 6.07422 231.5 6.00391C231.477 5.55859 231.195 5.23047 230.656 5.01953Z" fill="white"/>
</svg>
