<svg width="211" height="36" viewBox="0 0 211 36" fill="none" xmlns="http://www.w3.org/2000/svg">
<path d="M1.8125 10.0312C1.8125 8.36458 2.40625 7.10417 3.59375 6.25C4.26042 5.77083 5 5.53125 5.8125 5.53125C8.10417 5.53125 10.9375 6.57292 14.3125 8.65625C15.4583 9.36458 16.2396 9.92708 16.6562 10.3438C17.3229 8.90625 17.8542 8.1875 18.25 8.1875C18.5625 8.22917 18.7292 8.625 18.75 9.375C18.75 10.5417 18.5208 11.6042 18.0625 12.5625C17.6875 13.2708 17.2604 13.6354 16.7812 13.6562C16.7812 13.6562 16.0729 13.0625 14.6562 11.875C13.6562 11.0833 12.7188 10.4167 11.8438 9.875C11.1562 9.625 10.5938 9.5 10.1562 9.5C9.03125 9.54167 8.45833 10.1042 8.4375 11.1875C8.45833 13.0417 9.44792 14.5833 11.4062 15.8125C12.0729 16.1042 13.125 16.5208 14.5625 17.0625C17.125 18 18.9062 18.7812 19.9062 19.4062C22.4688 20.5521 24.0625 21.8438 24.6875 23.2812C24.9583 23.8854 25.0938 24.5312 25.0938 25.2188C25.0938 27.0312 23.8438 28.3333 21.3438 29.125C19.9479 29.5625 18.3333 29.7812 16.5 29.7812C12.9583 29.7812 9.84375 29.1042 7.15625 27.75C6.73958 27.5417 6.36458 27.3333 6.03125 27.125C5.46875 26.8958 4.88542 26.6042 4.28125 26.25C4.36458 27.875 4.40625 29.0833 4.40625 29.875C4.38542 30.3958 4.22917 30.6667 3.9375 30.6875C3.72917 30.6667 3.625 30.2396 3.625 29.4062C3.625 29.0104 3.63542 28.4167 3.65625 27.625C3.65625 26.8333 3.65625 26.25 3.65625 25.875C1.63542 24.4792 0.614583 22.8438 0.59375 20.9688C0.59375 20.2188 0.927083 19.6875 1.59375 19.375C1.82292 19.25 2.07292 19.1875 2.34375 19.1875C2.34375 19.1875 3.46875 19.875 5.71875 21.25C10.5521 24.0417 14.0521 25.4479 16.2188 25.4688C17.7188 25.4271 18.4792 24.6875 18.5 23.25C18.4792 22.3542 17.9583 21.5729 16.9375 20.9062C16.3333 20.6562 15.3542 20.2917 14 19.8125C11.1458 18.7708 9.11458 17.8958 7.90625 17.1875C4.84375 15.8125 2.94792 14.1771 2.21875 12.2812C1.94792 11.5729 1.8125 10.8229 1.8125 10.0312ZM6.34375 6.15625H6.28125C4.11458 6.21875 3.01042 7.125 2.96875 8.875C2.96875 9.79167 3.0625 10.375 3.25 10.625C3.27083 10.6458 3.29167 10.6562 3.3125 10.6562C3.45833 10.6146 3.53125 10.4167 3.53125 10.0625C3.53125 9.97917 3.52083 9.84375 3.5 9.65625C3.5 9.55208 3.5 9.47917 3.5 9.4375C3.5 7.85417 4.02083 6.95833 5.0625 6.75C5.27083 6.70833 5.55208 6.6875 5.90625 6.6875H6C6.10417 6.6875 6.20833 6.6875 6.3125 6.6875C6.47917 6.70833 6.65625 6.71875 6.84375 6.71875C6.96875 6.69792 7.04167 6.66667 7.0625 6.625C6.875 6.35417 6.63542 6.19792 6.34375 6.15625ZM7.46875 11.1875C7.46875 10.0833 7.88542 9.30208 8.71875 8.84375C8.92708 8.73958 9.125 8.66667 9.3125 8.625C8.8125 8.45833 8.38542 8.375 8.03125 8.375C6.88542 8.41667 6.30208 9 6.28125 10.125C6.30208 11.5833 6.9375 12.8438 8.1875 13.9062C7.70833 12.9688 7.46875 12.0625 7.46875 11.1875ZM22.4375 21.9375C22.7917 22.6667 22.9688 23.3854 22.9688 24.0938C22.9688 25.8854 21.7604 27.1875 19.3438 28C17.9062 28.4792 16.2396 28.7188 14.3438 28.7188H14C14.125 28.7396 14.2604 28.75 14.4062 28.75C14.5521 28.7708 14.6979 28.7812 14.8438 28.7812C15.0104 28.7812 15.1667 28.7812 15.3125 28.7812C15.4792 28.8021 15.625 28.8125 15.75 28.8125C15.8958 28.8333 16.0208 28.8438 16.125 28.8438C16.25 28.8438 16.3438 28.8438 16.4062 28.8438H16.5C19.6875 28.8229 21.9375 28.2292 23.25 27.0625C23.8542 26.5 24.1562 25.8854 24.1562 25.2188C24.1354 23.9688 23.5625 22.875 22.4375 21.9375ZM36.8438 6.875V7.4375C40.4688 6.89583 44.75 6.58333 49.6875 6.5C50.25 6.5 50.6562 6.22917 50.9062 5.6875C50.9688 5.5 51 5.32292 51 5.15625C51 4.57292 50.7292 4.16667 50.1875 3.9375C50 3.85417 49.8229 3.8125 49.6562 3.8125H49.3125V3.96875C49.3125 4.86458 48.9167 5.54167 48.125 6C47.7708 6.16667 47.4167 6.26042 47.0625 6.28125C43.4167 6.34375 40.0104 6.54167 36.8438 6.875ZM33.5 7.3125C33.75 7.5 33.9375 7.69792 34.0625 7.90625C34.6458 7.78125 35.4271 7.64583 36.4062 7.5V6.9375C34.6354 7.16667 33.6667 7.29167 33.5 7.3125ZM30.5312 4.9375C30.4479 4.79167 30.2604 4.71875 29.9688 4.71875C29.8021 4.71875 29.6146 4.73958 29.4062 4.78125C28.7604 4.96875 27.8438 5.29167 26.6562 5.75C26.5938 5.77083 26.4583 5.82292 26.25 5.90625C25.3333 6.28125 24.8646 6.58333 24.8438 6.8125C24.8438 6.83333 24.8542 6.86458 24.875 6.90625H24.9062C25.2812 6.90625 26.5938 6.5 28.8438 5.6875C29.2396 5.5625 29.5625 5.44792 29.8125 5.34375C30.2917 5.13542 30.5312 5 30.5312 4.9375ZM31.0625 15.1875V15.875C31.0833 16.7917 31.2188 17.2604 31.4688 17.2812C31.5729 17.2812 31.6979 16.0208 31.8438 13.5C31.8646 12.9375 31.875 12.4792 31.875 12.125C31.875 11.5833 31.8438 11.3021 31.7812 11.2812C31.5312 11.2812 31.3542 11.5521 31.25 12.0938C31.2292 12.1562 31.2188 12.2083 31.2188 12.25C31.1146 13.3958 31.0625 14.375 31.0625 15.1875ZM19.2812 10.6562C18.8229 10.3021 18.5833 9.83333 18.5625 9.25C18.5625 8.54167 18.875 8.02083 19.5 7.6875C19.5625 7.64583 19.6146 7.61458 19.6562 7.59375C24.4271 5.71875 28.0729 4.4375 30.5938 3.75C35.4479 2.45833 40.9062 1.76042 46.9688 1.65625H47C47.875 1.67708 48.5417 2.07292 49 2.84375H49.6562C50.5312 2.84375 51.1979 3.23958 51.6562 4.03125C51.8646 4.38542 51.9688 4.76042 51.9688 5.15625C51.9688 6.03125 51.5729 6.69792 50.7812 7.15625C50.4271 7.34375 50.0625 7.44792 49.6875 7.46875C44.5833 7.57292 40.3229 7.875 36.9062 8.375C36.9896 10.0833 37.0312 11.375 37.0312 12.25C37.0104 12.7708 36.8646 13.0417 36.5938 13.0625C36.3646 13.0417 36.25 12.6146 36.25 11.7812C36.25 11.6979 36.2812 10.5938 36.3438 8.46875C36.0312 8.51042 35.5938 8.59375 35.0312 8.71875C34.6979 8.78125 34.4583 8.82292 34.3125 8.84375C34.3125 9.96875 34.3438 11.5938 34.4062 13.7188C34.4479 15.7396 34.4688 17.25 34.4688 18.25C34.4688 21.2083 34.3125 23.8438 34 26.1562C33.8958 26.9062 33.4896 27.4271 32.7812 27.7188C32.5312 27.8021 32.2917 27.8438 32.0625 27.8438C31.2917 27.8438 30.7188 27.4896 30.3438 26.7812C30.1979 26.4896 30.125 26.1875 30.125 25.875C30.125 24.3333 30.2708 20.7604 30.5625 15.1562C30.6667 13.0521 30.7292 11.2188 30.75 9.65625C28.2292 10.3646 25.875 11.1667 23.6875 12.0625C23.8125 12.5625 23.875 13.0208 23.875 13.4375C23.8125 14.3542 23.5104 14.8438 22.9688 14.9062C22.1146 14.9062 21.1146 13.9167 19.9688 11.9375C19.7396 11.5208 19.5104 11.0938 19.2812 10.6562ZM23.4062 11.125C25.8854 10.1458 28.3438 9.33333 30.7812 8.6875C30.8229 8.375 30.9479 8.07292 31.1562 7.78125C28.4479 8.34375 25.7292 9.125 23 10.125C23.0625 10.25 23.1979 10.5833 23.4062 11.125ZM43.2188 15.9688C42.8229 16.3229 42.3854 16.5104 41.9062 16.5312C41.4688 16.5104 41.1042 16.3958 40.8125 16.1875C41.1458 16.6875 41.5104 17.1042 41.9062 17.4375C42.0938 17.5833 42.2708 17.6562 42.4375 17.6562C42.9792 17.6146 43.2604 17.2604 43.2812 16.5938C43.2812 16.4479 43.2604 16.2396 43.2188 15.9688ZM44.25 16.5938C44.25 17.4896 43.9062 18.1042 43.2188 18.4375C42.9688 18.5625 42.7083 18.625 42.4375 18.625C41.9792 18.6042 41.5938 18.4583 41.2812 18.1875C39.8229 16.8125 38.9792 15.1979 38.75 13.3438C38.3333 12.3229 38.125 11.3021 38.125 10.2812C38.125 5.26042 39.7396 2.34375 42.9688 1.53125C43.5729 1.38542 44.1979 1.3125 44.8438 1.3125C47.6562 1.3125 50.7604 2.44792 54.1562 4.71875C57.0521 6.67708 59.2396 8.82292 60.7188 11.1562C61.5312 12.4896 61.9896 13.6979 62.0938 14.7812C62.4896 15.8021 62.6875 16.6146 62.6875 17.2188C62.6875 19.1562 61.4479 20.4792 58.9688 21.1875C58.9479 21.2083 58.9271 21.2188 58.9062 21.2188C59.9479 22.2396 61.4792 23.9062 63.5 26.2188C63.5417 26.2812 63.5729 26.3229 63.5938 26.3438C64.1146 26.9688 64.375 27.6667 64.375 28.4375C64.375 29.5208 63.9062 30.4062 62.9688 31.0938C62.4062 31.4896 61.8021 31.6875 61.1562 31.6875C60.1146 31.6667 59.3125 31.2917 58.75 30.5625C57.7917 29.3333 57.0104 27.6458 56.4062 25.5C55.9479 23.875 55.5208 22.7917 55.125 22.25C54.9792 22.0625 54.8333 21.8958 54.6875 21.75H54.1875C53.5833 21.75 52.5625 21.7292 51.125 21.6875V21.8438C51.125 25.5312 50.6771 27.8646 49.7812 28.8438C49.5312 29.1146 49.2604 29.25 48.9688 29.25C47.9896 29.25 47.2917 28.8229 46.875 27.9688C46.7292 27.6771 46.6458 27.375 46.625 27.0625C46.25 22.8958 45.8125 19.7292 45.3125 17.5625C44.7708 15.2917 44.3542 13.3958 44.0625 11.875C44.0417 11.7917 44.0312 11.6771 44.0312 11.5312C44.0312 10.7396 44.3854 10.1979 45.0938 9.90625C45.3229 9.80208 45.5625 9.75 45.8125 9.75C47 9.75 48.1042 10.7292 49.125 12.6875C49.5833 13.5833 49.9688 14.5938 50.2812 15.7188C51.3646 15.8438 53.1354 16.1146 55.5938 16.5312C57.8229 16.5104 59.0521 15.9688 59.2812 14.9062C58.3229 13.2812 56.6146 11.6562 54.1562 10.0312C52.5312 8.96875 50.9583 8.17708 49.4375 7.65625C49.5208 9.28125 49.5625 10.5 49.5625 11.3125C49.5417 11.8333 49.3854 12.1042 49.0938 12.125C48.8854 12.1042 48.7812 11.6771 48.7812 10.8438C48.7812 10.4479 48.7917 9.875 48.8125 9.125C48.8125 8.39583 48.8125 7.84375 48.8125 7.46875C47.7708 7.19792 47 7.0625 46.5 7.0625C44.4167 7.0625 43.3021 8.14583 43.1562 10.3125C43.1354 10.5 43.125 10.6771 43.125 10.8438C43.125 11.4896 43.3646 12.6562 43.8438 14.3438C44.1146 15.3021 44.25 16.0521 44.25 16.5938ZM48.8125 5.5625C47.75 5.20833 46.8021 5.03125 45.9688 5.03125C43.8021 5.03125 42.6667 6.16667 42.5625 8.4375C42.5625 8.45833 42.5625 8.47917 42.5625 8.5C42.7083 8.16667 42.8958 7.85417 43.125 7.5625C43.8958 6.60417 45.0208 6.125 46.5 6.125C47.2083 6.125 47.9792 6.23958 48.8125 6.46875V5.5625ZM49.3125 5.71875C49.3125 5.82292 49.3229 5.96875 49.3438 6.15625C49.3646 6.36458 49.375 6.51042 49.375 6.59375C49.8125 6.71875 50.3542 6.91667 51 7.1875C53.6875 8.35417 56.0729 9.97917 58.1562 12.0625C56.8021 10.2708 54.8646 8.63542 52.3438 7.15625C51.3021 6.55208 50.2917 6.07292 49.3125 5.71875ZM51.0625 20.4062C51.0625 20.4479 51.0729 20.5104 51.0938 20.5938C51.0938 20.6771 51.0938 20.7396 51.0938 20.7812C51.3021 20.7812 51.6146 20.7917 52.0312 20.8125C52.4688 20.8125 52.7917 20.8125 53 20.8125C52.375 20.6042 51.7292 20.4688 51.0625 20.4062ZM58.0625 20.4375C60.2708 19.9583 61.4792 19.0521 61.6875 17.7188C61.7083 17.5521 61.7188 17.3854 61.7188 17.2188V16.9062C61.3854 17.5104 60.8333 18.0312 60.0625 18.4688C59.2917 19.0729 58.2917 19.4271 57.0625 19.5312C57.4167 19.8229 57.75 20.125 58.0625 20.4375ZM40.9688 5.03125C41.8646 3.67708 43.2708 3 45.1875 3C45.3958 3 45.8646 3.0625 46.5938 3.1875C46.8646 3.22917 47.1771 3.25 47.5312 3.25C47.7188 3.22917 47.8229 3.17708 47.8438 3.09375C47.8438 2.78125 47.0208 2.54167 45.375 2.375C45.0625 2.35417 44.8021 2.34375 44.5938 2.34375C42.7812 2.36458 41.4062 3.125 40.4688 4.625C40.3229 4.875 40.25 5.10417 40.25 5.3125C40.2708 5.5 40.3333 5.60417 40.4375 5.625H40.4688C40.6354 5.39583 40.8021 5.19792 40.9688 5.03125ZM68.0625 3.8125C68.0417 3.66667 67.9167 3.58333 67.6875 3.5625C66.4792 3.5625 65.2708 4.09375 64.0625 5.15625C63.1667 5.96875 62.5 6.9375 62.0625 8.0625V8.09375C62.0625 8.34375 62.125 8.46875 62.25 8.46875C62.4375 8.46875 62.625 8.32292 62.8125 8.03125C62.8333 7.96875 62.8542 7.92708 62.875 7.90625C63.4583 6.48958 64.7083 5.36458 66.625 4.53125C67.0208 4.36458 67.375 4.23958 67.6875 4.15625C67.9167 4.05208 68.0417 3.9375 68.0625 3.8125ZM77.0938 17.0625C77.0521 16.6042 76.7292 16.3333 76.125 16.25C75.9167 16.9375 75.4583 17.3542 74.75 17.5C74.625 17.5208 74.5104 17.5312 74.4062 17.5312C74.3646 17.5312 74.3229 17.5417 74.2812 17.5625C74.2188 17.5625 74.1771 17.5625 74.1562 17.5625V18.0625C74.8854 17.9375 75.5938 17.875 76.2812 17.875C76.6354 17.875 76.8854 17.6979 77.0312 17.3438C77.0729 17.2396 77.0938 17.1458 77.0938 17.0625ZM78.0625 17.0625C78.0625 17.7708 77.7396 18.3021 77.0938 18.6562C76.8229 18.7812 76.5521 18.8438 76.2812 18.8438C75.4896 18.8438 74.8021 18.8958 74.2188 19C74.2812 19.9167 74.3125 20.8333 74.3125 21.75C74.2917 22.2708 74.1458 22.5417 73.875 22.5625C73.6667 22.5417 73.5625 22.1146 73.5625 21.2812V19.125C71.1042 19.6875 69.3229 20.6771 68.2188 22.0938C67.6562 22.8438 67.375 23.6354 67.375 24.4688C67.375 24.6771 67.4167 24.9062 67.5 25.1562C68.1875 25.3021 69.1354 25.375 70.3438 25.375C71.9479 25.375 74.3958 24.9479 77.6875 24.0938C78.75 23.8021 79.5312 23.6042 80.0312 23.5C80.1979 23.4583 80.4062 23.4062 80.6562 23.3438C81.2188 23.1979 81.6979 23.125 82.0938 23.125C83.0521 23.125 83.75 23.5312 84.1875 24.3438C84.2083 24.3854 84.2292 24.4167 84.25 24.4375C85.125 24.5208 85.75 24.9688 86.125 25.7812C86.2708 26.0938 86.3438 26.4062 86.3438 26.7188C86.3438 27.5729 85.9583 28.2292 85.1875 28.6875C84.8333 28.875 84.4792 28.9792 84.125 29C79.5625 29.8125 75.5938 30.2188 72.2188 30.2188C68.8854 30.1979 66.5208 29.4583 65.125 28C63.0417 27 61.9896 25.3958 61.9688 23.1875C61.9896 21.0625 63.0833 19.0833 65.25 17.25C64.875 16.9375 64.6875 16.7812 64.6875 16.7812C62.8958 15.9062 61.7083 14.5938 61.125 12.8438C60.8958 12.1979 60.7812 11.5312 60.7812 10.8438C60.7812 8.38542 61.7917 6.33333 63.8125 4.6875C65.7083 3.14583 67.9271 2.375 70.4688 2.375C71.7604 2.39583 72.7708 2.875 73.5 3.8125C75.1458 4.27083 76.1042 5.61458 76.375 7.84375C76.4167 8.21875 76.4375 8.60417 76.4375 9C76.4375 9.70833 76.1146 10.2396 75.4688 10.5938C75.1979 10.7188 74.9271 10.7812 74.6562 10.7812C73.9062 10.7812 73.3646 10.4375 73.0312 9.75C72.9896 9.64583 72.9583 9.55208 72.9375 9.46875H72.7812C72.0521 9.46875 71.5312 9.14583 71.2188 8.5C71.0938 8.22917 71.0312 7.96875 71.0312 7.71875C71.0312 7.67708 71.0312 7.60417 71.0312 7.5C71.0104 7.41667 71 7.35417 71 7.3125C69.1875 7.625 67.8438 8.4375 66.9688 9.75C66.4688 10.5 66.2188 11.2917 66.2188 12.125C66.2396 12.75 66.3958 13.3021 66.6875 13.7812C67.5833 14.0521 68.5521 14.1875 69.5938 14.1875C69.9688 14.1875 71.1042 14.125 73 14C73.3125 13.9792 73.6146 13.9688 73.9062 13.9688C75.1771 13.9896 75.9271 14.4271 76.1562 15.2812C77.3438 15.5312 77.9792 16.125 78.0625 17.0625ZM73.5938 17.5938C71.2188 17.7812 69.2188 18.4688 67.5938 19.6562C66.2396 20.6979 65.5521 21.875 65.5312 23.1875C65.5521 23.8958 65.8438 24.4271 66.4062 24.7812V24.4688C66.4271 23.0938 67.0208 21.8542 68.1875 20.75C69.5208 19.5208 71.3229 18.6667 73.5938 18.1875V17.5938ZM84.5 25.4688C84.4792 26.3229 84.0729 26.9688 83.2812 27.4062C82.9479 27.5938 82.6042 27.6979 82.25 27.7188C77.6875 28.5312 73.7188 28.9375 70.3438 28.9375C69.9479 28.9375 69.4062 28.9167 68.7188 28.875C69.8021 29.125 70.9688 29.25 72.2188 29.25C75.6562 29.25 79.5625 28.8542 83.9375 28.0625C83.9583 28.0625 83.9896 28.0521 84.0312 28.0312C84.0729 28.0312 84.0938 28.0312 84.0938 28.0312C84.6562 28.0104 85.0521 27.7396 85.2812 27.2188C85.3646 27.0312 85.4062 26.8646 85.4062 26.7188C85.4062 26.1562 85.1458 25.7604 84.625 25.5312C84.5625 25.5104 84.5208 25.4896 84.5 25.4688ZM74.2188 5.25C74.4271 5.97917 74.5312 6.80208 74.5312 7.71875C74.5104 8.30208 74.2812 8.77083 73.8438 9.125C73.9062 9.4375 74.1042 9.65625 74.4375 9.78125C74.5208 9.80208 74.5938 9.8125 74.6562 9.8125C75.0104 9.8125 75.2604 9.63542 75.4062 9.28125C75.4479 9.17708 75.4688 9.08333 75.4688 9C75.4479 7.20833 75.0312 5.95833 74.2188 5.25ZM65.25 12.125C65.25 10.1042 66.2083 8.52083 68.125 7.375C68.9792 6.875 69.9062 6.54167 70.9062 6.375C70.7812 6.08333 70.6354 5.92708 70.4688 5.90625C68.5312 5.90625 66.9479 6.52083 65.7188 7.75C64.8021 8.64583 64.3438 9.67708 64.3438 10.8438C64.3646 11.7812 64.7083 12.5417 65.375 13.125C65.2917 12.7083 65.25 12.375 65.25 12.125ZM83.6562 3.8125C83.6354 3.66667 83.5104 3.58333 83.2812 3.5625C82.0729 3.5625 80.8646 4.09375 79.6562 5.15625C78.7604 5.96875 78.0938 6.9375 77.6562 8.0625V8.09375C77.6562 8.34375 77.7188 8.46875 77.8438 8.46875C78.0312 8.46875 78.2188 8.32292 78.4062 8.03125C78.4271 7.96875 78.4479 7.92708 78.4688 7.90625C79.0521 6.48958 80.3021 5.36458 82.2188 4.53125C82.6146 4.36458 82.9688 4.23958 83.2812 4.15625C83.5104 4.05208 83.6354 3.9375 83.6562 3.8125ZM92.6875 17.0625C92.6458 16.6042 92.3229 16.3333 91.7188 16.25C91.5104 16.9375 91.0521 17.3542 90.3438 17.5C90.2188 17.5208 90.1042 17.5312 90 17.5312C89.9583 17.5312 89.9167 17.5417 89.875 17.5625C89.8125 17.5625 89.7708 17.5625 89.75 17.5625V18.0625C90.4792 17.9375 91.1875 17.875 91.875 17.875C92.2292 17.875 92.4792 17.6979 92.625 17.3438C92.6667 17.2396 92.6875 17.1458 92.6875 17.0625ZM93.6562 17.0625C93.6562 17.7708 93.3333 18.3021 92.6875 18.6562C92.4167 18.7812 92.1458 18.8438 91.875 18.8438C91.0833 18.8438 90.3958 18.8958 89.8125 19C89.875 19.9167 89.9062 20.8333 89.9062 21.75C89.8854 22.2708 89.7396 22.5417 89.4688 22.5625C89.2604 22.5417 89.1562 22.1146 89.1562 21.2812V19.125C86.6979 19.6875 84.9167 20.6771 83.8125 22.0938C83.25 22.8438 82.9688 23.6354 82.9688 24.4688C82.9688 24.6771 83.0104 24.9062 83.0938 25.1562C83.7812 25.3021 84.7292 25.375 85.9375 25.375C87.5417 25.375 89.9896 24.9479 93.2812 24.0938C94.3438 23.8021 95.125 23.6042 95.625 23.5C95.7917 23.4583 96 23.4062 96.25 23.3438C96.8125 23.1979 97.2917 23.125 97.6875 23.125C98.6458 23.125 99.3438 23.5312 99.7812 24.3438C99.8021 24.3854 99.8229 24.4167 99.8438 24.4375C100.719 24.5208 101.344 24.9688 101.719 25.7812C101.865 26.0938 101.938 26.4062 101.938 26.7188C101.938 27.5729 101.552 28.2292 100.781 28.6875C100.427 28.875 100.073 28.9792 99.7188 29C95.1562 29.8125 91.1875 30.2188 87.8125 30.2188C84.4792 30.1979 82.1146 29.4583 80.7188 28C78.6354 27 77.5833 25.3958 77.5625 23.1875C77.5833 21.0625 78.6771 19.0833 80.8438 17.25C80.4688 16.9375 80.2812 16.7812 80.2812 16.7812C78.4896 15.9062 77.3021 14.5938 76.7188 12.8438C76.4896 12.1979 76.375 11.5312 76.375 10.8438C76.375 8.38542 77.3854 6.33333 79.4062 4.6875C81.3021 3.14583 83.5208 2.375 86.0625 2.375C87.3542 2.39583 88.3646 2.875 89.0938 3.8125C90.7396 4.27083 91.6979 5.61458 91.9688 7.84375C92.0104 8.21875 92.0312 8.60417 92.0312 9C92.0312 9.70833 91.7083 10.2396 91.0625 10.5938C90.7917 10.7188 90.5208 10.7812 90.25 10.7812C89.5 10.7812 88.9583 10.4375 88.625 9.75C88.5833 9.64583 88.5521 9.55208 88.5312 9.46875H88.375C87.6458 9.46875 87.125 9.14583 86.8125 8.5C86.6875 8.22917 86.625 7.96875 86.625 7.71875C86.625 7.67708 86.625 7.60417 86.625 7.5C86.6042 7.41667 86.5938 7.35417 86.5938 7.3125C84.7812 7.625 83.4375 8.4375 82.5625 9.75C82.0625 10.5 81.8125 11.2917 81.8125 12.125C81.8333 12.75 81.9896 13.3021 82.2812 13.7812C83.1771 14.0521 84.1458 14.1875 85.1875 14.1875C85.5625 14.1875 86.6979 14.125 88.5938 14C88.9062 13.9792 89.2083 13.9688 89.5 13.9688C90.7708 13.9896 91.5208 14.4271 91.75 15.2812C92.9375 15.5312 93.5729 16.125 93.6562 17.0625ZM89.1875 17.5938C86.8125 17.7812 84.8125 18.4688 83.1875 19.6562C81.8333 20.6979 81.1458 21.875 81.125 23.1875C81.1458 23.8958 81.4375 24.4271 82 24.7812V24.4688C82.0208 23.0938 82.6146 21.8542 83.7812 20.75C85.1146 19.5208 86.9167 18.6667 89.1875 18.1875V17.5938ZM100.094 25.4688C100.073 26.3229 99.6667 26.9688 98.875 27.4062C98.5417 27.5938 98.1979 27.6979 97.8438 27.7188C93.2812 28.5312 89.3125 28.9375 85.9375 28.9375C85.5417 28.9375 85 28.9167 84.3125 28.875C85.3958 29.125 86.5625 29.25 87.8125 29.25C91.25 29.25 95.1562 28.8542 99.5312 28.0625C99.5521 28.0625 99.5833 28.0521 99.625 28.0312C99.6667 28.0312 99.6875 28.0312 99.6875 28.0312C100.25 28.0104 100.646 27.7396 100.875 27.2188C100.958 27.0312 101 26.8646 101 26.7188C101 26.1562 100.74 25.7604 100.219 25.5312C100.156 25.5104 100.115 25.4896 100.094 25.4688ZM89.8125 5.25C90.0208 5.97917 90.125 6.80208 90.125 7.71875C90.1042 8.30208 89.875 8.77083 89.4375 9.125C89.5 9.4375 89.6979 9.65625 90.0312 9.78125C90.1146 9.80208 90.1875 9.8125 90.25 9.8125C90.6042 9.8125 90.8542 9.63542 91 9.28125C91.0417 9.17708 91.0625 9.08333 91.0625 9C91.0417 7.20833 90.625 5.95833 89.8125 5.25ZM80.8438 12.125C80.8438 10.1042 81.8021 8.52083 83.7188 7.375C84.5729 6.875 85.5 6.54167 86.5 6.375C86.375 6.08333 86.2292 5.92708 86.0625 5.90625C84.125 5.90625 82.5417 6.52083 81.3125 7.75C80.3958 8.64583 79.9375 9.67708 79.9375 10.8438C79.9583 11.7812 80.3021 12.5417 80.9688 13.125C80.8854 12.7083 80.8438 12.375 80.8438 12.125ZM107.625 6.875V7.4375C111.25 6.89583 115.531 6.58333 120.469 6.5C121.031 6.5 121.438 6.22917 121.688 5.6875C121.75 5.5 121.781 5.32292 121.781 5.15625C121.781 4.57292 121.51 4.16667 120.969 3.9375C120.781 3.85417 120.604 3.8125 120.438 3.8125H120.094V3.96875C120.094 4.86458 119.698 5.54167 118.906 6C118.552 6.16667 118.198 6.26042 117.844 6.28125C114.198 6.34375 110.792 6.54167 107.625 6.875ZM104.281 7.3125C104.531 7.5 104.719 7.69792 104.844 7.90625C105.427 7.78125 106.208 7.64583 107.188 7.5V6.9375C105.417 7.16667 104.448 7.29167 104.281 7.3125ZM101.312 4.9375C101.229 4.79167 101.042 4.71875 100.75 4.71875C100.583 4.71875 100.396 4.73958 100.188 4.78125C99.5417 4.96875 98.625 5.29167 97.4375 5.75C97.375 5.77083 97.2396 5.82292 97.0312 5.90625C96.1146 6.28125 95.6458 6.58333 95.625 6.8125C95.625 6.83333 95.6354 6.86458 95.6562 6.90625H95.6875C96.0625 6.90625 97.375 6.5 99.625 5.6875C100.021 5.5625 100.344 5.44792 100.594 5.34375C101.073 5.13542 101.312 5 101.312 4.9375ZM101.844 15.1875V15.875C101.865 16.7917 102 17.2604 102.25 17.2812C102.354 17.2812 102.479 16.0208 102.625 13.5C102.646 12.9375 102.656 12.4792 102.656 12.125C102.656 11.5833 102.625 11.3021 102.562 11.2812C102.312 11.2812 102.135 11.5521 102.031 12.0938C102.01 12.1562 102 12.2083 102 12.25C101.896 13.3958 101.844 14.375 101.844 15.1875ZM90.0625 10.6562C89.6042 10.3021 89.3646 9.83333 89.3438 9.25C89.3438 8.54167 89.6562 8.02083 90.2812 7.6875C90.3438 7.64583 90.3958 7.61458 90.4375 7.59375C95.2083 5.71875 98.8542 4.4375 101.375 3.75C106.229 2.45833 111.688 1.76042 117.75 1.65625H117.781C118.656 1.67708 119.323 2.07292 119.781 2.84375H120.438C121.312 2.84375 121.979 3.23958 122.438 4.03125C122.646 4.38542 122.75 4.76042 122.75 5.15625C122.75 6.03125 122.354 6.69792 121.562 7.15625C121.208 7.34375 120.844 7.44792 120.469 7.46875C115.365 7.57292 111.104 7.875 107.688 8.375C107.771 10.0833 107.812 11.375 107.812 12.25C107.792 12.7708 107.646 13.0417 107.375 13.0625C107.146 13.0417 107.031 12.6146 107.031 11.7812C107.031 11.6979 107.062 10.5938 107.125 8.46875C106.812 8.51042 106.375 8.59375 105.812 8.71875C105.479 8.78125 105.24 8.82292 105.094 8.84375C105.094 9.96875 105.125 11.5938 105.188 13.7188C105.229 15.7396 105.25 17.25 105.25 18.25C105.25 21.2083 105.094 23.8438 104.781 26.1562C104.677 26.9062 104.271 27.4271 103.562 27.7188C103.312 27.8021 103.073 27.8438 102.844 27.8438C102.073 27.8438 101.5 27.4896 101.125 26.7812C100.979 26.4896 100.906 26.1875 100.906 25.875C100.906 24.3333 101.052 20.7604 101.344 15.1562C101.448 13.0521 101.51 11.2188 101.531 9.65625C99.0104 10.3646 96.6562 11.1667 94.4688 12.0625C94.5938 12.5625 94.6562 13.0208 94.6562 13.4375C94.5938 14.3542 94.2917 14.8438 93.75 14.9062C92.8958 14.9062 91.8958 13.9167 90.75 11.9375C90.5208 11.5208 90.2917 11.0938 90.0625 10.6562ZM94.1875 11.125C96.6667 10.1458 99.125 9.33333 101.562 8.6875C101.604 8.375 101.729 8.07292 101.938 7.78125C99.2292 8.34375 96.5104 9.125 93.7812 10.125C93.8438 10.25 93.9792 10.5833 94.1875 11.125ZM121.688 9.65625C123.229 7.69792 126.333 5.94792 131 4.40625C131.125 4.36458 131.24 4.32292 131.344 4.28125C131.823 4.09375 132.073 3.95833 132.094 3.875C132.073 3.70833 131.958 3.61458 131.75 3.59375C130.708 3.59375 129.104 4.11458 126.938 5.15625C124.208 6.46875 122.385 7.83333 121.469 9.25C121.406 9.375 121.375 9.5 121.375 9.625C121.375 9.75 121.406 9.8125 121.469 9.8125C121.552 9.77083 121.625 9.71875 121.688 9.65625ZM126.094 27.625C126.052 27.625 126.01 27.6146 125.969 27.5938C125.885 27.5729 125.833 27.5625 125.812 27.5625H125.625C125.25 27.5625 124.99 27.75 124.844 28.125C124.823 28.2083 124.812 28.2812 124.812 28.3438C124.812 28.6771 124.969 28.9271 125.281 29.0938C125.344 29.1354 125.396 29.1562 125.438 29.1562H125.469V29C125.49 28.4375 125.698 27.9792 126.094 27.625ZM125.906 8.875C125.406 9.14583 124.958 9.41667 124.562 9.6875C124.667 12.25 124.719 13.7812 124.719 14.2812C124.677 14.7812 124.531 15.0417 124.281 15.0625C124.073 15.0417 123.969 14.6146 123.969 13.7812C123.969 13.7396 124 12.5 124.062 10.0625C122.958 10.9167 122.292 11.6771 122.062 12.3438C121.854 12.9479 121.417 13.3229 120.75 13.4688C120.625 13.4896 120.51 13.5 120.406 13.5C119.844 13.4792 119.385 13.2708 119.031 12.875H118.812C118.104 12.875 117.573 12.5521 117.219 11.9062C117.094 11.6354 117.031 11.3646 117.031 11.0938C117.031 10.8854 117.062 10.6875 117.125 10.5C117.833 8.52083 119.771 6.60417 122.938 4.75C126.438 2.6875 130.229 1.36458 134.312 0.78125C135.458 0.614583 136.562 0.53125 137.625 0.53125C139.104 0.53125 140.292 0.8125 141.188 1.375C143.396 1.89583 144.51 3.30208 144.531 5.59375C144.51 10.5312 141.406 15.1042 135.219 19.3125C137.615 19.5 139.385 19.9167 140.531 20.5625C142.448 21.1042 143.417 21.9583 143.438 23.125C143.438 25.7292 141.917 27.8021 138.875 29.3438C136.438 30.5521 133.729 31.1562 130.75 31.1562C129.375 31.1562 128.062 31.0104 126.812 30.7188C126.5 30.6354 126.219 30.4792 125.969 30.25C124.677 30.1042 123.979 29.5521 123.875 28.5938C123.854 28.5104 123.844 28.4271 123.844 28.3438C123.844 27.6146 124.188 27.0833 124.875 26.75C125.125 26.6458 125.375 26.5938 125.625 26.5938H125.75V26.5625C125.75 25.6042 125.823 24.3854 125.969 22.9062C125.302 22.8646 124.802 22.6771 124.469 22.3438C124.115 21.9479 123.927 21.5208 123.906 21.0625C123.927 20.3125 124.292 19.7708 125 19.4375C125.562 19.1667 126.01 18.9479 126.344 18.7812C126.385 18.2188 126.406 17.4271 126.406 16.4062C126.406 13.5521 126.24 11.0417 125.906 8.875ZM129.25 7.375C129.771 10.2083 130.052 13.2812 130.094 16.5938C133.906 14.0938 136.396 11.7188 137.562 9.46875C137.771 9.05208 137.927 8.65625 138.031 8.28125C137.844 7.69792 137.135 7.28125 135.906 7.03125C135.49 6.94792 135.094 6.90625 134.719 6.90625C134.51 6.88542 134.396 6.83333 134.375 6.75C134.396 6.5 134.865 6.375 135.781 6.375C136.823 6.39583 137.615 6.63542 138.156 7.09375C138.115 6.55208 137.875 6.10417 137.438 5.75C137 5.66667 136.448 5.625 135.781 5.625C134.531 5.625 132.469 6.16667 129.594 7.25C129.469 7.29167 129.354 7.33333 129.25 7.375ZM130.094 18.25C134.031 15.8958 136.823 13.5729 138.469 11.2812C139.323 10.0521 139.75 8.9375 139.75 7.9375C139.729 7.27083 139.479 6.75 139 6.375C139.083 6.64583 139.125 6.94792 139.125 7.28125C139.104 8.28125 138.74 9.39583 138.031 10.625C136.615 12.875 133.969 15.2396 130.094 17.7188V18.25ZM126.219 20.2812C126.219 20.2396 126.219 20.1771 126.219 20.0938C126.24 20.0104 126.25 19.9479 126.25 19.9062C125.875 20.0938 125.594 20.2292 125.406 20.3125C125.073 20.4792 124.896 20.7292 124.875 21.0625C124.875 21.2708 124.948 21.4479 125.094 21.5938L125.125 21.625C125.25 21.75 125.365 21.8229 125.469 21.8438C125.49 21.8438 125.521 21.8542 125.562 21.875C125.562 21.8542 125.552 21.8229 125.531 21.7812C125.531 21.7396 125.531 21.7083 125.531 21.6875C125.552 21.1042 125.781 20.6354 126.219 20.2812ZM129.781 23.5312C129.573 25.0729 129.385 26.2188 129.219 26.9688C131.51 26.9479 133.792 26.5104 136.062 25.6562C137.625 25.0729 138.417 24.5208 138.438 24C138.417 23.875 138.385 23.7812 138.344 23.7188C137.115 23.5104 135.438 23.4062 133.312 23.4062C132.438 23.4062 131.26 23.4479 129.781 23.5312ZM118.656 11.9062V11.75C118.656 11.5208 118.688 11.3125 118.75 11.125C119.479 9.125 121.417 7.19792 124.562 5.34375C127.167 3.82292 130.021 2.6875 133.125 1.9375C129.188 2.70833 125.646 4.10417 122.5 6.125C121.417 6.83333 120.51 7.55208 119.781 8.28125C118.885 9.17708 118.302 10.0208 118.031 10.8125C118.01 10.8958 118 10.9896 118 11.0938C118 11.4479 118.177 11.7083 118.531 11.875C118.594 11.8958 118.635 11.9062 118.656 11.9062ZM134.094 27.25C136.656 26.7708 138.469 26.1354 139.531 25.3438C139.865 25.0729 140.042 24.8333 140.062 24.625C140.021 24.3958 139.802 24.1875 139.406 24C139.406 24.5208 139.104 25.0208 138.5 25.5C138.438 25.5417 138.406 25.5625 138.406 25.5625C137.51 26.1667 136.073 26.7292 134.094 27.25ZM162.938 27.0625C162.938 27.7917 162.615 28.3333 161.969 28.6875C161.719 28.8125 161.458 28.875 161.188 28.875C160.833 28.8542 160.479 28.7292 160.125 28.5C159.75 28.75 159.406 28.875 159.094 28.875C158.74 28.8542 158.406 28.75 158.094 28.5625L157.469 28.3438H157.281C155.302 28.3438 152.625 28.7396 149.25 29.5312H149.219H149.188L149.156 29.5625H149.125H149.094H149.062L149.031 29.5938H149H148.969H148.938L148.906 29.625H148.844C148.844 29.75 148.844 29.9479 148.844 30.2188C148.865 30.4896 148.875 30.6875 148.875 30.8125C148.854 31.3333 148.708 31.6042 148.438 31.625C148.208 31.6042 148.094 31.1771 148.094 30.3438V29.8125L144.75 30.3438C144.042 30.3438 143.51 30.0208 143.156 29.375C143.031 29.1042 142.969 28.8333 142.969 28.5625V28.375C142.99 27.25 143.594 26.3854 144.781 25.7812C144.74 25.5729 144.719 25.4167 144.719 25.3125V22.4688C144.719 21.6771 144.729 20.5521 144.75 19.0938C144.75 17.9062 144.75 17.0521 144.75 16.5312C144.75 12.4271 144.469 9.17708 143.906 6.78125C143.74 6.09375 143.552 5.41667 143.344 4.75C143.302 4.625 143.281 4.4375 143.281 4.1875C143.281 3.45833 143.604 2.9375 144.25 2.625C144.521 2.5 144.781 2.4375 145.031 2.4375C145.448 2.45833 145.802 2.57292 146.094 2.78125C146.406 2.55208 146.76 2.4375 147.156 2.4375C147.906 2.4375 148.438 2.77083 148.75 3.4375C148.792 3.52083 148.823 3.59375 148.844 3.65625C150.073 7.55208 150.844 11.1771 151.156 14.5312C151.385 17.0312 151.51 20.3854 151.531 24.5938H152.812C153.833 24.5938 154.719 24.6354 155.469 24.7188C154.573 23.1146 153.646 21.25 152.688 19.125C152.625 19 152.594 18.875 152.594 18.75C152.594 18.2292 152.823 17.9271 153.281 17.8438C153.365 17.8229 153.438 17.8125 153.5 17.8125C153.917 17.8125 154.26 18.0729 154.531 18.5938C154.615 18.7812 154.667 18.8854 154.688 18.9062C154.688 18.8854 154.677 18.8542 154.656 18.8125C154.656 18.7708 154.656 18.7396 154.656 18.7188C154.656 18.3229 154.865 18.0417 155.281 17.875C155.406 17.8333 155.521 17.8125 155.625 17.8125C156.042 17.8125 156.323 17.9688 156.469 18.2812C156.49 18.3021 156.5 18.3229 156.5 18.3438C156.771 18.8854 157.833 20.25 159.688 22.4375C161 23.9583 161.979 25.1667 162.625 26.0625C162.833 26.3542 162.938 26.6875 162.938 27.0625ZM144.531 6.09375C144.823 7.42708 145.021 9.63542 145.125 12.7188C145.125 12.8021 145.125 12.8854 145.125 12.9688C145.167 13.5938 145.365 13.9167 145.719 13.9375C146.031 13.7917 146.219 13.4688 146.281 12.9688V12.875C146.198 10.2292 145.938 7.94792 145.5 6.03125C145.479 5.96875 145.458 5.89583 145.438 5.8125C145.312 5.25 145.104 4.95833 144.812 4.9375C144.625 4.97917 144.521 5.1875 144.5 5.5625C144.5 5.79167 144.51 5.96875 144.531 6.09375ZM161.188 27.9062C161.625 27.9062 161.885 27.6875 161.969 27.25C161.99 27.1875 162 27.125 162 27.0625C161.979 26.875 161.938 26.7292 161.875 26.625C161.354 25.9167 160.031 24.3125 157.906 21.8125C157.385 21.2083 156.958 20.6979 156.625 20.2812C156.375 19.9688 156.135 19.625 155.906 19.25C156.281 20.125 156.729 21.0625 157.25 22.0625C158.625 23.6667 159.604 24.8542 160.188 25.625C160.646 26 160.885 26.4688 160.906 27.0312C160.906 27.3021 160.854 27.5521 160.75 27.7812C160.917 27.8646 161.062 27.9062 161.188 27.9062ZM149.406 24.7188C149.531 24.6979 149.719 24.6875 149.969 24.6875C150.24 24.6458 150.438 24.625 150.562 24.625C150.479 18.125 150.115 13.2292 149.469 9.9375C149.135 8.20833 148.615 6.20833 147.906 3.9375C147.76 3.625 147.51 3.44792 147.156 3.40625C146.99 3.42708 146.833 3.47917 146.688 3.5625C146.688 3.58333 146.698 3.61458 146.719 3.65625C147.948 7.55208 148.719 11.2083 149.031 14.625C149.26 17.1458 149.385 20.5104 149.406 24.7188ZM171.531 10.5312C170.823 10.5312 170.292 10.1667 169.938 9.4375C169.938 9.39583 169.927 9.36458 169.906 9.34375C166.927 10.4271 165.083 12.1667 164.375 14.5625C164.208 15.1875 164.125 15.8229 164.125 16.4688C164.125 18.6979 164.99 20.7188 166.719 22.5312C168.719 24.6146 171.229 25.7292 174.25 25.875C174.438 25.875 174.615 25.875 174.781 25.875C177.427 25.875 179.312 25 180.438 23.25C181.083 22.2292 181.406 21 181.406 19.5625C181.406 17.3125 180.625 15.3125 179.062 13.5625C177.208 11.5208 174.823 10.5 171.906 10.5H171.562L171.531 10.5312ZM178.312 17.75C178.021 17.6667 177.865 17.3646 177.844 16.8438C177.844 15.5729 177.354 14.4896 176.375 13.5938C175.375 12.6771 174.083 12.2188 172.5 12.2188C172.333 12.2188 172.073 12.2396 171.719 12.2812C171.323 12.3229 171.031 12.3438 170.844 12.3438C170.573 12.3229 170.427 12.2188 170.406 12.0312C170.427 11.5104 171.375 11.25 173.25 11.25C174.667 11.25 176.021 11.75 177.312 12.75C178.5 13.7292 179.104 14.8021 179.125 15.9688C179.125 16.8229 178.938 17.3854 178.562 17.6562C178.479 17.7188 178.396 17.75 178.312 17.75ZM162.375 11.875C163.625 10.2708 164.865 9.125 166.094 8.4375C166.927 7.97917 168.01 7.53125 169.344 7.09375C169.823 6.90625 170.073 6.77083 170.094 6.6875C170.052 6.52083 169.958 6.42708 169.812 6.40625C168.667 6.40625 167.25 6.96875 165.562 8.09375C164.104 9.09375 162.969 10.2188 162.156 11.4688C162.094 11.5938 162.062 11.7188 162.062 11.8438C162.062 11.9688 162.094 12.0312 162.156 12.0312C162.24 11.9896 162.312 11.9375 162.375 11.875ZM185.906 19.1562V20.125C185.885 23.125 184.927 25.4271 183.031 27.0312C183.177 29.5104 183.25 31.1146 183.25 31.8438C183.208 32.3438 183.052 32.6042 182.781 32.625C182.573 32.6042 182.469 32.1875 182.469 31.375C182.469 30.9167 182.479 30.25 182.5 29.375C182.5 28.5208 182.5 27.8854 182.5 27.4688C180.792 28.6562 178.604 29.25 175.938 29.25H174.969C170.198 29.25 166.292 27.7812 163.25 24.8438C160.812 22.4896 159.396 19.6979 159 16.4688C158.938 15.9479 158.906 15.4271 158.906 14.9062C158.906 11.7188 159.979 9.0625 162.125 6.9375C162.396 6.66667 162.677 6.41667 162.969 6.1875C165.365 4.3125 168.427 3.375 172.156 3.375C173.135 3.375 173.896 3.78125 174.438 4.59375C174.625 4.86458 174.75 5.15625 174.812 5.46875C178.333 6.23958 181.146 8.10417 183.25 11.0625C185.021 13.5625 185.906 16.2604 185.906 19.1562ZM173.812 5.40625C173.562 4.80208 173.104 4.44792 172.438 4.34375C172.333 4.32292 172.24 4.3125 172.156 4.3125C167.635 4.3125 164.271 5.6875 162.062 8.4375C160.604 10.2708 159.875 12.4271 159.875 14.9062C159.875 17.9479 160.906 20.6979 162.969 23.1562C163.365 23.6146 163.781 24.0417 164.219 24.4375C162.031 21.875 160.906 19.0208 160.844 15.875C160.844 12.8125 161.906 10.3021 164.031 8.34375C166.26 6.30208 169.292 5.28125 173.125 5.28125C173.396 5.28125 173.625 5.32292 173.812 5.40625ZM174.781 6.46875C174.865 6.71875 174.906 6.90625 174.906 7.03125C174.906 7.05208 174.896 7.08333 174.875 7.125C174.875 7.16667 174.875 7.19792 174.875 7.21875C177.396 7.65625 179.594 8.71875 181.469 10.4062C179.635 8.38542 177.406 7.07292 174.781 6.46875ZM202.5 2.8125C198.562 3 194.99 4.19792 191.781 6.40625C191.344 6.69792 190.938 7 190.562 7.3125C190.062 7.72917 189.802 8.09375 189.781 8.40625C189.823 8.57292 189.906 8.66667 190.031 8.6875C190.302 8.66667 190.625 8.5 191 8.1875C194 5.77083 197.51 4.33333 201.531 3.875C201.948 3.83333 202.365 3.80208 202.781 3.78125C203.01 3.76042 203.135 3.65625 203.156 3.46875C203.156 3.17708 203.021 2.96875 202.75 2.84375C202.667 2.82292 202.604 2.8125 202.562 2.8125H202.5ZM202.25 19.1875L198.875 19.5C198.188 19.5 197.583 19.4688 197.062 19.4062C197.229 22.2604 197.312 23.875 197.312 24.25C197.292 24.7708 197.135 25.0417 196.844 25.0625C196.635 25.0417 196.531 24.6146 196.531 23.7812C196.531 23.2812 196.542 22.5208 196.562 21.5C196.562 20.5 196.562 19.7604 196.562 19.2812C195.208 19.0104 194.521 18.4583 194.5 17.625C194.5 16.8125 194.875 16.2708 195.625 16C195.812 15.9375 196 15.8958 196.188 15.875C200.167 15.6667 203.75 15.2812 206.938 14.7188C208.167 14.5104 208.979 14.375 209.375 14.3125H209.531C210.052 14.3125 210.396 14.5625 210.562 15.0625C210.604 15.1875 210.625 15.3021 210.625 15.4062C210.625 16.0938 209.667 16.8438 207.75 17.6562C207.25 17.8646 206.729 18.0625 206.188 18.25C206.229 18.2917 206.292 18.375 206.375 18.5C206.458 18.625 206.521 18.7083 206.562 18.75C208.875 20.9792 210.042 23.6875 210.062 26.875C210.062 29.6458 208.812 31.8125 206.312 33.375C204.375 34.5625 202.083 35.1562 199.438 35.1562C195.792 35.1562 192.74 34.0208 190.281 31.75C189.656 31.1667 189.094 30.5312 188.594 29.8438C185.885 27.2188 184.531 23.6562 184.531 19.1562C184.531 14.1562 186.396 10.0521 190.125 6.84375C193 4.34375 196.448 2.80208 200.469 2.21875C201.281 2.11458 202.062 2.05208 202.812 2.03125C203.896 2.03125 204.677 2.375 205.156 3.0625C205.344 3.35417 205.448 3.65625 205.469 3.96875C206.448 4.32292 206.948 4.92708 206.969 5.78125C206.969 6.53125 206.646 7.07292 206 7.40625C205.854 7.48958 205.698 7.54167 205.531 7.5625C201.677 8.25 198.75 9.07292 196.75 10.0312C191.875 12.4271 189.427 16.4271 189.406 22.0312C189.427 23.3854 189.76 24.625 190.406 25.75C192.177 27.25 194.417 28 197.125 28H197.656C199.698 27.9167 201.281 27.3646 202.406 26.3438C203.031 25.7604 203.354 25.1354 203.375 24.4688C203.375 22.5104 203.104 20.8646 202.562 19.5312C202.375 19.3229 202.271 19.2083 202.25 19.1875ZM208.375 23.0312C208.5 23.7396 208.562 24.4479 208.562 25.1562C208.562 27.9479 207.302 30.1146 204.781 31.6562C202.844 32.8229 200.562 33.4062 197.938 33.4062C196.188 33.4062 194.552 33.125 193.031 32.5625C194.969 33.6667 197.104 34.2188 199.438 34.2188C202.292 34.2188 204.677 33.4688 206.594 31.9688C206.927 31.6979 207.219 31.4271 207.469 31.1562C208.552 29.9479 209.094 28.5208 209.094 26.875C209.094 25.5417 208.854 24.2604 208.375 23.0312ZM205.25 4.90625C204.958 5.40625 204.552 5.70833 204.031 5.8125C200.177 6.5 197.25 7.32292 195.25 8.28125C190.375 10.6771 187.927 14.6771 187.906 20.2812C187.906 21.3646 188.115 22.3646 188.531 23.2812C188.469 22.8646 188.438 22.4479 188.438 22.0312C188.458 16.2188 190.927 12.0104 195.844 9.40625C198.031 8.26042 201.156 7.34375 205.219 6.65625H205.25L205.281 6.625H205.312H205.344C205.656 6.5625 205.865 6.35417 205.969 6C205.99 5.91667 206 5.84375 206 5.78125C205.979 5.38542 205.729 5.09375 205.25 4.90625Z" fill="white"/>
</svg>
