<svg width="189" height="41" viewBox="0 0 189 41" fill="none" xmlns="http://www.w3.org/2000/svg">
<path d="M16.9297 21.6406C16.2891 21.2344 15.0312 20.6016 13.1562 19.7422C11.2812 18.8828 9.4375 17.8828 7.625 16.7422C5.82812 15.5859 4.39844 14.3281 3.33594 12.9688C2.27344 11.5938 2.22656 10.1953 3.19531 8.77344C4.38281 6.96094 5.89844 5.47656 7.74219 4.32031C9.58594 3.16406 11.3125 2.54687 12.9219 2.46875C14.5469 2.39063 15.8438 2.96094 16.8125 4.17969C17.7812 5.39844 17.9844 7.47656 17.4219 10.4141C17.3281 11.0078 16.9609 11.4922 16.3203 11.8672C15.6797 12.2422 15.0625 12.4766 14.4688 12.5703C13.6875 12.7109 12.9609 12.5234 12.2891 12.0078C11.6328 11.4922 11.3516 10.9297 11.4453 10.3203C12.5391 6.61719 12.3438 5.03906 10.8594 5.58594C9.375 6.11719 8.04688 7.63281 6.875 10.1328C6.23438 11.4922 6.9375 12.7188 8.98438 13.8125C11.0312 14.9062 13.2656 16.0469 15.6875 17.2344C18.125 18.4062 20.1875 19.7109 21.875 21.1484C23.5625 22.5859 23.7266 24.3281 22.3672 26.375C21.3047 27.75 19.5469 28.9922 17.0938 30.1016C14.6406 31.2109 12.1875 31.9141 9.73438 32.2109C7.29688 32.4922 5.22656 32.2266 3.52344 31.4141C1.80469 30.5859 1.15625 28.9219 1.57812 26.4219C2.17188 24.1562 2.70312 22.7109 3.17188 22.0859C3.64062 21.4453 4.55469 20.5078 5.91406 19.2734C7.14844 18.6016 8.36719 18.4375 9.57031 18.7812C10.7891 19.1094 10.8594 19.8125 9.78125 20.8906C5.90625 24.4375 4.42188 26.6875 5.32812 27.6406C6.23438 28.5938 7.83594 28.8281 10.1328 28.3438C12.4453 27.8438 14.5938 26.8984 16.5781 25.5078C18.5625 24.1016 18.6797 22.8125 16.9297 21.6406ZM36.125 17.2344C36.6094 18.2656 36.7188 19.2031 36.4531 20.0469C36.2031 20.875 35.6406 20.7734 34.7656 19.7422C34.2188 19.1484 33.7969 18.5156 33.5 17.8438C32.8438 16.375 32.9297 14.8672 33.7578 13.3203C34.5859 11.7734 35.6094 10.375 36.8281 9.125C35.8906 9.35938 34.7734 9.57812 33.4766 9.78125C32.1797 9.96875 31.1641 10.0859 30.4297 10.1328C29.8203 13.9922 29.5703 16.8125 29.6797 18.5938C29.7891 20.3594 30.2969 23.2188 31.2031 27.1719C31.5938 28.8906 31.1797 30.4531 29.9609 31.8594C28.7578 33.25 27.875 32.9844 27.3125 31.0625C26.1562 28.4062 25.7031 24.9297 25.9531 20.6328C26.2031 16.3203 26.5547 12.7812 27.0078 10.0156C26.1641 10.0469 24.875 9.91406 23.1406 9.61719C21.4219 9.32031 20.5859 9.14063 20.6328 9.07812C21.5078 10.2188 22.3359 11.3125 23.1172 12.3594C23.8984 13.3906 23.8359 14.4453 22.9297 15.5234C22.5547 15.9922 22 16.4688 21.2656 16.9531C20.5469 17.4219 20 17.5547 19.625 17.3516C19.2031 17.1328 19.0469 16.8125 19.1562 16.3906C19.25 15.9688 19.6406 15.0781 20.3281 13.7188C20.4375 13.3438 20.1094 12.6797 19.3438 11.7266C18.5781 10.7734 18.0234 9.875 17.6797 9.03125C17.3359 8.17187 17.5469 7.53906 18.3125 7.13281C19.0781 6.72656 21.0547 6.875 24.2422 7.57812C24.5703 7.67188 25.1016 7.70312 25.8359 7.67188C26.5859 7.625 27.2422 7.53125 27.8047 7.39062C29.0078 5.29688 30.2734 3.63281 31.6016 2.39844C32.9297 1.14844 33.5703 1.38281 33.5234 3.10156C33.3828 3.69531 33.0859 4.38281 32.6328 5.16406C32.1953 5.92969 31.9219 6.52344 31.8125 6.94531C34.7344 6.46094 37.4766 5.78125 40.0391 4.90625C41.6328 4.09375 42.8047 3.875 43.5547 4.25C44.3203 4.625 44.0312 5.66406 42.6875 7.36719C42.2656 7.89844 41.5703 8.57813 40.6016 9.40625C39.6484 10.2344 38.7344 11.1172 37.8594 12.0547C36.9844 12.9766 36.3203 13.8984 35.8672 14.8203C35.4141 15.7266 35.5 16.5312 36.125 17.2344ZM44.9141 29.2344C44.3672 31.1094 43.6172 31.8828 42.6641 31.5547C41.7266 31.2266 41.2812 30.3359 41.3281 28.8828C41.9062 25.9609 42 23.8281 41.6094 22.4844C41.2344 22.5781 40.7969 22.7031 40.2969 22.8594C39.7812 23 39.1719 22.8594 38.4688 22.4375C37.7031 21.9688 37.6719 21.4531 38.375 20.8906C39.0625 20.3125 39.9375 19.6875 41 19.0156C40.7188 16.1562 40.3828 13.9531 39.9922 12.4062C39.6016 10.8594 39.0312 9.26562 38.2812 7.625C37.0938 5.28125 36.7734 3.63281 37.3203 2.67969C37.8672 1.71094 39.7578 2.07031 42.9922 3.75781C44.8047 4.69531 46.2656 5.50781 47.375 6.19531C48.5 6.88281 49.7109 7.75781 51.0078 8.82031C51.7578 9.42969 52.6094 10.4844 53.5625 11.9844C54.5312 13.4844 54.6953 14.8672 54.0547 16.1328C55.8984 15.6797 56.8906 15.9688 57.0312 17C57.1719 18.0156 56.9609 19.4922 56.3984 21.4297C55.8516 23.3516 55.2109 25.5859 54.4766 28.1328C53.7422 30.6797 53.4297 33.25 53.5391 35.8438C54.8828 34.1875 55.8203 33.5391 56.3516 33.8984C56.8984 34.2422 56.2188 35.7734 54.3125 38.4922C54.0781 38.8047 53.6953 39.1406 53.1641 39.5C52.6328 39.875 52 39.8125 51.2656 39.3125C50.5156 38.8125 50.2344 37.1484 50.4219 34.3203C50.625 31.4922 50.9141 28.7266 51.2891 26.0234C51.5703 24.0391 51.9219 22.25 52.3438 20.6562C52.7656 19.0469 51.8984 18.5391 49.7422 19.1328C48.8516 19.3672 48.125 19.5703 47.5625 19.7422C47 19.9141 46.0859 20.2891 44.8203 20.8672C44.9922 22.2578 45.1094 23.625 45.1719 24.9688C45.2344 26.2969 45.1484 27.7188 44.9141 29.2344ZM49.6953 15.4062C50.9453 14.5 50.4688 13.0469 48.2656 11.0469C46.0625 9.03125 43.75 7.73438 41.3281 7.15625C42.3594 9.84375 43.0312 11.7656 43.3438 12.9219C43.6719 14.0625 43.9375 15.6641 44.1406 17.7266C45.2031 17.3672 46.2031 17.0312 47.1406 16.7188C48.0938 16.4062 48.9453 15.9688 49.6953 15.4062ZM71.1172 23.5625C68.6953 23.7656 66.2812 24.7266 63.875 26.4453C61.4844 28.1641 59.6953 30.0547 58.5078 32.1172C57.6484 33.6016 56.7031 34.1094 55.6719 33.6406C54.6406 33.1719 54.2969 32.3125 54.6406 31.0625C54.9844 29.6094 55.4609 27.8828 56.0703 25.8828C56.6797 23.8828 56.8984 22.5781 56.7266 21.9688C56.2266 22.25 55.4844 22.6406 54.5 23.1406C53.5156 23.6406 52.6953 23.4922 52.0391 22.6953C51.2422 21.7266 51.4766 20.8828 52.7422 20.1641C53.9922 19.4453 55.3906 18.7188 56.9375 17.9844C57.1719 16.4844 57.0312 14.7031 56.5156 12.6406C56 10.5781 55.3047 8.90625 54.4297 7.625C53.9766 6.92188 53.6953 6.36719 53.5859 5.96094C53.0234 5.25781 52.9141 4.5 53.2578 3.6875C53.5859 2.875 54.7266 3.07031 56.6797 4.27344C58.1016 4.88281 59.6719 5.42188 61.3906 5.89062C63.125 6.34375 64.8672 6.21094 66.6172 5.49219C67.8984 4.92969 68.8438 4.80469 69.4531 5.11719C70.0781 5.41406 69.6562 6.10937 68.1875 7.20312C66.7812 7.89062 65.25 8.32031 63.5938 8.49219C61.9375 8.66406 60.0312 8.44531 57.875 7.83594C58.6875 9.38281 59.2734 10.6016 59.6328 11.4922C59.9922 12.3672 60.2734 14.0938 60.4766 16.6719C61.8984 16.3438 63.6406 16.1328 65.7031 16.0391C67.7656 15.9453 68.5859 16.3828 68.1641 17.3516C68.0703 17.7422 67.0625 18.0547 65.1406 18.2891C63.2188 18.5078 61.7422 19.0469 60.7109 19.9062C60.6641 20.6562 60.5859 21.5938 60.4766 22.7188C60.3828 23.8438 60.1641 24.7578 59.8203 25.4609C60.6641 24.6172 62.4141 23.7344 65.0703 22.8125C67.7266 21.8906 69.5312 21.5078 70.4844 21.6641C72.0312 21.6953 72.8125 22.1016 72.8281 22.8828C72.8594 23.6641 72.2891 23.8906 71.1172 23.5625ZM85.6953 23.5625C83.2734 23.7656 80.8594 24.7266 78.4531 26.4453C76.0625 28.1641 74.2734 30.0547 73.0859 32.1172C72.2266 33.6016 71.2812 34.1094 70.25 33.6406C69.2188 33.1719 68.875 32.3125 69.2188 31.0625C69.5625 29.6094 70.0391 27.8828 70.6484 25.8828C71.2578 23.8828 71.4766 22.5781 71.3047 21.9688C70.8047 22.25 70.0625 22.6406 69.0781 23.1406C68.0938 23.6406 67.2734 23.4922 66.6172 22.6953C65.8203 21.7266 66.0547 20.8828 67.3203 20.1641C68.5703 19.4453 69.9688 18.7188 71.5156 17.9844C71.75 16.4844 71.6094 14.7031 71.0938 12.6406C70.5781 10.5781 69.8828 8.90625 69.0078 7.625C68.5547 6.92188 68.2734 6.36719 68.1641 5.96094C67.6016 5.25781 67.4922 4.5 67.8359 3.6875C68.1641 2.875 69.3047 3.07031 71.2578 4.27344C72.6797 4.88281 74.25 5.42188 75.9688 5.89062C77.7031 6.34375 79.4453 6.21094 81.1953 5.49219C82.4766 4.92969 83.4219 4.80469 84.0312 5.11719C84.6562 5.41406 84.2344 6.10937 82.7656 7.20312C81.3594 7.89062 79.8281 8.32031 78.1719 8.49219C76.5156 8.66406 74.6094 8.44531 72.4531 7.83594C73.2656 9.38281 73.8516 10.6016 74.2109 11.4922C74.5703 12.3672 74.8516 14.0938 75.0547 16.6719C76.4766 16.3438 78.2188 16.1328 80.2812 16.0391C82.3438 15.9453 83.1641 16.3828 82.7422 17.3516C82.6484 17.7422 81.6406 18.0547 79.7188 18.2891C77.7969 18.5078 76.3203 19.0469 75.2891 19.9062C75.2422 20.6562 75.1641 21.5938 75.0547 22.7188C74.9609 23.8438 74.7422 24.7578 74.3984 25.4609C75.2422 24.6172 76.9922 23.7344 79.6484 22.8125C82.3047 21.8906 84.1094 21.5078 85.0625 21.6641C86.6094 21.6953 87.3906 22.1016 87.4062 22.8828C87.4375 23.6641 86.8672 23.8906 85.6953 23.5625ZM100.344 17.2344C100.828 18.2656 100.938 19.2031 100.672 20.0469C100.422 20.875 99.8594 20.7734 98.9844 19.7422C98.4375 19.1484 98.0156 18.5156 97.7188 17.8438C97.0625 16.375 97.1484 14.8672 97.9766 13.3203C98.8047 11.7734 99.8281 10.375 101.047 9.125C100.109 9.35938 98.9922 9.57812 97.6953 9.78125C96.3984 9.96875 95.3828 10.0859 94.6484 10.1328C94.0391 13.9922 93.7891 16.8125 93.8984 18.5938C94.0078 20.3594 94.5156 23.2188 95.4219 27.1719C95.8125 28.8906 95.3984 30.4531 94.1797 31.8594C92.9766 33.25 92.0938 32.9844 91.5312 31.0625C90.375 28.4062 89.9219 24.9297 90.1719 20.6328C90.4219 16.3203 90.7734 12.7812 91.2266 10.0156C90.3828 10.0469 89.0938 9.91406 87.3594 9.61719C85.6406 9.32031 84.8047 9.14063 84.8516 9.07812C85.7266 10.2188 86.5547 11.3125 87.3359 12.3594C88.1172 13.3906 88.0547 14.4453 87.1484 15.5234C86.7734 15.9922 86.2188 16.4688 85.4844 16.9531C84.7656 17.4219 84.2188 17.5547 83.8438 17.3516C83.4219 17.1328 83.2656 16.8125 83.375 16.3906C83.4688 15.9688 83.8594 15.0781 84.5469 13.7188C84.6562 13.3438 84.3281 12.6797 83.5625 11.7266C82.7969 10.7734 82.2422 9.875 81.8984 9.03125C81.5547 8.17187 81.7656 7.53906 82.5312 7.13281C83.2969 6.72656 85.2734 6.875 88.4609 7.57812C88.7891 7.67188 89.3203 7.70312 90.0547 7.67188C90.8047 7.625 91.4609 7.53125 92.0234 7.39062C93.2266 5.29688 94.4922 3.63281 95.8203 2.39844C97.1484 1.14844 97.7891 1.38281 97.7422 3.10156C97.6016 3.69531 97.3047 4.38281 96.8516 5.16406C96.4141 5.92969 96.1406 6.52344 96.0312 6.94531C98.9531 6.46094 101.695 5.78125 104.258 4.90625C105.852 4.09375 107.023 3.875 107.773 4.25C108.539 4.625 108.25 5.66406 106.906 7.36719C106.484 7.89844 105.789 8.57813 104.82 9.40625C103.867 10.2344 102.953 11.1172 102.078 12.0547C101.203 12.9766 100.539 13.8984 100.086 14.8203C99.6328 15.7266 99.7188 16.5312 100.344 17.2344ZM123.195 7.69531C123.195 8.42969 123.195 9.46875 123.195 10.8125C123.211 12.1406 123.227 13.1641 123.242 13.8828C124.898 13.3672 126.695 12.7891 128.633 12.1484C130.57 11.5078 132.359 11.0391 134 10.7422C135.438 8.75781 135.75 7.46094 134.938 6.85156C134.141 6.22656 132.93 5.95313 131.305 6.03125C129.695 6.10937 128.031 6.375 126.312 6.82812C124.609 7.26563 123.57 7.55469 123.195 7.69531ZM122.961 5.16406C124.617 4.32031 126.68 3.71875 129.148 3.35938C131.617 3 133.781 3.00781 135.641 3.38281C137.516 3.75781 138.727 4.5625 139.273 5.79688C139.836 7.01562 139.039 8.77344 136.883 11.0703C137.586 11.2578 138.242 11.5469 138.852 11.9375C139.477 12.3281 139.453 13.3516 138.781 15.0078C138.344 16.1172 137.328 17.6484 135.734 19.6016C134.141 21.5391 132.359 23.4531 130.391 25.3438C128.422 27.2344 126.469 28.8594 124.531 30.2188C122.594 31.5625 121.062 32.1875 119.938 32.0938C118.797 31.8438 118.18 31.25 118.086 30.3125C117.992 29.3594 118.055 28.4141 118.273 27.4766C118.414 26.1016 118.664 24.6016 119.023 22.9766C119.367 21.3359 119.609 19.8203 119.75 18.4297C118.078 19.0859 117.234 18.8047 117.219 17.5859C117.203 16.3672 118.156 15.4766 120.078 14.9141C120.172 14.0703 120.273 13.0391 120.383 11.8203C120.477 10.5859 120.57 9.53125 120.664 8.65625C118.555 8.59375 117.836 8.27344 118.508 7.69531C119.164 7.10156 119.953 6.52344 120.875 5.96094C121.141 4.69531 121.555 4.05469 122.117 4.03906C122.695 4.02344 122.977 4.39844 122.961 5.16406ZM122.539 26.4219C123.102 26.0938 124.078 25.4375 125.469 24.4531C126.859 23.4688 128.25 22.3672 129.641 21.1484C131.047 19.9141 132.25 18.6719 133.25 17.4219C134.25 16.1719 134.656 15.1016 134.469 14.2109C134.391 13.8672 133.812 13.7812 132.734 13.9531C131.656 14.125 130.461 14.4062 129.148 14.7969C127.836 15.1875 126.594 15.6172 125.422 16.0859C124.25 16.5391 123.539 16.8828 123.289 17.1172C123.305 18.1641 123.258 19.6953 123.148 21.7109C123.039 23.7266 122.836 25.2969 122.539 26.4219ZM137.539 28.1797C137.617 27.9609 137.836 27.1406 138.195 25.7188C138.555 24.2969 138.883 22.7656 139.18 21.125C139.773 18.3125 140.164 15.5547 140.352 12.8516C140.555 10.1484 140.188 7.97656 139.25 6.33594C138.219 4.74219 138.297 3.98438 139.484 4.0625C140.688 4.125 141.719 4.77344 142.578 6.00781C144.203 8.86719 144.812 11.8281 144.406 14.8906C144 17.9531 143.445 20.9453 142.742 23.8672C144.227 23.0078 146.242 22.4375 148.789 22.1562C151.336 21.875 153.102 21.9766 154.086 22.4609C154.117 22.4609 154.141 22.4062 154.156 22.2969C154.172 22.1875 154.203 22.1328 154.25 22.1328C155.625 23.0234 156.102 23.9141 155.68 24.8047C155.258 25.6953 153.75 25.8359 151.156 25.2266C148.906 25.3672 146.953 26 145.297 27.125C143.641 28.25 142.289 29.3359 141.242 30.3828C139.898 32.2734 138.898 33.3984 138.242 33.7578C137.586 34.1016 137.156 34.0156 136.953 33.5C136.75 32.9688 136.727 32.1797 136.883 31.1328C137.023 30.0859 137.242 29.1016 137.539 28.1797ZM165.898 14.8906C165.43 16.0625 165.219 17.3906 165.266 18.875C165.312 20.3438 165.594 21.6172 166.109 22.6953C166.609 23.7734 166.531 24.4844 165.875 24.8281C165.219 25.1719 164.516 24.8281 163.766 23.7969C162.812 22.3594 162.172 20.7812 161.844 19.0625C161.516 17.3438 161.664 15.6875 162.289 14.0938C162.711 12.9688 163.523 12.5391 164.727 12.8047C165.945 13.0703 166.336 13.7656 165.898 14.8906ZM163.156 10.5078C162.812 10.3203 162.398 10.3438 161.914 10.5781C161.445 10.8125 161.125 11.0078 160.953 11.1641C159.75 12.2422 158.688 13.3047 157.766 14.3516C156.844 15.3828 156.156 16.5391 155.703 17.8203C155.953 17.3047 156.539 16.9844 157.461 16.8594C158.555 16.7969 159.219 17.5312 159.453 19.0625C159.703 20.5781 160.32 21.75 161.305 22.5781C162.227 23.3594 162.453 24.1094 161.984 24.8281C161.516 25.5469 160.828 25.5156 159.922 24.7344C159.312 24.3594 158.383 23.4297 157.133 21.9453C155.898 20.4609 155.383 19.2031 155.586 18.1719C155.367 18.8594 155.195 19.9219 155.07 21.3594C154.945 22.7969 154.945 23.9766 155.07 24.8984C155.18 25.8828 155.719 27.0703 156.688 28.4609C157.656 29.8359 158.727 30.2891 159.898 29.8203C161.633 29.5859 163.484 28.5625 165.453 26.75C167.422 24.9375 168.812 22.5 169.625 19.4375C170.281 18.125 170.141 16.3984 169.203 14.2578C168.281 12.1016 167.375 10.4844 166.484 9.40625C166.469 9.42188 166.406 9.58594 166.297 9.89844C166.188 10.1953 166.133 10.3438 166.133 10.3438C165.367 11.3906 164.375 11.4453 163.156 10.5078ZM151.367 26.3984C151.18 25.7266 151.055 25.1953 150.992 24.8047C150.883 23.9141 150.828 23.1406 150.828 22.4844C150.797 22.4844 150.773 22.4922 150.758 22.5078C150.82 21.7891 150.93 20.7969 151.086 19.5312C151.227 18.25 151.57 16.9531 152.117 15.6406C152.867 13.7031 153.922 11.8906 155.281 10.2031C155.938 9.35938 156.75 8.5625 157.719 7.8125C158.703 7.04687 159.797 6.54688 161 6.3125L159.148 5.35156C157.789 4.86719 156.82 4.1875 156.242 3.3125C155.664 2.4375 156.922 2.23438 160.016 2.70312C163.875 3.57812 167.109 5.44531 169.719 8.30469C172.328 11.1484 173.492 14.7422 173.211 19.0859C173.102 20.6484 172.578 22.3047 171.641 24.0547C170.719 25.7891 169.555 27.375 168.148 28.8125C166.758 30.2344 165.219 31.3828 163.531 32.2578C161.844 33.1172 160.195 33.4531 158.586 33.2656C154.867 32.8906 152.461 30.6016 151.367 26.3984ZM183.547 26.7969C183.219 26.375 183.008 25.8125 182.914 25.1094C182.836 24.3906 182.844 23.6875 182.938 23C183.25 22.0312 182.562 21.7656 180.875 22.2031C179.203 22.6406 177.672 22.9766 176.281 23.2109C175.719 23.3359 175.484 23.1484 175.578 22.6484C175.688 22.1484 175.945 21.5859 176.352 20.9609C176.758 20.3359 177.219 19.7734 177.734 19.2734C178.266 18.7734 178.68 18.5859 178.977 18.7109C179.602 18.8672 180.438 18.9609 181.484 18.9922C182.547 19.0234 183.539 19.0781 184.461 19.1562C185.383 19.2344 186.086 19.375 186.57 19.5781C187.07 19.7656 187.078 20.0938 186.594 20.5625C185.969 21.6406 185.695 22.6875 185.773 23.7031C185.852 24.7188 185.992 25.5078 186.195 26.0703C187.82 25.9297 188.531 26.25 188.328 27.0312C188.141 27.8125 187.781 28.3203 187.25 28.5547C187.172 29.5078 187.43 30.125 188.023 30.4062C188.617 30.6719 188.648 31.0156 188.117 31.4375C186.82 32.4531 185.578 31.9219 184.391 29.8438C180.594 31.3906 177.992 32.1172 176.586 32.0234C175.195 31.9297 173.828 31.2969 172.484 30.125C170.719 28.5781 169.82 26.9453 169.789 25.2266C169.758 23.4922 170.133 21.8047 170.914 20.1641C171.68 18.5078 172.625 16.9609 173.75 15.5234C174.891 14.0703 175.742 12.8516 176.305 11.8672C177.414 9.92969 178.25 8.03906 178.812 6.19531C179.375 4.35156 180.156 3.29687 181.156 3.03125C182.125 2.78125 182.789 3 183.148 3.6875C183.602 2.71875 184.219 1.9375 185 1.34375C185.531 0.9375 185.922 0.90625 186.172 1.25C186.438 1.59375 186.453 1.95312 186.219 2.32812C185.734 4.07813 185.359 5.30469 185.094 6.00781C184.828 6.69531 185.117 8.32812 185.961 10.9062C186.164 11.6875 185.977 12.2578 185.398 12.6172C184.82 12.9766 184.227 12.7344 183.617 11.8906C182.742 10.7344 182.273 9.48437 182.211 8.14062C182.039 8.79688 181.484 9.85156 180.547 11.3047C179.625 12.7422 178.836 14.0234 178.18 15.1484C176.836 17.4453 175.516 19.6172 174.219 21.6641C172.938 23.7109 173.062 25.6406 174.594 27.4531C174.984 28 175.719 28.4453 176.797 28.7891C177.875 29.1172 180.125 28.4531 183.547 26.7969Z" fill="white"/>
</svg>
