<svg width="231" height="51" viewBox="0 0 231 51" fill="none" xmlns="http://www.w3.org/2000/svg">
<path d="M20.9121 27.3008C20.1113 26.793 18.5391 26.002 16.1953 24.9277C13.8516 23.8535 11.5469 22.6035 9.28125 21.1777C7.03516 19.7324 5.24805 18.1602 3.91992 16.4609C2.5918 14.7422 2.5332 12.9941 3.74414 11.2168C5.22852 8.95117 7.12305 7.0957 9.42773 5.65039C11.7324 4.20508 13.8906 3.43359 15.9023 3.33594C17.9336 3.23828 19.5547 3.95117 20.7656 5.47461C21.9766 6.99805 22.2305 9.5957 21.5273 13.2676C21.4102 14.0098 20.9512 14.6152 20.1504 15.084C19.3496 15.5527 18.5781 15.8457 17.8359 15.9629C16.8594 16.1387 15.9512 15.9043 15.1113 15.2598C14.291 14.6152 13.9395 13.9121 14.0566 13.1504C15.4238 8.52148 15.1797 6.54883 13.3242 7.23242C11.4688 7.89648 9.80859 9.79102 8.34375 12.916C7.54297 14.6152 8.42188 16.1484 10.9805 17.5156C13.5391 18.8828 16.332 20.3086 19.3594 21.793C22.4062 23.2578 24.9844 24.8887 27.0938 26.6855C29.2031 28.4824 29.4082 30.6602 27.709 33.2188C26.3809 34.9375 24.1836 36.4902 21.1172 37.877C18.0508 39.2637 14.9844 40.1426 11.918 40.5137C8.87109 40.8652 6.2832 40.5332 4.1543 39.5176C2.00586 38.4824 1.19531 36.4023 1.72266 33.2773C2.46484 30.4453 3.12891 28.6387 3.71484 27.8574C4.30078 27.0566 5.44336 25.8848 7.14258 24.3418C8.68555 23.502 10.209 23.2969 11.7129 23.7266C13.2363 24.1367 13.3242 25.0156 11.9766 26.3633C7.13281 30.7969 5.27734 33.6094 6.41016 34.8008C7.54297 35.9922 9.54492 36.2852 12.416 35.6797C15.3066 35.0547 17.9922 33.873 20.4727 32.1348C22.9531 30.377 23.0996 28.7656 20.9121 27.3008ZM44.9062 21.793C45.5117 23.082 45.6484 24.2539 45.3164 25.3086C45.0039 26.3438 44.3008 26.2168 43.207 24.9277C42.5234 24.1855 41.9961 23.3945 41.625 22.5547C40.8047 20.7188 40.9121 18.834 41.9473 16.9004C42.9824 14.9668 44.2617 13.2187 45.7852 11.6562C44.6133 11.9492 43.2168 12.2227 41.5957 12.4766C39.9746 12.7109 38.7051 12.8574 37.7871 12.916C37.0254 17.7402 36.7129 21.2656 36.8496 23.4922C36.9863 25.6992 37.6211 29.2734 38.7539 34.2148C39.2422 36.3633 38.7246 38.3164 37.2012 40.0742C35.6973 41.8125 34.5938 41.4805 33.8906 39.0781C32.4453 35.7578 31.8789 31.4121 32.1914 26.041C32.5039 20.6504 32.9434 16.2266 33.5098 12.7695C32.4551 12.8086 30.8438 12.6426 28.6758 12.2715C26.5273 11.9004 25.4824 11.6758 25.541 11.5977C26.6348 13.0234 27.6699 14.3906 28.6465 15.6992C29.623 16.9883 29.5449 18.3066 28.4121 19.6543C27.9434 20.2402 27.25 20.8359 26.332 21.4414C25.4336 22.0273 24.75 22.1934 24.2812 21.9395C23.7539 21.666 23.5586 21.2656 23.6953 20.7383C23.8125 20.2109 24.3008 19.0977 25.1602 17.3984C25.2969 16.9297 24.8867 16.0996 23.9297 14.9082C22.9727 13.7168 22.2793 12.5938 21.8496 11.5391C21.4199 10.4648 21.6836 9.67383 22.6406 9.16602C23.5977 8.6582 26.0684 8.84375 30.0527 9.72266C30.4629 9.83984 31.127 9.87891 32.0449 9.83984C32.9824 9.78125 33.8027 9.66406 34.5059 9.48828C36.0098 6.87109 37.5918 4.79102 39.252 3.24805C40.9121 1.68555 41.7129 1.97852 41.6543 4.12695C41.4785 4.86914 41.1074 5.72852 40.541 6.70508C39.9941 7.66211 39.6523 8.4043 39.5156 8.93164C43.168 8.32617 46.5957 7.47656 49.7988 6.38281C51.791 5.36719 53.2559 5.09375 54.1934 5.5625C55.1504 6.03125 54.7891 7.33008 53.1094 9.45898C52.582 10.123 51.7129 10.9727 50.502 12.0078C49.3105 13.043 48.168 14.1465 47.0742 15.3184C45.9805 16.4707 45.1504 17.623 44.584 18.7754C44.0176 19.9082 44.125 20.9141 44.9062 21.793ZM55.8926 36.793C55.209 39.1367 54.2715 40.1035 53.0801 39.6934C51.9082 39.2832 51.3516 38.1699 51.4102 36.3535C52.1328 32.7012 52.25 30.0352 51.7617 28.3555C51.293 28.4727 50.7461 28.6289 50.1211 28.8242C49.4766 29 48.7148 28.8242 47.8359 28.2969C46.8789 27.7109 46.8398 27.0664 47.7188 26.3633C48.5781 25.6406 49.6719 24.8594 51 24.0195C50.6484 20.4453 50.2285 17.6914 49.7402 15.7578C49.252 13.8242 48.5391 11.832 47.6016 9.78125C46.1172 6.85156 45.7168 4.79102 46.4004 3.59961C47.084 2.38867 49.4473 2.83789 53.4902 4.94727C55.7559 6.11914 57.582 7.13477 58.9688 7.99414C60.375 8.85352 61.8887 9.94727 63.5098 11.2754C64.4473 12.0371 65.5117 13.3555 66.7031 15.2305C67.9141 17.1055 68.1191 18.834 67.3184 20.416C69.623 19.8496 70.8633 20.2109 71.0391 21.5C71.2148 22.7695 70.9512 24.6152 70.248 27.0371C69.5645 29.4395 68.7637 32.2324 67.8457 35.416C66.9277 38.5996 66.5371 41.8125 66.6738 45.0547C68.3535 42.9844 69.5254 42.1738 70.1895 42.623C70.873 43.0527 70.0234 44.9668 67.6406 48.3652C67.3477 48.7559 66.8691 49.1758 66.2051 49.625C65.541 50.0938 64.75 50.0156 63.832 49.3906C62.8945 48.7656 62.543 46.6855 62.7773 43.1504C63.0312 39.6152 63.3926 36.1582 63.8613 32.7793C64.2129 30.2988 64.6523 28.0625 65.1797 26.0703C65.707 24.0586 64.623 23.4238 61.9277 24.166C60.8145 24.459 59.9062 24.7129 59.2031 24.9277C58.5 25.1426 57.3574 25.6113 55.7754 26.334C55.9902 28.0723 56.1367 29.7812 56.2148 31.4609C56.293 33.1211 56.1855 34.8984 55.8926 36.793ZM61.8691 19.5078C63.4316 18.375 62.8359 16.5586 60.082 14.0586C57.3281 11.5391 54.4375 9.91797 51.4102 9.19531C52.6992 12.5547 53.5391 14.957 53.9297 16.4023C54.3398 17.8281 54.6719 19.8301 54.9258 22.4082C56.2539 21.959 57.5039 21.5391 58.6758 21.1484C59.8672 20.7578 60.9316 20.2109 61.8691 19.5078ZM88.6465 29.7031C85.6191 29.957 82.6016 31.1582 79.5938 33.3066C76.6055 35.4551 74.3691 37.8184 72.8848 40.3965C71.8105 42.252 70.6289 42.8867 69.3398 42.3008C68.0508 41.7148 67.6211 40.6406 68.0508 39.0781C68.4805 37.2617 69.0762 35.1035 69.8379 32.6035C70.5996 30.1035 70.873 28.4727 70.6582 27.7109C70.0332 28.0625 69.1055 28.5508 67.875 29.1758C66.6445 29.8008 65.6191 29.6152 64.7988 28.6191C63.8027 27.4082 64.0957 26.3535 65.6777 25.4551C67.2402 24.5566 68.9883 23.6484 70.9219 22.7305C71.2148 20.8555 71.0391 18.6289 70.3945 16.0508C69.75 13.4727 68.8809 11.3828 67.7871 9.78125C67.2207 8.90234 66.8691 8.20898 66.7324 7.70117C66.0293 6.82227 65.8926 5.875 66.3223 4.85938C66.7324 3.84375 68.1582 4.08789 70.5996 5.5918C72.377 6.35352 74.3398 7.02734 76.4883 7.61328C78.6562 8.17969 80.834 8.01367 83.0215 7.11523C84.623 6.41211 85.8047 6.25586 86.5664 6.64648C87.3477 7.01758 86.8203 7.88672 84.9844 9.25391C83.2266 10.1133 81.3125 10.6504 79.2422 10.8652C77.1719 11.0801 74.7891 10.8066 72.0938 10.0449C73.1094 11.9785 73.8418 13.502 74.291 14.6152C74.7402 15.709 75.0918 17.8672 75.3457 21.0898C77.123 20.6797 79.3008 20.416 81.8789 20.2988C84.457 20.1816 85.4824 20.7285 84.9551 21.9395C84.8379 22.4277 83.5781 22.8184 81.1758 23.1113C78.7734 23.3848 76.9277 24.0586 75.6387 25.1328C75.5801 26.0703 75.4824 27.2422 75.3457 28.6484C75.2285 30.0547 74.9551 31.1973 74.5254 32.0762C75.5801 31.0215 77.7676 29.918 81.0879 28.7656C84.4082 27.6133 86.6641 27.1348 87.8555 27.3301C89.7891 27.3691 90.7656 27.877 90.7852 28.8535C90.8242 29.8301 90.1113 30.1133 88.6465 29.7031ZM106.869 29.7031C103.842 29.957 100.824 31.1582 97.8164 33.3066C94.8281 35.4551 92.5918 37.8184 91.1074 40.3965C90.0332 42.252 88.8516 42.8867 87.5625 42.3008C86.2734 41.7148 85.8438 40.6406 86.2734 39.0781C86.7031 37.2617 87.2988 35.1035 88.0605 32.6035C88.8223 30.1035 89.0957 28.4727 88.8809 27.7109C88.2559 28.0625 87.3281 28.5508 86.0977 29.1758C84.8672 29.8008 83.8418 29.6152 83.0215 28.6191C82.0254 27.4082 82.3184 26.3535 83.9004 25.4551C85.4629 24.5566 87.2109 23.6484 89.1445 22.7305C89.4375 20.8555 89.2617 18.6289 88.6172 16.0508C87.9727 13.4727 87.1035 11.3828 86.0098 9.78125C85.4434 8.90234 85.0918 8.20898 84.9551 7.70117C84.252 6.82227 84.1152 5.875 84.5449 4.85938C84.9551 3.84375 86.3809 4.08789 88.8223 5.5918C90.5996 6.35352 92.5625 7.02734 94.7109 7.61328C96.8789 8.17969 99.0566 8.01367 101.244 7.11523C102.846 6.41211 104.027 6.25586 104.789 6.64648C105.57 7.01758 105.043 7.88672 103.207 9.25391C101.449 10.1133 99.5352 10.6504 97.4648 10.8652C95.3945 11.0801 93.0117 10.8066 90.3164 10.0449C91.332 11.9785 92.0645 13.502 92.5137 14.6152C92.9629 15.709 93.3145 17.8672 93.5684 21.0898C95.3457 20.6797 97.5234 20.416 100.102 20.2988C102.68 20.1816 103.705 20.7285 103.178 21.9395C103.061 22.4277 101.801 22.8184 99.3984 23.1113C96.9961 23.3848 95.1504 24.0586 93.8613 25.1328C93.8027 26.0703 93.7051 27.2422 93.5684 28.6484C93.4512 30.0547 93.1777 31.1973 92.748 32.0762C93.8027 31.0215 95.9902 29.918 99.3105 28.7656C102.631 27.6133 104.887 27.1348 106.078 27.3301C108.012 27.3691 108.988 27.877 109.008 28.8535C109.047 29.8301 108.334 30.1133 106.869 29.7031ZM125.18 21.793C125.785 23.082 125.922 24.2539 125.59 25.3086C125.277 26.3438 124.574 26.2168 123.48 24.9277C122.797 24.1855 122.27 23.3945 121.898 22.5547C121.078 20.7188 121.186 18.834 122.221 16.9004C123.256 14.9668 124.535 13.2187 126.059 11.6562C124.887 11.9492 123.49 12.2227 121.869 12.4766C120.248 12.7109 118.979 12.8574 118.061 12.916C117.299 17.7402 116.986 21.2656 117.123 23.4922C117.26 25.6992 117.895 29.2734 119.027 34.2148C119.516 36.3633 118.998 38.3164 117.475 40.0742C115.971 41.8125 114.867 41.4805 114.164 39.0781C112.719 35.7578 112.152 31.4121 112.465 26.041C112.777 20.6504 113.217 16.2266 113.783 12.7695C112.729 12.8086 111.117 12.6426 108.949 12.2715C106.801 11.9004 105.756 11.6758 105.814 11.5977C106.908 13.0234 107.943 14.3906 108.92 15.6992C109.896 16.9883 109.818 18.3066 108.686 19.6543C108.217 20.2402 107.523 20.8359 106.605 21.4414C105.707 22.0273 105.023 22.1934 104.555 21.9395C104.027 21.666 103.832 21.2656 103.969 20.7383C104.086 20.2109 104.574 19.0977 105.434 17.3984C105.57 16.9297 105.16 16.0996 104.203 14.9082C103.246 13.7168 102.553 12.5938 102.123 11.5391C101.693 10.4648 101.957 9.67383 102.914 9.16602C103.871 8.6582 106.342 8.84375 110.326 9.72266C110.736 9.83984 111.4 9.87891 112.318 9.83984C113.256 9.78125 114.076 9.66406 114.779 9.48828C116.283 6.87109 117.865 4.79102 119.525 3.24805C121.186 1.68555 121.986 1.97852 121.928 4.12695C121.752 4.86914 121.381 5.72852 120.814 6.70508C120.268 7.66211 119.926 8.4043 119.789 8.93164C123.441 8.32617 126.869 7.47656 130.072 6.38281C132.064 5.36719 133.529 5.09375 134.467 5.5625C135.424 6.03125 135.062 7.33008 133.383 9.45898C132.855 10.123 131.986 10.9727 130.775 12.0078C129.584 13.043 128.441 14.1465 127.348 15.3184C126.254 16.4707 125.424 17.623 124.857 18.7754C124.291 19.9082 124.398 20.9141 125.18 21.793ZM141.703 36.0605C140.688 38.541 139.057 39.2832 136.811 38.2871C135.111 37.4668 134.271 36.4023 134.291 35.0938C134.33 33.7656 134.926 32.6621 136.078 31.7832C137.445 30.7871 138.871 30.8262 140.355 31.9004C141.84 32.9746 142.289 34.3613 141.703 36.0605ZM147.943 9.86914C147.943 10.7871 147.943 12.0859 147.943 13.7656C147.963 15.4258 147.982 16.7051 148.002 17.6035C150.072 16.959 152.318 16.2363 154.74 15.4355C157.162 14.6348 159.398 14.0488 161.449 13.6777C163.246 11.1973 163.637 9.57617 162.621 8.81445C161.625 8.0332 160.111 7.69141 158.08 7.78906C156.068 7.88672 153.988 8.21875 151.84 8.78516C149.711 9.33203 148.412 9.69336 147.943 9.86914ZM147.65 6.70508C149.721 5.65039 152.299 4.89844 155.385 4.44922C158.471 4 161.176 4.00977 163.5 4.47852C165.844 4.94727 167.357 5.95312 168.041 7.49609C168.744 9.01953 167.748 11.2168 165.053 14.0879C165.932 14.3223 166.752 14.6836 167.514 15.1719C168.295 15.6602 168.266 16.9395 167.426 19.0098C166.879 20.3965 165.609 22.3105 163.617 24.752C161.625 27.1738 159.398 29.5664 156.938 31.9297C154.477 34.293 152.035 36.3242 149.613 38.0234C147.191 39.7031 145.277 40.4844 143.871 40.3672C142.445 40.0547 141.674 39.3125 141.557 38.1406C141.439 36.9492 141.518 35.7676 141.791 34.5957C141.967 32.877 142.279 31.002 142.729 28.9707C143.158 26.9199 143.461 25.0254 143.637 23.2871C141.547 24.1074 140.492 23.7559 140.473 22.2324C140.453 20.709 141.645 19.5957 144.047 18.8926C144.164 17.8379 144.291 16.5488 144.428 15.0254C144.545 13.4824 144.662 12.1641 144.779 11.0703C142.143 10.9922 141.244 10.5918 142.084 9.86914C142.904 9.12695 143.891 8.4043 145.043 7.70117C145.375 6.11914 145.893 5.31836 146.596 5.29883C147.318 5.2793 147.67 5.74805 147.65 6.70508ZM147.123 33.2773C147.826 32.8672 149.047 32.0469 150.785 30.8164C152.523 29.5859 154.262 28.209 156 26.6855C157.758 25.1426 159.262 23.5898 160.512 22.0273C161.762 20.4648 162.27 19.127 162.035 18.0137C161.938 17.584 161.215 17.4766 159.867 17.6914C158.52 17.9062 157.025 18.2578 155.385 18.7461C153.744 19.2344 152.191 19.7715 150.727 20.3574C149.262 20.9238 148.373 21.3535 148.061 21.6465C148.08 22.9551 148.021 24.8691 147.885 27.3887C147.748 29.9082 147.494 31.8711 147.123 33.2773ZM165.873 35.4746C165.971 35.2012 166.244 34.1758 166.693 32.3984C167.143 30.6211 167.553 28.707 167.924 26.6562C168.666 23.1406 169.154 19.6934 169.389 16.3145C169.643 12.9355 169.184 10.2207 168.012 8.16992C166.723 6.17773 166.82 5.23047 168.305 5.32812C169.809 5.40625 171.098 6.2168 172.172 7.75977C174.203 11.334 174.965 15.0352 174.457 18.8633C173.949 22.6914 173.256 26.4316 172.377 30.084C174.232 29.0098 176.752 28.2969 179.936 27.9453C183.119 27.5938 185.326 27.7207 186.557 28.3262C186.596 28.3262 186.625 28.2578 186.645 28.1211C186.664 27.9844 186.703 27.916 186.762 27.916C188.48 29.0293 189.076 30.1426 188.549 31.2559C188.021 32.3691 186.137 32.5449 182.895 31.7832C180.082 31.959 177.641 32.75 175.57 34.1562C173.5 35.5625 171.811 36.9199 170.502 38.2285C168.822 40.5918 167.572 41.998 166.752 42.4473C165.932 42.877 165.395 42.7695 165.141 42.125C164.887 41.4609 164.857 40.4746 165.053 39.166C165.229 37.8574 165.502 36.627 165.873 35.4746ZM201.322 18.8633C200.736 20.3281 200.473 21.9883 200.531 23.8438C200.59 25.6797 200.941 27.2715 201.586 28.6191C202.211 29.9668 202.113 30.8555 201.293 31.2852C200.473 31.7148 199.594 31.2852 198.656 29.9961C197.465 28.1992 196.664 26.2266 196.254 24.0781C195.844 21.9297 196.029 19.8594 196.811 17.8672C197.338 16.4609 198.354 15.9238 199.857 16.2559C201.381 16.5879 201.869 17.457 201.322 18.8633ZM197.895 13.3848C197.465 13.1504 196.947 13.1797 196.342 13.4727C195.756 13.7656 195.355 14.0098 195.141 14.2051C193.637 15.5527 192.309 16.8809 191.156 18.1895C190.004 19.4785 189.145 20.9238 188.578 22.5254C188.891 21.8809 189.623 21.4805 190.775 21.3242C192.143 21.2461 192.973 22.1641 193.266 24.0781C193.578 25.9727 194.35 27.4375 195.58 28.4727C196.732 29.4492 197.016 30.3867 196.43 31.2852C195.844 32.1836 194.984 32.1445 193.852 31.168C193.09 30.6992 191.928 29.5371 190.365 27.6816C188.822 25.8262 188.178 24.2539 188.432 22.9648C188.158 23.8242 187.943 25.1523 187.787 26.9492C187.631 28.7461 187.631 30.2207 187.787 31.373C187.924 32.6035 188.598 34.0879 189.809 35.8262C191.02 37.5449 192.357 38.1113 193.822 37.5254C195.99 37.2324 198.305 35.9531 200.766 33.6875C203.227 31.4219 204.965 28.375 205.98 24.5469C206.801 22.9062 206.625 20.748 205.453 18.0723C204.301 15.377 203.168 13.3555 202.055 12.0078C202.035 12.0273 201.957 12.2324 201.82 12.623C201.684 12.9941 201.615 13.1797 201.615 13.1797C200.658 14.4883 199.418 14.5566 197.895 13.3848ZM183.158 33.248C182.924 32.4082 182.768 31.7441 182.689 31.2559C182.553 30.1426 182.484 29.1758 182.484 28.3555C182.445 28.3555 182.416 28.3652 182.396 28.3848C182.475 27.4863 182.611 26.2461 182.807 24.6641C182.982 23.0625 183.412 21.4414 184.096 19.8008C185.033 17.3789 186.352 15.1133 188.051 13.0039C188.871 11.9492 189.887 10.9531 191.098 10.0156C192.328 9.05859 193.695 8.43359 195.199 8.14062L192.885 6.93945C191.186 6.33398 189.975 5.48437 189.252 4.39062C188.529 3.29688 190.102 3.04297 193.969 3.62891C198.793 4.72266 202.836 7.05664 206.098 10.6309C209.359 14.1855 210.814 18.6777 210.463 24.1074C210.326 26.0605 209.672 28.1309 208.5 30.3184C207.348 32.4863 205.893 34.4688 204.135 36.2656C202.396 38.043 200.473 39.4785 198.363 40.5723C196.254 41.6465 194.193 42.0664 192.182 41.832C187.533 41.3633 184.525 38.502 183.158 33.248ZM223.383 33.7461C222.973 33.2188 222.709 32.5156 222.592 31.6367C222.494 30.7383 222.504 29.8594 222.621 29C223.012 27.7891 222.152 27.457 220.043 28.0039C217.953 28.5508 216.039 28.9707 214.301 29.2637C213.598 29.4199 213.305 29.1855 213.422 28.5605C213.559 27.9355 213.881 27.2324 214.389 26.4512C214.896 25.6699 215.473 24.9668 216.117 24.3418C216.781 23.7168 217.299 23.4824 217.67 23.6387C218.451 23.834 219.496 23.9512 220.805 23.9902C222.133 24.0293 223.373 24.0977 224.525 24.1953C225.678 24.293 226.557 24.4688 227.162 24.7227C227.787 24.957 227.797 25.3672 227.191 25.9531C226.41 27.3008 226.068 28.6094 226.166 29.8789C226.264 31.1484 226.439 32.1348 226.693 32.8379C228.725 32.6621 229.613 33.0625 229.359 34.0391C229.125 35.0156 228.676 35.6504 228.012 35.9434C227.914 37.1348 228.236 37.9062 228.979 38.2578C229.721 38.5898 229.76 39.0195 229.096 39.5469C227.475 40.8164 225.922 40.1523 224.438 37.5547C219.691 39.4883 216.439 40.3965 214.682 40.2793C212.943 40.1621 211.234 39.3711 209.555 37.9062C207.348 35.9727 206.225 33.9316 206.186 31.7832C206.146 29.6152 206.615 27.5059 207.592 25.4551C208.549 23.3848 209.73 21.4512 211.137 19.6543C212.562 17.8379 213.627 16.3145 214.33 15.084C215.717 12.6621 216.762 10.2988 217.465 7.99414C218.168 5.68945 219.145 4.37109 220.395 4.03906C221.605 3.72656 222.436 4 222.885 4.85938C223.451 3.64844 224.223 2.67187 225.199 1.92969C225.863 1.42188 226.352 1.38281 226.664 1.8125C226.996 2.24219 227.016 2.69141 226.723 3.16016C226.117 5.34766 225.648 6.88086 225.316 7.75977C224.984 8.61914 225.346 10.6602 226.4 13.8828C226.654 14.8594 226.42 15.5723 225.697 16.0215C224.975 16.4707 224.232 16.168 223.471 15.1133C222.377 13.668 221.791 12.1055 221.713 10.4258C221.498 11.2461 220.805 12.5645 219.633 14.3809C218.48 16.1777 217.494 17.7793 216.674 19.1855C214.994 22.0566 213.344 24.7715 211.723 27.3301C210.121 29.8887 210.277 32.3008 212.191 34.5664C212.68 35.25 213.598 35.8066 214.945 36.2363C216.293 36.6465 219.105 35.8164 223.383 33.7461Z" fill="white"/>
</svg>
