<svg width="218" height="48" viewBox="0 0 218 48" fill="none" xmlns="http://www.w3.org/2000/svg">
<path d="M19.1665 25.1357C18.4058 24.6533 16.9121 23.9019 14.6855 22.8813C12.459 21.8608 10.2695 20.6733 8.11719 19.3188C5.9834 17.9458 4.28564 16.4521 3.02393 14.8379C1.76221 13.2051 1.70654 11.5444 2.85693 9.85596C4.26709 7.70361 6.06689 5.94092 8.25635 4.56787C10.4458 3.19482 12.4961 2.46191 14.4072 2.36914C16.3369 2.27637 17.877 2.95361 19.0273 4.40088C20.1777 5.84814 20.4189 8.31592 19.751 11.8042C19.6396 12.5093 19.2036 13.0845 18.4429 13.5298C17.6821 13.9751 16.9492 14.2534 16.2441 14.3647C15.3164 14.5317 14.4536 14.3091 13.6558 13.6968C12.8765 13.0845 12.5425 12.4165 12.6538 11.6929C13.9526 7.29541 13.7207 5.42139 11.958 6.0708C10.1953 6.70166 8.61816 8.50146 7.22656 11.4702C6.46582 13.0845 7.30078 14.541 9.73145 15.8398C12.1621 17.1387 14.8154 18.4932 17.6914 19.9033C20.5859 21.2949 23.0352 22.8442 25.0391 24.5513C27.043 26.2583 27.2378 28.3271 25.6235 30.7578C24.3618 32.3906 22.2744 33.8657 19.3613 35.1831C16.4482 36.5005 13.5352 37.3354 10.6221 37.688C7.72754 38.022 5.26904 37.7065 3.24658 36.7417C1.20557 35.7583 0.435547 33.7822 0.936523 30.8135C1.6416 28.123 2.27246 26.4067 2.8291 25.6646C3.38574 24.9038 4.47119 23.7905 6.08545 22.3247C7.55127 21.5269 8.99854 21.332 10.4272 21.7402C11.8745 22.1299 11.958 22.9648 10.6777 24.2451C6.07617 28.457 4.31348 31.1289 5.38965 32.2607C6.46582 33.3926 8.36768 33.6709 11.0952 33.0957C13.8413 32.502 16.3926 31.3794 18.749 29.728C21.1055 28.0581 21.2446 26.5273 19.1665 25.1357ZM41.9609 19.9033C42.5361 21.1279 42.666 22.2412 42.3506 23.2432C42.0537 24.2266 41.3857 24.106 40.3467 22.8813C39.6973 22.1763 39.1963 21.4248 38.8438 20.627C38.0645 18.8828 38.1665 17.0923 39.1499 15.2554C40.1333 13.4185 41.3486 11.7578 42.7959 10.2734C41.6826 10.5518 40.356 10.8115 38.8159 11.0527C37.2759 11.2754 36.0698 11.4146 35.1978 11.4702C34.4741 16.0532 34.1772 19.4023 34.3071 21.5176C34.437 23.6143 35.04 27.0098 36.1162 31.7041C36.5801 33.7451 36.0884 35.6006 34.6411 37.2705C33.2124 38.9219 32.1641 38.6064 31.4961 36.3242C30.123 33.1699 29.585 29.0415 29.8818 23.939C30.1787 18.8179 30.5962 14.6152 31.1343 11.3311C30.1323 11.3682 28.6016 11.2104 26.542 10.8579C24.501 10.5054 23.5083 10.292 23.564 10.2178C24.603 11.5723 25.5864 12.8711 26.5142 14.1143C27.4419 15.3389 27.3677 16.5913 26.2915 17.8716C25.8462 18.4282 25.1875 18.9941 24.3154 19.5693C23.4619 20.126 22.8125 20.2837 22.3672 20.0425C21.8662 19.7827 21.6807 19.4023 21.8105 18.9014C21.9219 18.4004 22.3857 17.3428 23.2021 15.7285C23.332 15.2832 22.9424 14.4946 22.0332 13.3628C21.124 12.231 20.4653 11.1641 20.0571 10.1621C19.6489 9.1416 19.8994 8.39014 20.8086 7.90771C21.7178 7.42529 24.0649 7.60156 27.8501 8.43652C28.2397 8.54785 28.8706 8.58496 29.7427 8.54785C30.6333 8.49219 31.4126 8.38086 32.0806 8.21387C33.5093 5.72754 35.0122 3.75146 36.5894 2.28564C38.1665 0.80127 38.9272 1.07959 38.8716 3.12061C38.7046 3.82568 38.3521 4.64209 37.814 5.56982C37.2944 6.479 36.9697 7.18408 36.8398 7.68506C40.3096 7.10986 43.5659 6.30273 46.6089 5.26367C48.5015 4.29883 49.8931 4.03906 50.7837 4.48438C51.6929 4.92969 51.3496 6.16357 49.7539 8.18604C49.2529 8.81689 48.4272 9.62402 47.2769 10.6074C46.145 11.5908 45.0596 12.6392 44.0205 13.7524C42.9814 14.8472 42.1929 15.9419 41.6548 17.0366C41.1167 18.1128 41.2188 19.0684 41.9609 19.9033ZM52.3979 34.1533C51.7485 36.3799 50.8579 37.2983 49.7261 36.9087C48.6128 36.519 48.084 35.4614 48.1396 33.7358C48.8262 30.2661 48.9375 27.7334 48.4736 26.1377C48.0283 26.249 47.5088 26.3975 46.915 26.583C46.3027 26.75 45.5791 26.583 44.7441 26.082C43.835 25.5254 43.7979 24.9131 44.6328 24.2451C45.4492 23.5586 46.4883 22.8164 47.75 22.0186C47.416 18.623 47.0171 16.0068 46.5532 14.1699C46.0894 12.333 45.4121 10.4404 44.5215 8.49219C43.1113 5.70898 42.731 3.75146 43.3804 2.61963C44.0298 1.46924 46.2749 1.896 50.1157 3.8999C52.2681 5.01318 54.0029 5.97803 55.3203 6.79443C56.6562 7.61084 58.0942 8.6499 59.6343 9.91162C60.5249 10.6353 61.5361 11.8877 62.668 13.6689C63.8184 15.4502 64.0132 17.0923 63.2524 18.5952C65.4419 18.0571 66.6201 18.4004 66.7871 19.625C66.9541 20.8311 66.7036 22.5845 66.0356 24.8853C65.3862 27.1675 64.6255 29.8208 63.7534 32.8452C62.8813 35.8696 62.5103 38.9219 62.6401 42.002C64.2358 40.0352 65.3491 39.2651 65.98 39.6919C66.6294 40.1001 65.8223 41.9185 63.5586 45.147C63.2803 45.5181 62.8257 45.917 62.1948 46.3438C61.564 46.7891 60.8125 46.7148 59.9404 46.1211C59.0498 45.5273 58.7158 43.5513 58.9385 40.1929C59.1797 36.8345 59.5229 33.5503 59.9683 30.3403C60.3022 27.9839 60.7197 25.8594 61.2207 23.9668C61.7217 22.0557 60.6919 21.4526 58.1313 22.1577C57.0737 22.436 56.2109 22.6772 55.543 22.8813C54.875 23.0854 53.7896 23.5308 52.2866 24.2173C52.4907 25.8687 52.6299 27.4922 52.7041 29.0879C52.7783 30.665 52.6763 32.3535 52.3979 34.1533ZM58.0757 17.7324C59.5601 16.6562 58.9941 14.9307 56.3779 12.5557C53.7617 10.1621 51.0156 8.62207 48.1396 7.93555C49.3643 11.127 50.1621 13.4092 50.5332 14.7822C50.9229 16.1367 51.2383 18.0386 51.4795 20.4878C52.7412 20.061 53.9287 19.6621 55.042 19.291C56.1738 18.9199 57.1851 18.4004 58.0757 17.7324ZM83.5142 27.418C80.6382 27.6592 77.7715 28.8003 74.9141 30.8413C72.0752 32.8823 69.9507 35.1274 68.5405 37.5767C67.52 39.3394 66.3975 39.9424 65.1729 39.3857C63.9482 38.8291 63.54 37.8086 63.9482 36.3242C64.3564 34.5986 64.9224 32.5483 65.646 30.1733C66.3696 27.7983 66.6294 26.249 66.4253 25.5254C65.8315 25.8594 64.9502 26.3232 63.7812 26.917C62.6123 27.5107 61.6382 27.3345 60.8589 26.3882C59.9126 25.2378 60.1909 24.2358 61.6938 23.3823C63.1782 22.5288 64.8389 21.666 66.6758 20.7939C66.9541 19.0127 66.7871 16.8975 66.1748 14.4482C65.5625 11.999 64.7368 10.0137 63.6978 8.49219C63.1597 7.65723 62.8257 6.99854 62.6958 6.51611C62.0278 5.68115 61.8979 4.78125 62.3062 3.81641C62.6958 2.85156 64.0503 3.0835 66.3696 4.51221C68.0581 5.23584 69.9229 5.87598 71.9639 6.43262C74.0234 6.9707 76.0923 6.81299 78.1704 5.95947C79.6919 5.2915 80.8145 5.14307 81.5381 5.51416C82.2803 5.8667 81.7793 6.69238 80.0352 7.99121C78.3652 8.80762 76.5469 9.31787 74.5801 9.52197C72.6133 9.72607 70.3496 9.46631 67.7891 8.74268C68.7539 10.5796 69.4497 12.0269 69.8765 13.0845C70.3032 14.1235 70.6372 16.1738 70.8784 19.2354C72.5669 18.8457 74.6357 18.5952 77.085 18.4839C79.5342 18.3726 80.5083 18.8921 80.0073 20.0425C79.896 20.5063 78.6992 20.8774 76.417 21.1558C74.1348 21.4155 72.3813 22.0557 71.1567 23.0762C71.1011 23.9668 71.0083 25.0801 70.8784 26.416C70.7671 27.752 70.5073 28.8374 70.0991 29.6724C71.1011 28.6704 73.1792 27.6221 76.3335 26.5273C79.4878 25.4326 81.6309 24.978 82.7627 25.1636C84.5996 25.2007 85.5273 25.6831 85.5459 26.6108C85.583 27.5386 84.9058 27.8076 83.5142 27.418ZM100.826 27.418C97.9497 27.6592 95.083 28.8003 92.2256 30.8413C89.3867 32.8823 87.2622 35.1274 85.8521 37.5767C84.8315 39.3394 83.709 39.9424 82.4844 39.3857C81.2598 38.8291 80.8516 37.8086 81.2598 36.3242C81.668 34.5986 82.2339 32.5483 82.9575 30.1733C83.6812 27.7983 83.9409 26.249 83.7368 25.5254C83.1431 25.8594 82.2617 26.3232 81.0928 26.917C79.9238 27.5107 78.9497 27.3345 78.1704 26.3882C77.2241 25.2378 77.5024 24.2358 79.0054 23.3823C80.4897 22.5288 82.1504 21.666 83.9873 20.7939C84.2656 19.0127 84.0986 16.8975 83.4863 14.4482C82.874 11.999 82.0483 10.0137 81.0093 8.49219C80.4712 7.65723 80.1372 6.99854 80.0073 6.51611C79.3394 5.68115 79.2095 4.78125 79.6177 3.81641C80.0073 2.85156 81.3618 3.0835 83.6812 4.51221C85.3696 5.23584 87.2344 5.87598 89.2754 6.43262C91.335 6.9707 93.4038 6.81299 95.4819 5.95947C97.0034 5.2915 98.126 5.14307 98.8496 5.51416C99.5918 5.8667 99.0908 6.69238 97.3467 7.99121C95.6768 8.80762 93.8584 9.31787 91.8916 9.52197C89.9248 9.72607 87.6611 9.46631 85.1006 8.74268C86.0654 10.5796 86.7612 12.0269 87.188 13.0845C87.6147 14.1235 87.9487 16.1738 88.1899 19.2354C89.8784 18.8457 91.9473 18.5952 94.3965 18.4839C96.8457 18.3726 97.8198 18.8921 97.3188 20.0425C97.2075 20.5063 96.0107 20.8774 93.7285 21.1558C91.4463 21.4155 89.6929 22.0557 88.4683 23.0762C88.4126 23.9668 88.3198 25.0801 88.1899 26.416C88.0786 27.752 87.8188 28.8374 87.4106 29.6724C88.4126 28.6704 90.4907 27.6221 93.645 26.5273C96.7993 25.4326 98.9424 24.978 100.074 25.1636C101.911 25.2007 102.839 25.6831 102.857 26.6108C102.895 27.5386 102.217 27.8076 100.826 27.418ZM118.221 19.9033C118.796 21.1279 118.926 22.2412 118.61 23.2432C118.313 24.2266 117.646 24.106 116.606 22.8813C115.957 22.1763 115.456 21.4248 115.104 20.627C114.324 18.8828 114.426 17.0923 115.41 15.2554C116.393 13.4185 117.608 11.7578 119.056 10.2734C117.942 10.5518 116.616 10.8115 115.076 11.0527C113.536 11.2754 112.33 11.4146 111.458 11.4702C110.734 16.0532 110.437 19.4023 110.567 21.5176C110.697 23.6143 111.3 27.0098 112.376 31.7041C112.84 33.7451 112.348 35.6006 110.901 37.2705C109.472 38.9219 108.424 38.6064 107.756 36.3242C106.383 33.1699 105.845 29.0415 106.142 23.939C106.438 18.8179 106.856 14.6152 107.394 11.3311C106.392 11.3682 104.861 11.2104 102.802 10.8579C100.761 10.5054 99.7681 10.292 99.8237 10.2178C100.863 11.5723 101.846 12.8711 102.774 14.1143C103.702 15.3389 103.627 16.5913 102.551 17.8716C102.106 18.4282 101.447 18.9941 100.575 19.5693C99.7217 20.126 99.0723 20.2837 98.627 20.0425C98.126 19.7827 97.9404 19.4023 98.0703 18.9014C98.1816 18.4004 98.6455 17.3428 99.4619 15.7285C99.5918 15.2832 99.2021 14.4946 98.293 13.3628C97.3838 12.231 96.7251 11.1641 96.3169 10.1621C95.9087 9.1416 96.1592 8.39014 97.0684 7.90771C97.9775 7.42529 100.325 7.60156 104.11 8.43652C104.5 8.54785 105.13 8.58496 106.002 8.54785C106.893 8.49219 107.672 8.38086 108.34 8.21387C109.769 5.72754 111.272 3.75146 112.849 2.28564C114.426 0.80127 115.187 1.07959 115.131 3.12061C114.964 3.82568 114.612 4.64209 114.074 5.56982C113.554 6.479 113.229 7.18408 113.1 7.68506C116.569 7.10986 119.826 6.30273 122.869 5.26367C124.761 4.29883 126.153 4.03906 127.043 4.48438C127.953 4.92969 127.609 6.16357 126.014 8.18604C125.513 8.81689 124.687 9.62402 123.537 10.6074C122.405 11.5908 121.319 12.6392 120.28 13.7524C119.241 14.8472 118.453 15.9419 117.915 17.0366C117.376 18.1128 117.479 19.0684 118.221 19.9033ZM133.918 33.4575C132.953 35.814 131.404 36.519 129.27 35.5728C127.656 34.7935 126.858 33.7822 126.876 32.5391C126.914 31.2773 127.479 30.229 128.574 29.394C129.873 28.4478 131.228 28.4849 132.638 29.5054C134.048 30.5259 134.475 31.8433 133.918 33.4575ZM139.846 8.57568C139.846 9.44775 139.846 10.6816 139.846 12.2773C139.865 13.8545 139.883 15.0698 139.902 15.9233C141.869 15.311 144.002 14.6245 146.303 13.8638C148.604 13.103 150.729 12.5464 152.677 12.1938C154.384 9.8374 154.755 8.29736 153.79 7.57373C152.844 6.83154 151.406 6.50684 149.476 6.59961C147.565 6.69238 145.589 7.00781 143.548 7.5459C141.525 8.06543 140.292 8.40869 139.846 8.57568ZM139.568 5.56982C141.535 4.56787 143.984 3.85352 146.916 3.42676C149.847 3 152.417 3.00928 154.625 3.45459C156.852 3.8999 158.29 4.85547 158.939 6.32129C159.607 7.76855 158.661 9.85596 156.1 12.5835C156.935 12.8062 157.714 13.1494 158.438 13.6133C159.18 14.0771 159.152 15.2925 158.354 17.2593C157.835 18.5767 156.629 20.395 154.736 22.7144C152.844 25.0151 150.729 27.2881 148.391 29.5332C146.053 31.7783 143.733 33.708 141.433 35.3223C139.132 36.918 137.313 37.6602 135.978 37.5488C134.623 37.252 133.89 36.5469 133.779 35.4336C133.667 34.3018 133.742 33.1792 134.001 32.0659C134.168 30.4331 134.465 28.6519 134.892 26.7222C135.3 24.7739 135.588 22.9741 135.755 21.3228C133.77 22.1021 132.768 21.7681 132.749 20.3208C132.73 18.8735 133.862 17.8159 136.145 17.1479C136.256 16.146 136.376 14.9214 136.506 13.4741C136.618 12.0083 136.729 10.7559 136.84 9.7168C134.335 9.64258 133.482 9.26221 134.28 8.57568C135.059 7.87061 135.996 7.18408 137.091 6.51611C137.406 5.01318 137.898 4.25244 138.566 4.23389C139.252 4.21533 139.586 4.66064 139.568 5.56982ZM139.067 30.8135C139.735 30.4238 140.895 29.6445 142.546 28.4756C144.197 27.3066 145.849 25.9985 147.5 24.5513C149.17 23.0854 150.599 21.6104 151.786 20.126C152.974 18.6416 153.456 17.3706 153.233 16.313C153.141 15.9048 152.454 15.8027 151.174 16.0068C149.894 16.2109 148.474 16.5449 146.916 17.0088C145.357 17.4727 143.882 17.9829 142.49 18.5396C141.099 19.0776 140.254 19.4858 139.958 19.7642C139.976 21.0073 139.92 22.8257 139.791 25.2192C139.661 27.6128 139.419 29.4775 139.067 30.8135ZM156.879 32.9009C156.972 32.6411 157.232 31.667 157.659 29.9785C158.085 28.29 158.475 26.4717 158.828 24.5234C159.533 21.1836 159.997 17.9087 160.219 14.6987C160.46 11.4888 160.024 8.90967 158.911 6.96143C157.687 5.06885 157.779 4.16895 159.189 4.26172C160.618 4.33594 161.843 5.10596 162.863 6.57178C164.793 9.96729 165.517 13.4834 165.034 17.1201C164.552 20.7568 163.893 24.3101 163.058 27.7798C164.821 26.7593 167.214 26.082 170.239 25.748C173.263 25.4141 175.36 25.5347 176.529 26.1099C176.566 26.1099 176.594 26.0449 176.612 25.915C176.631 25.7852 176.668 25.7202 176.724 25.7202C178.356 26.7778 178.922 27.8354 178.421 28.8931C177.92 29.9507 176.13 30.1177 173.05 29.394C170.378 29.561 168.059 30.3125 166.092 31.6484C164.125 32.9844 162.52 34.2739 161.277 35.5171C159.681 37.7622 158.494 39.0981 157.714 39.5249C156.935 39.9331 156.425 39.8311 156.184 39.2188C155.942 38.5879 155.915 37.6509 156.1 36.4077C156.267 35.1646 156.527 33.9956 156.879 32.9009ZM190.556 17.1201C190 18.5117 189.749 20.0889 189.805 21.8516C189.86 23.5957 190.194 25.1079 190.807 26.3882C191.4 27.6685 191.308 28.5127 190.528 28.9209C189.749 29.3291 188.914 28.9209 188.023 27.6963C186.892 25.9893 186.131 24.1152 185.741 22.0742C185.352 20.0332 185.528 18.0664 186.27 16.1738C186.771 14.8379 187.736 14.3276 189.165 14.6431C190.612 14.9585 191.076 15.7842 190.556 17.1201ZM187.3 11.9155C186.892 11.6929 186.4 11.7207 185.825 11.999C185.268 12.2773 184.888 12.5093 184.684 12.6948C183.255 13.9751 181.993 15.2368 180.898 16.48C179.804 17.7046 178.987 19.0776 178.449 20.5991C178.746 19.9868 179.442 19.6064 180.537 19.458C181.835 19.3838 182.624 20.2559 182.902 22.0742C183.199 23.874 183.932 25.2656 185.101 26.249C186.196 27.1768 186.465 28.0674 185.908 28.9209C185.352 29.7744 184.535 29.7373 183.459 28.8096C182.735 28.3643 181.631 27.2603 180.147 25.4976C178.681 23.7349 178.069 22.2412 178.31 21.0166C178.05 21.833 177.846 23.0947 177.698 24.8018C177.549 26.5088 177.549 27.9097 177.698 29.0044C177.828 30.1733 178.468 31.5835 179.618 33.2349C180.769 34.8677 182.04 35.4058 183.431 34.8491C185.491 34.5708 187.689 33.3555 190.027 31.2031C192.365 29.0508 194.017 26.1562 194.981 22.5195C195.761 20.9609 195.594 18.9106 194.48 16.3687C193.386 13.8081 192.31 11.8877 191.252 10.6074C191.233 10.626 191.159 10.8208 191.029 11.1919C190.899 11.5444 190.834 11.7207 190.834 11.7207C189.925 12.9639 188.747 13.0288 187.3 11.9155ZM173.3 30.7856C173.078 29.9878 172.929 29.3569 172.855 28.8931C172.725 27.8354 172.66 26.917 172.66 26.1377C172.623 26.1377 172.595 26.147 172.577 26.1655C172.651 25.312 172.781 24.1338 172.966 22.6309C173.133 21.1094 173.542 19.5693 174.191 18.0107C175.082 15.71 176.334 13.5576 177.948 11.5537C178.728 10.5518 179.692 9.60547 180.843 8.71484C182.012 7.80566 183.311 7.21191 184.739 6.93359L182.541 5.79248C180.926 5.21729 179.776 4.41016 179.089 3.37109C178.403 2.33203 179.896 2.09082 183.57 2.64746C188.153 3.68652 191.994 5.90381 195.093 9.29932C198.191 12.6763 199.574 16.9438 199.24 22.1021C199.11 23.9575 198.488 25.9243 197.375 28.0024C196.28 30.062 194.898 31.9453 193.228 33.6523C191.577 35.3408 189.749 36.7046 187.745 37.7437C185.741 38.7642 183.784 39.1631 181.873 38.9404C177.457 38.4951 174.599 35.7769 173.3 30.7856ZM211.514 31.2588C211.124 30.7578 210.874 30.0898 210.762 29.2549C210.669 28.4014 210.679 27.5664 210.79 26.75C211.161 25.5996 210.345 25.2842 208.341 25.8037C206.355 26.3232 204.537 26.7222 202.886 27.0005C202.218 27.1489 201.939 26.9263 202.051 26.3325C202.181 25.7388 202.487 25.0708 202.969 24.3286C203.452 23.5864 203.999 22.9185 204.611 22.3247C205.242 21.731 205.734 21.5083 206.086 21.6567C206.829 21.8423 207.821 21.9536 209.064 21.9907C210.326 22.0278 211.504 22.0928 212.599 22.1855C213.694 22.2783 214.529 22.4453 215.104 22.6865C215.698 22.9092 215.707 23.2988 215.132 23.8555C214.39 25.1357 214.065 26.3789 214.158 27.585C214.25 28.791 214.417 29.728 214.659 30.396C216.588 30.229 217.433 30.6094 217.191 31.5371C216.969 32.4648 216.542 33.0679 215.911 33.3462C215.818 34.478 216.125 35.2109 216.83 35.5449C217.535 35.8604 217.572 36.2686 216.941 36.7695C215.401 37.9756 213.926 37.3447 212.516 34.877C208.007 36.7139 204.917 37.5767 203.248 37.4653C201.596 37.354 199.973 36.6025 198.377 35.2109C196.28 33.374 195.213 31.4351 195.176 29.394C195.139 27.3345 195.584 25.3306 196.512 23.3823C197.421 21.4155 198.544 19.5786 199.88 17.8716C201.234 16.146 202.246 14.6987 202.914 13.5298C204.231 11.229 205.224 8.98389 205.892 6.79443C206.56 4.60498 207.487 3.35254 208.675 3.03711C209.825 2.74023 210.614 3 211.041 3.81641C211.579 2.66602 212.312 1.73828 213.239 1.0332C213.87 0.550781 214.334 0.513672 214.631 0.921875C214.946 1.33008 214.965 1.75684 214.687 2.20215C214.111 4.28027 213.666 5.73682 213.351 6.57178C213.035 7.38818 213.378 9.32715 214.38 12.3887C214.622 13.3164 214.399 13.9937 213.712 14.4204C213.026 14.8472 212.321 14.5596 211.597 13.5576C210.558 12.1846 210.001 10.7002 209.927 9.10449C209.723 9.88379 209.064 11.1362 207.951 12.8618C206.856 14.5688 205.919 16.0903 205.14 17.4263C203.544 20.1538 201.977 22.7329 200.437 25.1636C198.915 27.5942 199.063 29.8857 200.882 32.0381C201.346 32.6875 202.218 33.2163 203.498 33.6245C204.778 34.0142 207.45 33.2256 211.514 31.2588Z" fill="white"/>
</svg>
