<svg width="266" height="46" viewBox="0 0 266 46" fill="none" xmlns="http://www.w3.org/2000/svg">
<path d="M1.75977 12.9775C1.75977 10.8421 2.52051 9.22721 4.04199 8.13281C4.89616 7.51888 5.84375 7.21191 6.88477 7.21191C9.82096 7.21191 13.4512 8.54655 17.7754 11.2158C19.2435 12.1234 20.2445 12.8441 20.7783 13.3779C21.6325 11.5361 22.3132 10.6152 22.8203 10.6152C23.2207 10.6686 23.4342 11.1758 23.4609 12.1367C23.4609 13.6315 23.1673 14.9928 22.5801 16.2207C22.0996 17.1283 21.5524 17.5954 20.9385 17.6221C20.9385 17.6221 20.0309 16.8613 18.2158 15.3398C16.9346 14.3255 15.7334 13.4714 14.6123 12.7773C13.7314 12.457 13.0107 12.2969 12.4502 12.2969C11.0088 12.3503 10.2747 13.071 10.248 14.459C10.2747 16.8346 11.5426 18.8099 14.0518 20.3848C14.9059 20.7585 16.2539 21.2923 18.0957 21.9863C21.3789 23.1875 23.6611 24.1885 24.9424 24.9893C28.2256 26.4574 30.2676 28.1123 31.0684 29.9541C31.4154 30.7282 31.5889 31.5557 31.5889 32.4365C31.5889 34.7588 29.9873 36.4271 26.7842 37.4414C24.9958 38.002 22.9271 38.2822 20.5781 38.2822C16.0404 38.2822 12.0498 37.4147 8.60645 35.6797C8.07259 35.4128 7.59212 35.1458 7.16504 34.8789C6.44434 34.5853 5.69694 34.2116 4.92285 33.7578C5.02962 35.8398 5.08301 37.388 5.08301 38.4023C5.05632 39.0697 4.85612 39.4167 4.48242 39.4434C4.21549 39.4167 4.08203 38.8695 4.08203 37.8018C4.08203 37.2946 4.09538 36.5339 4.12207 35.5195C4.12207 34.5052 4.12207 33.7578 4.12207 33.2773C1.53288 31.4889 0.224935 29.3936 0.198242 26.9912C0.198242 26.0303 0.625326 25.3496 1.47949 24.9492C1.77311 24.7891 2.09342 24.709 2.44043 24.709C2.44043 24.709 3.88184 25.5898 6.76465 27.3516C12.9574 30.9284 17.4417 32.7301 20.2178 32.7568C22.1396 32.7035 23.1139 31.7559 23.1406 29.9141C23.1139 28.7663 22.4466 27.7653 21.1387 26.9111C20.3646 26.5908 19.11 26.1237 17.375 25.5098C13.7181 24.1751 11.1156 23.054 9.56738 22.1465C5.64355 20.3848 3.21452 18.2894 2.28027 15.8604C1.93327 14.9528 1.75977 13.9919 1.75977 12.9775ZM7.56543 8.0127H7.48535C4.70931 8.09277 3.2946 9.25391 3.24121 11.4961C3.24121 12.6706 3.36133 13.418 3.60156 13.7383C3.62826 13.765 3.65495 13.7783 3.68164 13.7783C3.86849 13.7249 3.96191 13.4714 3.96191 13.0176C3.96191 12.9108 3.94857 12.7373 3.92188 12.4971C3.92188 12.3636 3.92188 12.2702 3.92188 12.2168C3.92188 10.1882 4.58919 9.04036 5.92383 8.77344C6.19076 8.72005 6.55111 8.69336 7.00488 8.69336H7.125C7.25846 8.69336 7.39193 8.69336 7.52539 8.69336C7.73893 8.72005 7.96582 8.7334 8.20605 8.7334C8.36621 8.70671 8.45964 8.66667 8.48633 8.61328C8.24609 8.26628 7.93913 8.06608 7.56543 8.0127ZM9.00684 14.459C9.00684 13.0443 9.54069 12.0433 10.6084 11.4561C10.8753 11.3226 11.1289 11.2292 11.3691 11.1758C10.7285 10.9622 10.1813 10.8555 9.72754 10.8555C8.25944 10.9089 7.51204 11.6562 7.48535 13.0977C7.51204 14.9661 8.32617 16.5811 9.92773 17.9424C9.3138 16.7412 9.00684 15.5801 9.00684 14.459ZM28.1855 28.2324C28.6393 29.1667 28.8662 30.0876 28.8662 30.9951C28.8662 33.2907 27.318 34.959 24.2217 36C22.3799 36.6139 20.2445 36.9209 17.8154 36.9209H17.375C17.5352 36.9476 17.7087 36.9609 17.8955 36.9609C18.0824 36.9876 18.2692 37.001 18.4561 37.001C18.6696 37.001 18.8698 37.001 19.0566 37.001C19.2702 37.0277 19.457 37.041 19.6172 37.041C19.804 37.0677 19.9642 37.0811 20.0977 37.0811C20.2578 37.0811 20.3779 37.0811 20.458 37.0811H20.5781C24.6621 37.0544 27.5449 36.2936 29.2266 34.7988C30.0007 34.0781 30.3877 33.2907 30.3877 32.4365C30.361 30.835 29.627 29.4336 28.1855 28.2324ZM46.6436 8.93359V9.6543C51.2881 8.96029 56.7734 8.5599 63.0996 8.45312C63.8203 8.45312 64.3408 8.10612 64.6611 7.41211C64.7412 7.17188 64.7812 6.94499 64.7812 6.73145C64.7812 5.98405 64.4342 5.46354 63.7402 5.16992C63.5 5.06315 63.2731 5.00977 63.0596 5.00977H62.6191V5.20996C62.6191 6.35775 62.112 7.22526 61.0977 7.8125C60.6439 8.02604 60.1901 8.14616 59.7363 8.17285C55.0651 8.25293 50.7008 8.50651 46.6436 8.93359ZM42.3594 9.49414C42.6797 9.73438 42.9199 9.98796 43.0801 10.2549C43.8275 10.0947 44.8285 9.92122 46.083 9.73438V9.01367C43.8141 9.30729 42.5729 9.46745 42.3594 9.49414ZM38.5557 6.45117C38.4489 6.26432 38.2087 6.1709 37.835 6.1709C37.6214 6.1709 37.3812 6.19759 37.1143 6.25098C36.2868 6.49121 35.1123 6.90495 33.5908 7.49219C33.5107 7.51888 33.3372 7.58561 33.0703 7.69238C31.8958 8.17285 31.2952 8.5599 31.2686 8.85352C31.2686 8.88021 31.2819 8.92025 31.3086 8.97363H31.3486C31.8291 8.97363 33.5107 8.45312 36.3936 7.41211C36.9007 7.25195 37.3145 7.10514 37.6348 6.97168C38.2487 6.70475 38.5557 6.53125 38.5557 6.45117ZM39.2363 19.584V20.4648C39.263 21.6393 39.4365 22.2399 39.7568 22.2666C39.8903 22.2666 40.0505 20.6517 40.2373 17.4219C40.264 16.7012 40.2773 16.1139 40.2773 15.6602C40.2773 14.9661 40.2373 14.6058 40.1572 14.5791C39.8369 14.5791 39.61 14.9261 39.4766 15.6201C39.4499 15.7002 39.4365 15.7669 39.4365 15.8203C39.3031 17.2884 39.2363 18.543 39.2363 19.584ZM24.1416 13.7783C23.5544 13.3245 23.2474 12.724 23.2207 11.9766C23.2207 11.069 23.6211 10.4017 24.4219 9.97461C24.502 9.92122 24.5687 9.88118 24.6221 9.85449C30.7347 7.45215 35.4059 5.81055 38.6357 4.92969C44.8551 3.27474 51.8486 2.38053 59.6162 2.24707H59.6562C60.7773 2.27376 61.6315 2.78092 62.2188 3.76855H63.0596C64.1807 3.76855 65.0348 4.27572 65.6221 5.29004C65.889 5.74382 66.0225 6.22428 66.0225 6.73145C66.0225 7.85254 65.5153 8.70671 64.501 9.29395C64.0472 9.53418 63.5801 9.66764 63.0996 9.69434C56.5599 9.8278 51.1012 10.2148 46.7236 10.8555C46.8304 13.0443 46.8838 14.6992 46.8838 15.8203C46.8571 16.4876 46.6702 16.8346 46.3232 16.8613C46.0296 16.8346 45.8828 16.2874 45.8828 15.2197C45.8828 15.113 45.9229 13.6982 46.0029 10.9756C45.6025 11.029 45.042 11.1357 44.3213 11.2959C43.8942 11.376 43.5872 11.4294 43.4004 11.4561C43.4004 12.8975 43.4404 14.9795 43.5205 17.7021C43.5739 20.2913 43.6006 22.2266 43.6006 23.5078C43.6006 27.2982 43.4004 30.6748 43 33.6377C42.8665 34.5986 42.346 35.266 41.4385 35.6396C41.1182 35.7464 40.8112 35.7998 40.5176 35.7998C39.5299 35.7998 38.7959 35.346 38.3154 34.4385C38.1286 34.0648 38.0352 33.6777 38.0352 33.2773C38.0352 31.3021 38.222 26.7243 38.5957 19.5439C38.7292 16.848 38.8092 14.499 38.8359 12.4971C35.6061 13.4046 32.5898 14.4323 29.7871 15.5801C29.9473 16.2207 30.0273 16.8079 30.0273 17.3418C29.9473 18.5163 29.5602 19.1436 28.8662 19.2236C27.7718 19.2236 26.4906 17.9557 25.0225 15.4199C24.7288 14.8861 24.4352 14.3389 24.1416 13.7783ZM29.4268 14.3789C32.6032 13.1243 35.7529 12.0833 38.876 11.2559C38.9294 10.8555 39.0895 10.4684 39.3564 10.0947C35.8864 10.8154 32.403 11.8164 28.9062 13.0977C28.9863 13.2578 29.1598 13.6849 29.4268 14.3789ZM54.8115 20.585C54.3044 21.0387 53.7438 21.279 53.1299 21.3057C52.5693 21.279 52.1022 21.1322 51.7285 20.8652C52.1556 21.5059 52.6227 22.0397 53.1299 22.4668C53.3701 22.6536 53.597 22.7471 53.8105 22.7471C54.5046 22.6937 54.8649 22.2399 54.8916 21.3857C54.8916 21.1989 54.8649 20.932 54.8115 20.585ZM56.1328 21.3857C56.1328 22.5335 55.6924 23.321 54.8115 23.748C54.4912 23.9082 54.1576 23.9883 53.8105 23.9883C53.2233 23.9616 52.7295 23.7747 52.3291 23.4277C50.4606 21.666 49.3796 19.5973 49.0859 17.2217C48.5521 15.9137 48.2852 14.6058 48.2852 13.2979C48.2852 6.86491 50.3538 3.12793 54.4912 2.08691C55.2653 1.90007 56.0661 1.80664 56.8936 1.80664C60.4971 1.80664 64.4743 3.26139 68.8252 6.1709C72.5355 8.68001 75.3382 11.4294 77.2334 14.4189C78.2744 16.1273 78.8617 17.6755 78.9951 19.0635C79.5023 20.3714 79.7559 21.4124 79.7559 22.1865C79.7559 24.6689 78.1676 26.3639 74.9912 27.2715C74.9645 27.2982 74.9378 27.3115 74.9111 27.3115C76.2458 28.6195 78.2077 30.7549 80.7969 33.7178C80.8503 33.7979 80.8903 33.8512 80.917 33.8779C81.5843 34.6787 81.918 35.5729 81.918 36.5605C81.918 37.9486 81.3174 39.083 80.1162 39.9639C79.3955 40.471 78.6214 40.7246 77.7939 40.7246C76.4593 40.6979 75.4316 40.2174 74.7109 39.2832C73.4831 37.7083 72.4821 35.5462 71.708 32.7969C71.1208 30.7148 70.5736 29.3268 70.0664 28.6328C69.8796 28.3926 69.6927 28.179 69.5059 27.9922H68.8652C68.0911 27.9922 66.7832 27.9655 64.9414 27.9121V28.1123C64.9414 32.8369 64.3675 35.8265 63.2197 37.0811C62.8994 37.4281 62.5524 37.6016 62.1787 37.6016C60.9242 37.6016 60.0299 37.0544 59.4961 35.96C59.3092 35.5863 59.2025 35.1992 59.1758 34.7988C58.6953 29.4603 58.1348 25.403 57.4941 22.627C56.8001 19.7174 56.2663 17.2884 55.8926 15.3398C55.8659 15.2331 55.8525 15.0863 55.8525 14.8994C55.8525 13.8851 56.3063 13.1911 57.2139 12.8174C57.5075 12.6839 57.8145 12.6172 58.1348 12.6172C59.6562 12.6172 61.071 13.8717 62.3789 16.3809C62.9661 17.5286 63.46 18.8232 63.8604 20.2646C65.2484 20.4248 67.5173 20.7718 70.667 21.3057C73.5231 21.279 75.098 20.585 75.3916 19.2236C74.1637 17.1416 71.9749 15.0596 68.8252 12.9775C66.7432 11.6162 64.7279 10.6019 62.7793 9.93457C62.8861 12.0166 62.9395 13.5781 62.9395 14.6191C62.9128 15.2865 62.7126 15.6335 62.3389 15.6602C62.0719 15.6335 61.9385 15.0863 61.9385 14.0186C61.9385 13.5114 61.9518 12.7773 61.9785 11.8164C61.9785 10.8822 61.9785 10.1748 61.9785 9.69434C60.6439 9.34733 59.6562 9.17383 59.0156 9.17383C56.3464 9.17383 54.9183 10.5618 54.7314 13.3379C54.7048 13.5781 54.6914 13.805 54.6914 14.0186C54.6914 14.846 54.9984 16.3408 55.6123 18.5029C55.9593 19.7308 56.1328 20.6917 56.1328 21.3857ZM61.9785 7.25195C60.6172 6.79818 59.4027 6.57129 58.335 6.57129C55.5589 6.57129 54.1042 8.02604 53.9707 10.9355C53.9707 10.9622 53.9707 10.9889 53.9707 11.0156C54.1576 10.5885 54.3978 10.1882 54.6914 9.81445C55.679 8.58659 57.1204 7.97266 59.0156 7.97266C59.9232 7.97266 60.9108 8.11947 61.9785 8.41309V7.25195ZM62.6191 7.45215C62.6191 7.58561 62.6325 7.77246 62.6592 8.0127C62.6859 8.27962 62.6992 8.46647 62.6992 8.57324C63.2598 8.7334 63.9538 8.98698 64.7812 9.33398C68.2246 10.8288 71.2809 12.9108 73.9502 15.5801C72.2152 13.2845 69.7327 11.1891 66.5029 9.29395C65.1683 8.51986 63.8737 7.90592 62.6191 7.45215ZM64.8613 26.2705C64.8613 26.3239 64.8747 26.404 64.9014 26.5107C64.9014 26.6175 64.9014 26.6976 64.9014 26.751C65.1683 26.751 65.5687 26.7643 66.1025 26.791C66.6631 26.791 67.0768 26.791 67.3438 26.791C66.543 26.5241 65.7155 26.3506 64.8613 26.2705ZM73.8301 26.3105C76.6595 25.6966 78.2077 24.5355 78.4746 22.8271C78.5013 22.6136 78.5146 22.4001 78.5146 22.1865V21.7861C78.0876 22.5602 77.3802 23.2275 76.3926 23.7881C75.4049 24.5622 74.1237 25.016 72.5488 25.1494C73.0026 25.5231 73.4297 25.9102 73.8301 26.3105ZM51.9287 6.57129C53.0765 4.83626 54.8783 3.96875 57.334 3.96875C57.6009 3.96875 58.2015 4.04883 59.1357 4.20898C59.4827 4.26237 59.8831 4.28906 60.3369 4.28906C60.5771 4.26237 60.7106 4.19564 60.7373 4.08887C60.7373 3.68848 59.6829 3.38151 57.5742 3.16797C57.1738 3.14128 56.8402 3.12793 56.5732 3.12793C54.251 3.15462 52.4893 4.12891 51.2881 6.05078C51.1012 6.37109 51.0078 6.66471 51.0078 6.93164C51.0345 7.17188 51.1146 7.30534 51.248 7.33203H51.2881C51.5016 7.03841 51.7152 6.78483 51.9287 6.57129ZM86.6426 5.00977C86.6159 4.82292 86.4557 4.71615 86.1621 4.68945C84.6139 4.68945 83.0658 5.37012 81.5176 6.73145C80.3698 7.77246 79.5156 9.01367 78.9551 10.4551V10.4951C78.9551 10.8154 79.0352 10.9756 79.1953 10.9756C79.4355 10.9756 79.6758 10.7887 79.916 10.415C79.9427 10.335 79.9694 10.2816 79.9961 10.2549C80.7435 8.43978 82.3451 6.99837 84.8008 5.93066C85.3079 5.71712 85.7617 5.55697 86.1621 5.4502C86.4557 5.31673 86.6159 5.16992 86.6426 5.00977ZM98.2139 21.9863C98.1605 21.3991 97.7467 21.0521 96.9727 20.9453C96.7057 21.8262 96.1185 22.36 95.2109 22.5469C95.0508 22.5736 94.904 22.5869 94.7705 22.5869C94.7171 22.5869 94.6637 22.6003 94.6104 22.627C94.5303 22.627 94.4769 22.627 94.4502 22.627V23.2676C95.3844 23.1074 96.292 23.0273 97.1729 23.0273C97.6266 23.0273 97.9469 22.8005 98.1338 22.3467C98.1872 22.2132 98.2139 22.0931 98.2139 21.9863ZM99.4551 21.9863C99.4551 22.8939 99.0413 23.5745 98.2139 24.0283C97.8669 24.1885 97.5199 24.2686 97.1729 24.2686C96.1585 24.2686 95.2777 24.3353 94.5303 24.4688C94.6104 25.6432 94.6504 26.8177 94.6504 27.9922C94.6237 28.6595 94.4368 29.0065 94.0898 29.0332C93.8229 29.0065 93.6895 28.4593 93.6895 27.3916V24.6289C90.5397 25.3496 88.2575 26.6175 86.8428 28.4326C86.1221 29.3936 85.7617 30.4079 85.7617 31.4756C85.7617 31.7425 85.8151 32.0361 85.9219 32.3564C86.8027 32.5433 88.0173 32.6367 89.5654 32.6367C91.6208 32.6367 94.7572 32.0895 98.9746 30.9951C100.336 30.6214 101.337 30.3678 101.978 30.2344C102.191 30.181 102.458 30.1143 102.778 30.0342C103.499 29.8473 104.113 29.7539 104.62 29.7539C105.848 29.7539 106.742 30.2744 107.303 31.3154C107.329 31.3688 107.356 31.4089 107.383 31.4355C108.504 31.5423 109.305 32.1162 109.785 33.1572C109.972 33.5576 110.065 33.958 110.065 34.3584C110.065 35.4528 109.572 36.2936 108.584 36.8809C108.13 37.1211 107.676 37.2546 107.223 37.2812C101.377 38.3223 96.292 38.8428 91.9678 38.8428C87.6969 38.8161 84.6673 37.8685 82.8789 36C80.2096 34.7188 78.8617 32.6634 78.835 29.834C78.8617 27.1113 80.263 24.5755 83.0391 22.2266C82.5586 21.8262 82.3184 21.626 82.3184 21.626C80.0228 20.5049 78.5013 18.8232 77.7539 16.5811C77.4603 15.7536 77.3135 14.8994 77.3135 14.0186C77.3135 10.8688 78.6081 8.23958 81.1973 6.13086C83.6263 4.1556 86.4691 3.16797 89.7256 3.16797C91.3805 3.19466 92.6751 3.80859 93.6094 5.00977C95.7181 5.59701 96.946 7.31868 97.293 10.1748C97.3464 10.6553 97.373 11.1491 97.373 11.6562C97.373 12.5638 96.9593 13.2445 96.1318 13.6982C95.7848 13.8584 95.4378 13.9385 95.0908 13.9385C94.1299 13.9385 93.4359 13.498 93.0088 12.6172C92.9554 12.4837 92.9154 12.3636 92.8887 12.2568H92.6885C91.7542 12.2568 91.0869 11.8431 90.6865 11.0156C90.5264 10.6686 90.4463 10.335 90.4463 10.0146C90.4463 9.96126 90.4463 9.86784 90.4463 9.73438C90.4196 9.6276 90.4062 9.54753 90.4062 9.49414C88.084 9.89453 86.3623 10.9355 85.2412 12.6172C84.6006 13.5781 84.2803 14.5924 84.2803 15.6602C84.307 16.4609 84.5072 17.1683 84.8809 17.7822C86.0286 18.1292 87.2699 18.3027 88.6045 18.3027C89.085 18.3027 90.5397 18.2227 92.9688 18.0625C93.3691 18.0358 93.7562 18.0225 94.1299 18.0225C95.7581 18.0492 96.7191 18.6097 97.0127 19.7041C98.5342 20.0244 99.3483 20.7852 99.4551 21.9863ZM93.7295 22.667C90.6865 22.9072 88.124 23.7881 86.042 25.3096C84.307 26.6442 83.4261 28.1523 83.3994 29.834C83.4261 30.7415 83.7998 31.4222 84.5205 31.876V31.4756C84.5472 29.7139 85.3079 28.1257 86.8027 26.7109C88.5111 25.1361 90.82 24.0417 93.7295 23.4277V22.667ZM107.703 32.7568C107.676 33.8512 107.156 34.6787 106.142 35.2393C105.715 35.4795 105.274 35.613 104.82 35.6396C98.9746 36.6807 93.8896 37.2012 89.5654 37.2012C89.0583 37.2012 88.3643 37.1745 87.4834 37.1211C88.8714 37.4414 90.3662 37.6016 91.9678 37.6016C96.3721 37.6016 101.377 37.0944 106.982 36.0801C107.009 36.0801 107.049 36.0667 107.103 36.04C107.156 36.04 107.183 36.04 107.183 36.04C107.903 36.0133 108.41 35.6663 108.704 34.999C108.811 34.7588 108.864 34.5452 108.864 34.3584C108.864 33.6377 108.531 33.1305 107.863 32.8369C107.783 32.8102 107.73 32.7835 107.703 32.7568ZM94.5303 6.85156C94.7972 7.78581 94.9307 8.84017 94.9307 10.0146C94.904 10.762 94.6104 11.3626 94.0498 11.8164C94.1299 12.2168 94.3835 12.4971 94.8105 12.6572C94.9173 12.6839 95.0107 12.6973 95.0908 12.6973C95.5446 12.6973 95.8649 12.4704 96.0518 12.0166C96.1051 11.8831 96.1318 11.763 96.1318 11.6562C96.1051 9.36068 95.5713 7.75911 94.5303 6.85156ZM83.0391 15.6602C83.0391 13.071 84.2669 11.0423 86.7227 9.57422C87.8171 8.93359 89.0049 8.50651 90.2861 8.29297C90.126 7.91927 89.9391 7.71908 89.7256 7.69238C87.2432 7.69238 85.2145 8.47982 83.6396 10.0547C82.4652 11.2025 81.8779 12.5238 81.8779 14.0186C81.9046 15.2197 82.3451 16.194 83.1992 16.9414C83.0924 16.4076 83.0391 15.9805 83.0391 15.6602ZM106.622 5.00977C106.595 4.82292 106.435 4.71615 106.142 4.68945C104.593 4.68945 103.045 5.37012 101.497 6.73145C100.349 7.77246 99.4951 9.01367 98.9346 10.4551V10.4951C98.9346 10.8154 99.0146 10.9756 99.1748 10.9756C99.415 10.9756 99.6553 10.7887 99.8955 10.415C99.9222 10.335 99.9489 10.2816 99.9756 10.2549C100.723 8.43978 102.325 6.99837 104.78 5.93066C105.287 5.71712 105.741 5.55697 106.142 5.4502C106.435 5.31673 106.595 5.16992 106.622 5.00977ZM118.193 21.9863C118.14 21.3991 117.726 21.0521 116.952 20.9453C116.685 21.8262 116.098 22.36 115.19 22.5469C115.03 22.5736 114.883 22.5869 114.75 22.5869C114.697 22.5869 114.643 22.6003 114.59 22.627C114.51 22.627 114.456 22.627 114.43 22.627V23.2676C115.364 23.1074 116.271 23.0273 117.152 23.0273C117.606 23.0273 117.926 22.8005 118.113 22.3467C118.167 22.2132 118.193 22.0931 118.193 21.9863ZM119.435 21.9863C119.435 22.8939 119.021 23.5745 118.193 24.0283C117.846 24.1885 117.499 24.2686 117.152 24.2686C116.138 24.2686 115.257 24.3353 114.51 24.4688C114.59 25.6432 114.63 26.8177 114.63 27.9922C114.603 28.6595 114.416 29.0065 114.069 29.0332C113.802 29.0065 113.669 28.4593 113.669 27.3916V24.6289C110.519 25.3496 108.237 26.6175 106.822 28.4326C106.102 29.3936 105.741 30.4079 105.741 31.4756C105.741 31.7425 105.795 32.0361 105.901 32.3564C106.782 32.5433 107.997 32.6367 109.545 32.6367C111.6 32.6367 114.737 32.0895 118.954 30.9951C120.315 30.6214 121.316 30.3678 121.957 30.2344C122.171 30.181 122.438 30.1143 122.758 30.0342C123.479 29.8473 124.092 29.7539 124.6 29.7539C125.827 29.7539 126.722 30.2744 127.282 31.3154C127.309 31.3688 127.336 31.4089 127.362 31.4355C128.483 31.5423 129.284 32.1162 129.765 33.1572C129.951 33.5576 130.045 33.958 130.045 34.3584C130.045 35.4528 129.551 36.2936 128.563 36.8809C128.11 37.1211 127.656 37.2546 127.202 37.2812C121.356 38.3223 116.271 38.8428 111.947 38.8428C107.676 38.8161 104.647 37.8685 102.858 36C100.189 34.7188 98.8411 32.6634 98.8145 29.834C98.8411 27.1113 100.243 24.5755 103.019 22.2266C102.538 21.8262 102.298 21.626 102.298 21.626C100.002 20.5049 98.4808 18.8232 97.7334 16.5811C97.4398 15.7536 97.293 14.8994 97.293 14.0186C97.293 10.8688 98.5876 8.23958 101.177 6.13086C103.606 4.1556 106.449 3.16797 109.705 3.16797C111.36 3.19466 112.655 3.80859 113.589 5.00977C115.698 5.59701 116.925 7.31868 117.272 10.1748C117.326 10.6553 117.353 11.1491 117.353 11.6562C117.353 12.5638 116.939 13.2445 116.111 13.6982C115.764 13.8584 115.417 13.9385 115.07 13.9385C114.109 13.9385 113.415 13.498 112.988 12.6172C112.935 12.4837 112.895 12.3636 112.868 12.2568H112.668C111.734 12.2568 111.066 11.8431 110.666 11.0156C110.506 10.6686 110.426 10.335 110.426 10.0146C110.426 9.96126 110.426 9.86784 110.426 9.73438C110.399 9.6276 110.386 9.54753 110.386 9.49414C108.063 9.89453 106.342 10.9355 105.221 12.6172C104.58 13.5781 104.26 14.5924 104.26 15.6602C104.286 16.4609 104.487 17.1683 104.86 17.7822C106.008 18.1292 107.249 18.3027 108.584 18.3027C109.064 18.3027 110.519 18.2227 112.948 18.0625C113.349 18.0358 113.736 18.0225 114.109 18.0225C115.738 18.0492 116.699 18.6097 116.992 19.7041C118.514 20.0244 119.328 20.7852 119.435 21.9863ZM113.709 22.667C110.666 22.9072 108.104 23.7881 106.021 25.3096C104.286 26.6442 103.406 28.1523 103.379 29.834C103.406 30.7415 103.779 31.4222 104.5 31.876V31.4756C104.527 29.7139 105.287 28.1257 106.782 26.7109C108.491 25.1361 110.799 24.0417 113.709 23.4277V22.667ZM127.683 32.7568C127.656 33.8512 127.135 34.6787 126.121 35.2393C125.694 35.4795 125.254 35.613 124.8 35.6396C118.954 36.6807 113.869 37.2012 109.545 37.2012C109.038 37.2012 108.344 37.1745 107.463 37.1211C108.851 37.4414 110.346 37.6016 111.947 37.6016C116.352 37.6016 121.356 37.0944 126.962 36.0801C126.989 36.0801 127.029 36.0667 127.082 36.04C127.135 36.04 127.162 36.04 127.162 36.04C127.883 36.0133 128.39 35.6663 128.684 34.999C128.79 34.7588 128.844 34.5452 128.844 34.3584C128.844 33.6377 128.51 33.1305 127.843 32.8369C127.763 32.8102 127.709 32.7835 127.683 32.7568ZM114.51 6.85156C114.777 7.78581 114.91 8.84017 114.91 10.0146C114.883 10.762 114.59 11.3626 114.029 11.8164C114.109 12.2168 114.363 12.4971 114.79 12.6572C114.897 12.6839 114.99 12.6973 115.07 12.6973C115.524 12.6973 115.844 12.4704 116.031 12.0166C116.085 11.8831 116.111 11.763 116.111 11.6562C116.085 9.36068 115.551 7.75911 114.51 6.85156ZM103.019 15.6602C103.019 13.071 104.246 11.0423 106.702 9.57422C107.797 8.93359 108.984 8.50651 110.266 8.29297C110.105 7.91927 109.919 7.71908 109.705 7.69238C107.223 7.69238 105.194 8.47982 103.619 10.0547C102.445 11.2025 101.857 12.5238 101.857 14.0186C101.884 15.2197 102.325 16.194 103.179 16.9414C103.072 16.4076 103.019 15.9805 103.019 15.6602ZM137.332 8.93359V9.6543C141.977 8.96029 147.462 8.5599 153.788 8.45312C154.509 8.45312 155.029 8.10612 155.35 7.41211C155.43 7.17188 155.47 6.94499 155.47 6.73145C155.47 5.98405 155.123 5.46354 154.429 5.16992C154.188 5.06315 153.962 5.00977 153.748 5.00977H153.308V5.20996C153.308 6.35775 152.8 7.22526 151.786 7.8125C151.332 8.02604 150.879 8.14616 150.425 8.17285C145.754 8.25293 141.389 8.50651 137.332 8.93359ZM133.048 9.49414C133.368 9.73438 133.608 9.98796 133.769 10.2549C134.516 10.0947 135.517 9.92122 136.771 9.73438V9.01367C134.503 9.30729 133.261 9.46745 133.048 9.49414ZM129.244 6.45117C129.137 6.26432 128.897 6.1709 128.523 6.1709C128.31 6.1709 128.07 6.19759 127.803 6.25098C126.975 6.49121 125.801 6.90495 124.279 7.49219C124.199 7.51888 124.026 7.58561 123.759 7.69238C122.584 8.17285 121.984 8.5599 121.957 8.85352C121.957 8.88021 121.97 8.92025 121.997 8.97363H122.037C122.518 8.97363 124.199 8.45312 127.082 7.41211C127.589 7.25195 128.003 7.10514 128.323 6.97168C128.937 6.70475 129.244 6.53125 129.244 6.45117ZM129.925 19.584V20.4648C129.951 21.6393 130.125 22.2399 130.445 22.2666C130.579 22.2666 130.739 20.6517 130.926 17.4219C130.952 16.7012 130.966 16.1139 130.966 15.6602C130.966 14.9661 130.926 14.6058 130.846 14.5791C130.525 14.5791 130.299 14.9261 130.165 15.6201C130.138 15.7002 130.125 15.7669 130.125 15.8203C129.992 17.2884 129.925 18.543 129.925 19.584ZM114.83 13.7783C114.243 13.3245 113.936 12.724 113.909 11.9766C113.909 11.069 114.31 10.4017 115.11 9.97461C115.19 9.92122 115.257 9.88118 115.311 9.85449C121.423 7.45215 126.094 5.81055 129.324 4.92969C135.544 3.27474 142.537 2.38053 150.305 2.24707H150.345C151.466 2.27376 152.32 2.78092 152.907 3.76855H153.748C154.869 3.76855 155.723 4.27572 156.311 5.29004C156.577 5.74382 156.711 6.22428 156.711 6.73145C156.711 7.85254 156.204 8.70671 155.189 9.29395C154.736 9.53418 154.269 9.66764 153.788 9.69434C147.248 9.8278 141.79 10.2148 137.412 10.8555C137.519 13.0443 137.572 14.6992 137.572 15.8203C137.546 16.4876 137.359 16.8346 137.012 16.8613C136.718 16.8346 136.571 16.2874 136.571 15.2197C136.571 15.113 136.611 13.6982 136.691 10.9756C136.291 11.029 135.73 11.1357 135.01 11.2959C134.583 11.376 134.276 11.4294 134.089 11.4561C134.089 12.8975 134.129 14.9795 134.209 17.7021C134.262 20.2913 134.289 22.2266 134.289 23.5078C134.289 27.2982 134.089 30.6748 133.688 33.6377C133.555 34.5986 133.035 35.266 132.127 35.6396C131.807 35.7464 131.5 35.7998 131.206 35.7998C130.218 35.7998 129.484 35.346 129.004 34.4385C128.817 34.0648 128.724 33.6777 128.724 33.2773C128.724 31.3021 128.91 26.7243 129.284 19.5439C129.418 16.848 129.498 14.499 129.524 12.4971C126.295 13.4046 123.278 14.4323 120.476 15.5801C120.636 16.2207 120.716 16.8079 120.716 17.3418C120.636 18.5163 120.249 19.1436 119.555 19.2236C118.46 19.2236 117.179 17.9557 115.711 15.4199C115.417 14.8861 115.124 14.3389 114.83 13.7783ZM120.115 14.3789C123.292 13.1243 126.441 12.0833 129.564 11.2559C129.618 10.8555 129.778 10.4684 130.045 10.0947C126.575 10.8154 123.091 11.8164 119.595 13.0977C119.675 13.2578 119.848 13.6849 120.115 14.3789ZM144.899 33.918C144.899 32.6634 145.433 31.6891 146.501 30.9951C147.035 30.6748 147.595 30.5146 148.183 30.5146C148.957 30.5413 149.637 30.7949 150.225 31.2754H150.345C151.573 31.2754 152.507 31.8092 153.147 32.877C153.468 33.4375 153.628 34.0247 153.628 34.6387C153.628 35.8932 153.094 36.8675 152.026 37.5615C151.493 37.8818 150.932 38.042 150.345 38.042C149.544 38.0153 148.85 37.7617 148.263 37.2812H148.183C146.955 37.2812 146.021 36.7474 145.38 35.6797C145.06 35.1191 144.899 34.5319 144.899 33.918ZM151.306 32.9971C151.386 33.2907 151.426 33.5977 151.426 33.918C151.399 35.0658 150.972 35.96 150.145 36.6006H150.345C151.146 36.6006 151.719 36.2135 152.066 35.4395C152.173 35.1725 152.227 34.9056 152.227 34.6387C152.2 33.918 151.893 33.3708 151.306 32.9971ZM151.586 12.4971C153.561 9.98796 157.538 7.74577 163.518 5.77051C163.678 5.71712 163.825 5.66374 163.958 5.61035C164.572 5.37012 164.892 5.19661 164.919 5.08984C164.892 4.8763 164.745 4.75618 164.479 4.72949C163.144 4.72949 161.089 5.39681 158.312 6.73145C154.816 8.41309 152.48 10.1615 151.306 11.9766C151.226 12.1367 151.186 12.2969 151.186 12.457C151.186 12.6172 151.226 12.6973 151.306 12.6973C151.412 12.6439 151.506 12.5771 151.586 12.4971ZM157.231 35.5195C157.178 35.5195 157.125 35.5062 157.071 35.4795C156.965 35.4528 156.898 35.4395 156.871 35.4395H156.631C156.15 35.4395 155.817 35.6797 155.63 36.1602C155.603 36.2669 155.59 36.3604 155.59 36.4404C155.59 36.8675 155.79 37.1878 156.19 37.4014C156.271 37.4548 156.337 37.4814 156.391 37.4814H156.431V37.2812C156.457 36.5605 156.724 35.9733 157.231 35.5195ZM156.991 11.4961C156.351 11.8431 155.777 12.1901 155.27 12.5371C155.403 15.8203 155.47 17.7822 155.47 18.4229C155.416 19.0635 155.229 19.3971 154.909 19.4238C154.642 19.3971 154.509 18.8499 154.509 17.7822C154.509 17.7288 154.549 16.1406 154.629 13.0176C153.214 14.112 152.36 15.0863 152.066 15.9404C151.799 16.7145 151.239 17.195 150.385 17.3818C150.225 17.4085 150.078 17.4219 149.944 17.4219C149.224 17.3952 148.636 17.1283 148.183 16.6211H147.902C146.995 16.6211 146.314 16.2074 145.86 15.3799C145.7 15.0329 145.62 14.6859 145.62 14.3389C145.62 14.0719 145.66 13.8184 145.74 13.5781C146.648 11.0423 149.13 8.58659 153.188 6.21094C157.672 3.56836 162.53 1.87337 167.762 1.12598C169.23 0.912435 170.645 0.805664 172.006 0.805664C173.901 0.805664 175.423 1.16602 176.57 1.88672C179.4 2.55404 180.828 4.35579 180.854 7.29199C180.828 13.6182 176.851 19.4772 168.923 24.8691C171.993 25.1094 174.261 25.6432 175.729 26.4707C178.185 27.1647 179.426 28.2591 179.453 29.7539C179.453 33.0905 177.505 35.7464 173.607 37.7217C170.484 39.2699 167.014 40.0439 163.197 40.0439C161.436 40.0439 159.754 39.8571 158.152 39.4834C157.752 39.3766 157.392 39.1764 157.071 38.8828C155.416 38.696 154.522 37.9886 154.389 36.7607C154.362 36.654 154.349 36.5472 154.349 36.4404C154.349 35.5062 154.789 34.8255 155.67 34.3984C155.99 34.265 156.311 34.1982 156.631 34.1982H156.791V34.1582C156.791 32.9303 156.884 31.3688 157.071 29.4736C156.217 29.4202 155.576 29.18 155.149 28.7529C154.696 28.2458 154.455 27.6986 154.429 27.1113C154.455 26.1504 154.923 25.4564 155.83 25.0293C156.551 24.6823 157.125 24.402 157.552 24.1885C157.605 23.4678 157.632 22.4535 157.632 21.1455C157.632 17.4886 157.418 14.2721 156.991 11.4961ZM161.275 9.57422C161.943 13.2044 162.303 17.1416 162.356 21.3857C167.241 18.1826 170.431 15.1396 171.926 12.2568C172.193 11.723 172.393 11.2158 172.526 10.7354C172.286 9.98796 171.379 9.4541 169.804 9.13379C169.27 9.02702 168.763 8.97363 168.282 8.97363C168.015 8.94694 167.868 8.88021 167.842 8.77344C167.868 8.45312 168.469 8.29297 169.644 8.29297C170.978 8.31966 171.993 8.62663 172.687 9.21387C172.633 8.51986 172.326 7.94596 171.766 7.49219C171.205 7.38542 170.498 7.33203 169.644 7.33203C168.042 7.33203 165.399 8.02604 161.716 9.41406C161.556 9.46745 161.409 9.52083 161.275 9.57422ZM162.356 23.5078C167.401 20.4915 170.978 17.5153 173.087 14.5791C174.181 13.0042 174.729 11.5762 174.729 10.2949C174.702 9.44076 174.382 8.77344 173.768 8.29297C173.874 8.63997 173.928 9.02702 173.928 9.4541C173.901 10.7354 173.434 12.1634 172.526 13.7383C170.711 16.6211 167.321 19.6507 162.356 22.8271V23.5078ZM157.392 26.1104C157.392 26.057 157.392 25.9769 157.392 25.8701C157.418 25.7633 157.432 25.6833 157.432 25.6299C156.951 25.8701 156.591 26.0436 156.351 26.1504C155.924 26.3639 155.697 26.6842 155.67 27.1113C155.67 27.3783 155.763 27.6051 155.95 27.792L155.99 27.832C156.15 27.9922 156.297 28.0856 156.431 28.1123C156.457 28.1123 156.497 28.1257 156.551 28.1523C156.551 28.1257 156.537 28.0856 156.511 28.0322C156.511 27.9788 156.511 27.9388 156.511 27.9121C156.537 27.1647 156.831 26.5641 157.392 26.1104ZM161.956 30.2744C161.689 32.2497 161.449 33.7178 161.235 34.6787C164.172 34.652 167.094 34.0915 170.004 32.9971C172.006 32.2497 173.02 31.5423 173.047 30.875C173.02 30.7148 172.98 30.5947 172.927 30.5146C171.352 30.2477 169.203 30.1143 166.48 30.1143C165.359 30.1143 163.851 30.1676 161.956 30.2744ZM147.702 15.3799V15.1797C147.702 14.8861 147.742 14.6191 147.822 14.3789C148.757 11.8164 151.239 9.34733 155.27 6.97168C158.606 5.02311 162.263 3.56836 166.24 2.60742C161.195 3.59505 156.658 5.38346 152.627 7.97266C151.239 8.88021 150.078 9.80111 149.144 10.7354C147.996 11.8831 147.248 12.9642 146.901 13.9785C146.875 14.0853 146.861 14.2054 146.861 14.3389C146.861 14.7926 147.088 15.1263 147.542 15.3398C147.622 15.3665 147.675 15.3799 147.702 15.3799ZM167.481 35.0391C170.765 34.4251 173.087 33.611 174.448 32.5967C174.875 32.2497 175.102 31.9427 175.129 31.6758C175.076 31.3822 174.795 31.1152 174.288 30.875C174.288 31.5423 173.901 32.1829 173.127 32.7969C173.047 32.8503 173.007 32.877 173.007 32.877C171.859 33.651 170.017 34.3717 167.481 35.0391ZM204.438 34.7988C204.438 35.7331 204.024 36.4271 203.196 36.8809C202.876 37.041 202.542 37.1211 202.195 37.1211C201.742 37.0944 201.288 36.9342 200.834 36.6406C200.354 36.9609 199.913 37.1211 199.513 37.1211C199.059 37.0944 198.632 36.9609 198.231 36.7207L197.431 36.4404H197.19C194.655 36.4404 191.225 36.9476 186.9 37.9619H186.86H186.82L186.78 38.002H186.74H186.7H186.66L186.62 38.042H186.58H186.54H186.5L186.46 38.082H186.38C186.38 38.2422 186.38 38.4958 186.38 38.8428C186.407 39.1898 186.42 39.4434 186.42 39.6035C186.393 40.2708 186.206 40.6178 185.859 40.6445C185.566 40.6178 185.419 40.0706 185.419 39.0029V38.3223L181.135 39.0029C180.227 39.0029 179.547 38.5892 179.093 37.7617C178.933 37.4147 178.853 37.0677 178.853 36.7207V36.4805C178.879 35.0391 179.653 33.9313 181.175 33.1572C181.121 32.8903 181.095 32.6901 181.095 32.5566V28.9131C181.095 27.8988 181.108 26.4574 181.135 24.5889C181.135 23.0674 181.135 21.973 181.135 21.3057C181.135 16.0472 180.774 11.8831 180.054 8.81348C179.84 7.93262 179.6 7.0651 179.333 6.21094C179.28 6.05078 179.253 5.81055 179.253 5.49023C179.253 4.55599 179.667 3.88867 180.494 3.48828C180.841 3.32812 181.175 3.24805 181.495 3.24805C182.029 3.27474 182.483 3.42155 182.856 3.68848C183.257 3.39486 183.711 3.24805 184.218 3.24805C185.179 3.24805 185.859 3.67513 186.26 4.5293C186.313 4.63607 186.353 4.72949 186.38 4.80957C187.955 9.80111 188.942 14.4456 189.343 18.7432C189.636 21.9463 189.797 26.2438 189.823 31.6357H191.465C192.773 31.6357 193.907 31.6891 194.868 31.7959C193.72 29.7406 192.533 27.3516 191.305 24.6289C191.225 24.4688 191.185 24.3086 191.185 24.1484C191.185 23.4811 191.478 23.0941 192.065 22.9873C192.172 22.9606 192.266 22.9473 192.346 22.9473C192.88 22.9473 193.32 23.2809 193.667 23.9482C193.774 24.1885 193.84 24.3219 193.867 24.3486C193.867 24.3219 193.854 24.2819 193.827 24.2285C193.827 24.1751 193.827 24.1351 193.827 24.1084C193.827 23.6012 194.094 23.2409 194.628 23.0273C194.788 22.974 194.935 22.9473 195.068 22.9473C195.602 22.9473 195.963 23.1475 196.149 23.5479C196.176 23.5745 196.189 23.6012 196.189 23.6279C196.536 24.3219 197.898 26.0703 200.273 28.873C201.955 30.8216 203.21 32.3698 204.037 33.5176C204.304 33.8913 204.438 34.3184 204.438 34.7988ZM180.854 7.93262C181.228 9.64095 181.482 12.4704 181.615 16.4209C181.615 16.5277 181.615 16.6344 181.615 16.7412C181.669 17.542 181.922 17.9557 182.376 17.9824C182.776 17.7956 183.017 17.3818 183.097 16.7412V16.6211C182.99 13.2311 182.656 10.3083 182.096 7.85254C182.069 7.77246 182.042 7.67904 182.016 7.57227C181.855 6.85156 181.589 6.47786 181.215 6.45117C180.975 6.50456 180.841 6.77148 180.814 7.25195C180.814 7.54557 180.828 7.77246 180.854 7.93262ZM202.195 35.8799C202.756 35.8799 203.09 35.5996 203.196 35.0391C203.223 34.959 203.236 34.8789 203.236 34.7988C203.21 34.5586 203.156 34.3717 203.076 34.2383C202.409 33.3307 200.714 31.2754 197.991 28.0723C197.324 27.2982 196.777 26.6442 196.35 26.1104C196.029 25.71 195.722 25.2695 195.429 24.7891C195.909 25.9102 196.483 27.1113 197.15 28.3926C198.912 30.4479 200.167 31.9694 200.914 32.957C201.501 33.4375 201.808 34.0381 201.835 34.7588C201.835 35.1058 201.768 35.4261 201.635 35.7197C201.848 35.8265 202.035 35.8799 202.195 35.8799ZM187.101 31.7959C187.261 31.7692 187.501 31.7559 187.821 31.7559C188.168 31.7025 188.422 31.6758 188.582 31.6758C188.475 23.3477 188.008 17.0749 187.181 12.8574C186.754 10.6419 186.086 8.07943 185.179 5.16992C184.992 4.76953 184.672 4.54264 184.218 4.48926C184.004 4.51595 183.804 4.58268 183.617 4.68945C183.617 4.71615 183.631 4.75618 183.657 4.80957C185.232 9.80111 186.22 14.4857 186.62 18.8633C186.914 22.0931 187.074 26.404 187.101 31.7959ZM215.448 13.6182C214.541 13.6182 213.86 13.151 213.406 12.2168C213.406 12.1634 213.393 12.1234 213.366 12.0967C209.549 13.4847 207.187 15.7135 206.279 18.7832C206.066 19.584 205.959 20.3981 205.959 21.2256C205.959 24.0817 207.067 26.6709 209.282 28.9932C211.845 31.6624 215.061 33.0905 218.932 33.2773C219.172 33.2773 219.399 33.2773 219.612 33.2773C223.002 33.2773 225.418 32.1562 226.859 29.9141C227.687 28.6061 228.101 27.0312 228.101 25.1895C228.101 22.3066 227.1 19.7441 225.098 17.502C222.722 14.8861 219.666 13.5781 215.929 13.5781H215.488L215.448 13.6182ZM224.137 22.8672C223.763 22.7604 223.563 22.3734 223.536 21.7061C223.536 20.0778 222.909 18.6898 221.654 17.542C220.373 16.3675 218.718 15.7803 216.689 15.7803C216.476 15.7803 216.142 15.807 215.688 15.8604C215.181 15.9137 214.808 15.9404 214.567 15.9404C214.22 15.9137 214.034 15.7803 214.007 15.54C214.034 14.8727 215.248 14.5391 217.65 14.5391C219.465 14.5391 221.201 15.1797 222.855 16.4609C224.377 17.7155 225.151 19.0902 225.178 20.585C225.178 21.6794 224.938 22.4001 224.457 22.7471C224.35 22.8271 224.243 22.8672 224.137 22.8672ZM203.717 15.3398C205.318 13.2845 206.907 11.8164 208.481 10.9355C209.549 10.3483 210.937 9.77441 212.646 9.21387C213.259 8.97363 213.58 8.80013 213.606 8.69336C213.553 8.47982 213.433 8.3597 213.246 8.33301C211.778 8.33301 209.963 9.05371 207.801 10.4951C205.932 11.7764 204.478 13.2178 203.437 14.8193C203.356 14.9795 203.316 15.1396 203.316 15.2998C203.316 15.46 203.356 15.54 203.437 15.54C203.543 15.4867 203.637 15.4199 203.717 15.3398ZM233.866 24.6689V25.9102C233.84 29.7539 232.612 32.7035 230.183 34.7588C230.369 37.9352 230.463 39.9906 230.463 40.9248C230.41 41.5654 230.209 41.8991 229.862 41.9258C229.595 41.8991 229.462 41.3652 229.462 40.3242C229.462 39.737 229.475 38.8828 229.502 37.7617C229.502 36.6673 229.502 35.8532 229.502 35.3193C227.313 36.8408 224.51 37.6016 221.094 37.6016H219.853C213.74 37.6016 208.735 35.7197 204.838 31.9561C201.715 28.9398 199.9 25.363 199.393 21.2256C199.312 20.5583 199.272 19.891 199.272 19.2236C199.272 15.1396 200.647 11.7363 203.396 9.01367C203.743 8.66667 204.104 8.34635 204.478 8.05273C207.547 5.65039 211.471 4.44922 216.249 4.44922C217.504 4.44922 218.478 4.96973 219.172 6.01074C219.412 6.35775 219.572 6.73145 219.652 7.13184C224.163 8.11947 227.767 10.5085 230.463 14.2988C232.732 17.502 233.866 20.9587 233.866 24.6689ZM218.371 7.05176C218.051 6.27767 217.464 5.82389 216.609 5.69043C216.476 5.66374 216.356 5.65039 216.249 5.65039C210.457 5.65039 206.146 7.41211 203.316 10.9355C201.448 13.2845 200.514 16.0472 200.514 19.2236C200.514 23.1208 201.835 26.6442 204.478 29.7939C204.985 30.3812 205.519 30.9284 206.079 31.4355C203.276 28.1523 201.835 24.4954 201.755 20.4648C201.755 16.541 203.116 13.3245 205.839 10.8154C208.695 8.19954 212.579 6.8916 217.49 6.8916C217.837 6.8916 218.131 6.94499 218.371 7.05176ZM219.612 8.41309C219.719 8.7334 219.772 8.97363 219.772 9.13379C219.772 9.16048 219.759 9.20052 219.732 9.25391C219.732 9.30729 219.732 9.34733 219.732 9.37402C222.962 9.93457 225.778 11.2959 228.181 13.458C225.832 10.8688 222.976 9.18717 219.612 8.41309ZM255.127 3.72852C250.082 3.96875 245.504 5.50358 241.394 8.33301C240.833 8.70671 240.312 9.09375 239.832 9.49414C239.191 10.028 238.858 10.4951 238.831 10.8955C238.884 11.109 238.991 11.2292 239.151 11.2559C239.498 11.2292 239.912 11.0156 240.393 10.6152C244.236 7.51888 248.734 5.67708 253.886 5.08984C254.42 5.03646 254.953 4.99642 255.487 4.96973C255.781 4.94303 255.941 4.80957 255.968 4.56934C255.968 4.19564 255.794 3.92871 255.447 3.76855C255.34 3.74186 255.26 3.72852 255.207 3.72852H255.127ZM254.807 24.709L250.482 25.1094C249.602 25.1094 248.827 25.0693 248.16 24.9893C248.374 28.6462 248.48 30.7148 248.48 31.1953C248.454 31.8626 248.254 32.2096 247.88 32.2363C247.613 32.2096 247.479 31.6624 247.479 30.5947C247.479 29.9541 247.493 28.9798 247.52 27.6719C247.52 26.3906 247.52 25.443 247.52 24.8291C245.785 24.4821 244.904 23.7747 244.877 22.707C244.877 21.666 245.357 20.972 246.318 20.625C246.559 20.5449 246.799 20.4915 247.039 20.4648C252.137 20.1979 256.729 19.7041 260.812 18.9834C262.387 18.7165 263.428 18.543 263.936 18.4629H264.136C264.803 18.4629 265.243 18.7832 265.457 19.4238C265.51 19.584 265.537 19.7308 265.537 19.8643C265.537 20.7451 264.309 21.7061 261.854 22.7471C261.213 23.014 260.546 23.2676 259.852 23.5078C259.905 23.5612 259.985 23.668 260.092 23.8281C260.199 23.9883 260.279 24.0951 260.332 24.1484C263.295 27.0046 264.79 30.4746 264.816 34.5586C264.816 38.1087 263.215 40.8848 260.012 42.8867C257.529 44.4082 254.593 45.1689 251.203 45.1689C246.532 45.1689 242.621 43.7142 239.472 40.8047C238.671 40.0573 237.95 39.2432 237.31 38.3623C233.84 34.999 232.104 30.4346 232.104 24.6689C232.104 18.2627 234.493 13.0042 239.271 8.89355C242.955 5.69043 247.373 3.71517 252.524 2.96777C253.565 2.83431 254.566 2.75423 255.527 2.72754C256.915 2.72754 257.916 3.16797 258.53 4.04883C258.771 4.42253 258.904 4.80957 258.931 5.20996C260.185 5.66374 260.826 6.43783 260.853 7.53223C260.853 8.49316 260.439 9.18717 259.611 9.61426C259.424 9.72103 259.224 9.78776 259.011 9.81445C254.073 10.6953 250.322 11.7497 247.76 12.9775C241.514 16.0472 238.377 21.1722 238.351 28.3525C238.377 30.0876 238.804 31.6758 239.632 33.1172C241.901 35.0391 244.77 36 248.24 36H248.921C251.537 35.8932 253.565 35.1859 255.007 33.8779C255.808 33.1305 256.221 32.3298 256.248 31.4756C256.248 28.9665 255.901 26.8577 255.207 25.1494C254.967 24.8825 254.833 24.7357 254.807 24.709ZM262.654 29.6338C262.814 30.5413 262.895 31.4489 262.895 32.3564C262.895 35.9333 261.28 38.7093 258.05 40.6846C255.567 42.1794 252.645 42.9268 249.281 42.9268C247.039 42.9268 244.944 42.5664 242.995 41.8457C245.478 43.2604 248.214 43.9678 251.203 43.9678C254.86 43.9678 257.916 43.0068 260.372 41.085C260.799 40.738 261.173 40.391 261.493 40.0439C262.881 38.4958 263.575 36.6673 263.575 34.5586C263.575 32.8503 263.268 31.2087 262.654 29.6338ZM258.65 6.41113C258.277 7.05176 257.756 7.4388 257.089 7.57227C252.151 8.45312 248.4 9.50749 245.838 10.7354C239.592 13.805 236.455 18.93 236.429 26.1104C236.429 27.4984 236.696 28.7796 237.229 29.9541C237.149 29.4202 237.109 28.8864 237.109 28.3525C237.136 20.9053 240.299 15.5133 246.599 12.1768C249.401 10.7087 253.405 9.53418 258.61 8.65332H258.65L258.69 8.61328H258.73H258.771C259.171 8.5332 259.438 8.26628 259.571 7.8125C259.598 7.70573 259.611 7.6123 259.611 7.53223C259.585 7.02507 259.264 6.65137 258.65 6.41113Z" fill="white"/>
</svg>
