<svg width="146" height="33" viewBox="0 0 146 33" fill="none" xmlns="http://www.w3.org/2000/svg">
<path d="M12.9736 17.4238C12.4665 17.1022 11.4707 16.6012 9.98633 15.9209C8.50195 15.2406 7.04232 14.4489 5.60742 13.5459C4.1849 12.6305 3.05306 11.6348 2.21191 10.5586C1.37077 9.47005 1.33366 8.36296 2.10059 7.2373C3.04069 5.80241 4.24056 4.62728 5.7002 3.71191C7.15983 2.79655 8.52669 2.30794 9.80078 2.24609C11.0872 2.18424 12.1139 2.63574 12.8809 3.60059C13.6478 4.56543 13.8086 6.21061 13.3633 8.53613C13.2891 9.00618 12.9984 9.38965 12.4912 9.68652C11.984 9.9834 11.4954 10.1689 11.0254 10.2432C10.4069 10.3545 9.83171 10.2061 9.2998 9.79785C8.78027 9.38965 8.55762 8.94434 8.63184 8.46191C9.49772 5.53027 9.3431 4.28092 8.16797 4.71387C6.99284 5.13444 5.94141 6.33431 5.01367 8.31348C4.50651 9.38965 5.06315 10.3607 6.68359 11.2266C8.30404 12.0924 10.0729 12.9954 11.9902 13.9355C13.9199 14.8633 15.5527 15.8962 16.8887 17.0342C18.2246 18.1722 18.3545 19.5514 17.2783 21.1719C16.4372 22.2604 15.0456 23.2438 13.1035 24.1221C11.1615 25.0003 9.2194 25.557 7.27734 25.792C5.34766 26.0146 3.70866 25.8044 2.36035 25.1611C0.999674 24.5055 0.486328 23.1882 0.820312 21.209C1.29036 19.4154 1.71094 18.2712 2.08203 17.7764C2.45312 17.2692 3.17676 16.527 4.25293 15.5498C5.23014 15.0179 6.19499 14.888 7.14746 15.1602C8.1123 15.4199 8.16797 15.9766 7.31445 16.8301C4.24674 19.638 3.07161 21.4193 3.78906 22.1738C4.50651 22.9284 5.77441 23.1139 7.59277 22.7305C9.4235 22.3346 11.1243 21.5863 12.6953 20.4854C14.2663 19.3721 14.359 18.3516 12.9736 17.4238ZM28.1699 13.9355C28.5534 14.752 28.64 15.4941 28.4297 16.1621C28.2318 16.8177 27.7865 16.7373 27.0938 15.9209C26.6608 15.4508 26.3268 14.9499 26.0918 14.418C25.5723 13.2552 25.6403 12.0615 26.2959 10.8369C26.9515 9.6123 27.7617 8.50521 28.7266 7.51562C27.9844 7.70117 27.0999 7.87435 26.0732 8.03516C25.0465 8.18359 24.2425 8.27637 23.6611 8.31348C23.1787 11.3688 22.9808 13.6016 23.0674 15.0117C23.154 16.4095 23.556 18.6732 24.2734 21.8027C24.5827 23.1634 24.2549 24.4004 23.29 25.5137C22.3376 26.6146 21.6387 26.4043 21.1934 24.8828C20.278 22.7799 19.9193 20.0277 20.1172 16.626C20.3151 13.2119 20.5934 10.4102 20.9521 8.2207C20.2842 8.24544 19.2637 8.1403 17.8906 7.90527C16.5299 7.67025 15.8682 7.52799 15.9053 7.47852C16.598 8.38151 17.2536 9.2474 17.8721 10.0762C18.4906 10.8926 18.4411 11.7275 17.7236 12.5811C17.4268 12.9521 16.9876 13.3294 16.4062 13.7129C15.8372 14.084 15.4043 14.1891 15.1074 14.0283C14.7734 13.8551 14.6497 13.6016 14.7363 13.2676C14.8105 12.9336 15.1198 12.2285 15.6641 11.1523C15.7507 10.8555 15.4909 10.3298 14.8848 9.5752C14.2786 8.82064 13.8395 8.10938 13.5674 7.44141C13.2952 6.76107 13.4622 6.26009 14.0684 5.93848C14.6745 5.61686 16.2393 5.73438 18.7627 6.29102C19.0225 6.36523 19.443 6.38997 20.0244 6.36523C20.6182 6.32812 21.1377 6.25391 21.583 6.14258C22.5355 4.48503 23.5374 3.16764 24.5889 2.19043C25.6403 1.20085 26.1475 1.38639 26.1104 2.74707C25.999 3.21712 25.764 3.76139 25.4053 4.37988C25.0589 4.986 24.8424 5.45605 24.7559 5.79004C27.069 5.40658 29.2399 4.86849 31.2686 4.17578C32.5303 3.53255 33.458 3.35938 34.0518 3.65625C34.6579 3.95312 34.429 4.77572 33.3652 6.12402C33.0312 6.5446 32.4808 7.08268 31.7139 7.73828C30.9593 8.39388 30.2357 9.09277 29.543 9.83496C28.8503 10.5648 28.3245 11.2946 27.9658 12.0244C27.6071 12.7419 27.6751 13.3789 28.1699 13.9355ZM35.1279 23.4355C34.695 24.9199 34.1012 25.5322 33.3467 25.2725C32.6045 25.0127 32.252 24.3076 32.2891 23.1572C32.7467 20.8441 32.821 19.1556 32.5117 18.0918C32.2148 18.166 31.8685 18.265 31.4727 18.3887C31.0645 18.5 30.582 18.3887 30.0254 18.0547C29.4193 17.6836 29.3945 17.2754 29.9512 16.8301C30.4954 16.3724 31.1882 15.8776 32.0293 15.3457C31.8066 13.082 31.5407 11.3379 31.2314 10.1133C30.9222 8.88867 30.4707 7.62695 29.877 6.32812C28.9368 4.47266 28.6833 3.16764 29.1162 2.41309C29.5492 1.64616 31.0459 1.93066 33.6064 3.2666C35.0413 4.00879 36.1979 4.65202 37.0762 5.19629C37.9668 5.74056 38.9255 6.43327 39.9521 7.27441C40.5459 7.75684 41.2201 8.5918 41.9746 9.7793C42.7415 10.9668 42.8714 12.0615 42.3643 13.0635C43.8239 12.7048 44.6094 12.9336 44.7207 13.75C44.832 14.554 44.665 15.723 44.2197 17.2568C43.7868 18.7783 43.2796 20.5472 42.6982 22.5635C42.1169 24.5798 41.8695 26.6146 41.9561 28.668C43.0199 27.3568 43.762 26.8434 44.1826 27.1279C44.6156 27.4001 44.0775 28.6123 42.5684 30.7646C42.3828 31.012 42.0798 31.278 41.6592 31.5625C41.2386 31.8594 40.7376 31.8099 40.1562 31.4141C39.5625 31.0182 39.3398 29.7008 39.4883 27.4619C39.6491 25.223 39.8779 23.0335 40.1748 20.8936C40.3975 19.3226 40.6758 17.9062 41.0098 16.6445C41.3438 15.3704 40.6572 14.9684 38.9502 15.4385C38.2451 15.624 37.6699 15.7848 37.2246 15.9209C36.7793 16.057 36.0557 16.3538 35.0537 16.8115C35.1898 17.9124 35.2826 18.9948 35.332 20.0586C35.3815 21.11 35.3135 22.2357 35.1279 23.4355ZM38.9131 12.4883C39.9027 11.7708 39.5254 10.6204 37.7812 9.03711C36.0371 7.44141 34.2064 6.41471 32.2891 5.95703C33.1055 8.08464 33.6374 9.60612 33.8848 10.5215C34.1445 11.4245 34.3548 12.6924 34.5156 14.3252C35.3568 14.0407 36.1484 13.7747 36.8906 13.5273C37.6452 13.2799 38.3193 12.9336 38.9131 12.4883ZM55.8721 18.9453C53.9548 19.1061 52.0436 19.8669 50.1387 21.2275C48.2461 22.5882 46.8298 24.085 45.8896 25.7178C45.2093 26.8929 44.4609 27.2949 43.6445 26.9238C42.8281 26.5527 42.556 25.8724 42.8281 24.8828C43.1003 23.7324 43.4775 22.3656 43.96 20.7822C44.4424 19.1989 44.6156 18.166 44.4795 17.6836C44.0837 17.9062 43.4961 18.2155 42.7168 18.6113C41.9375 19.0072 41.2881 18.8896 40.7686 18.2588C40.1377 17.4919 40.3232 16.8239 41.3252 16.2549C42.3148 15.6859 43.4219 15.1107 44.6465 14.5293C44.832 13.3418 44.7207 11.9316 44.3125 10.2988C43.9043 8.66602 43.3538 7.34245 42.6611 6.32812C42.3024 5.77148 42.0798 5.33236 41.9932 5.01074C41.5479 4.4541 41.4613 3.85417 41.7334 3.21094C41.9932 2.56771 42.8962 2.72233 44.4424 3.6748C45.568 4.15723 46.8112 4.58398 48.1719 4.95508C49.5449 5.3138 50.9242 5.20866 52.3096 4.63965C53.3239 4.19434 54.0723 4.09538 54.5547 4.34277C55.0495 4.5778 54.7155 5.12826 53.5527 5.99414C52.4395 6.53841 51.2272 6.87858 49.916 7.01465C48.6048 7.15072 47.0957 6.97754 45.3887 6.49512C46.0319 7.71973 46.4958 8.68457 46.7803 9.38965C47.0648 10.0824 47.2874 11.4492 47.4482 13.4902C48.5739 13.2305 49.9531 13.0635 51.5859 12.9893C53.2188 12.915 53.8682 13.2614 53.5342 14.0283C53.46 14.3376 52.6621 14.585 51.1406 14.7705C49.6191 14.9437 48.4502 15.3704 47.6338 16.0508C47.5967 16.6445 47.5348 17.3867 47.4482 18.2773C47.374 19.168 47.2008 19.8916 46.9287 20.4482C47.5967 19.7803 48.9821 19.0814 51.085 18.3516C53.1878 17.6217 54.6165 17.3187 55.3711 17.4424C56.5957 17.4671 57.2142 17.7887 57.2266 18.4072C57.2513 19.0257 56.7998 19.2051 55.8721 18.9453ZM67.4131 18.9453C65.4958 19.1061 63.5846 19.8669 61.6797 21.2275C59.7871 22.5882 58.3708 24.085 57.4307 25.7178C56.7503 26.8929 56.002 27.2949 55.1855 26.9238C54.3691 26.5527 54.097 25.8724 54.3691 24.8828C54.6413 23.7324 55.0186 22.3656 55.501 20.7822C55.9834 19.1989 56.1566 18.166 56.0205 17.6836C55.6247 17.9062 55.0371 18.2155 54.2578 18.6113C53.4785 19.0072 52.8291 18.8896 52.3096 18.2588C51.6787 17.4919 51.8643 16.8239 52.8662 16.2549C53.8558 15.6859 54.9629 15.1107 56.1875 14.5293C56.373 13.3418 56.2617 11.9316 55.8535 10.2988C55.4453 8.66602 54.8949 7.34245 54.2021 6.32812C53.8434 5.77148 53.6208 5.33236 53.5342 5.01074C53.0889 4.4541 53.0023 3.85417 53.2744 3.21094C53.5342 2.56771 54.4372 2.72233 55.9834 3.6748C57.109 4.15723 58.3522 4.58398 59.7129 4.95508C61.0859 5.3138 62.4652 5.20866 63.8506 4.63965C64.8649 4.19434 65.6133 4.09538 66.0957 4.34277C66.5905 4.5778 66.2565 5.12826 65.0938 5.99414C63.9805 6.53841 62.7682 6.87858 61.457 7.01465C60.1458 7.15072 58.6367 6.97754 56.9297 6.49512C57.5729 7.71973 58.0368 8.68457 58.3213 9.38965C58.6058 10.0824 58.8285 11.4492 58.9893 13.4902C60.1149 13.2305 61.4941 13.0635 63.127 12.9893C64.7598 12.915 65.4092 13.2614 65.0752 14.0283C65.001 14.3376 64.2031 14.585 62.6816 14.7705C61.1602 14.9437 59.9912 15.3704 59.1748 16.0508C59.1377 16.6445 59.0758 17.3867 58.9893 18.2773C58.915 19.168 58.7419 19.8916 58.4697 20.4482C59.1377 19.7803 60.5231 19.0814 62.626 18.3516C64.7288 17.6217 66.1576 17.3187 66.9121 17.4424C68.1367 17.4671 68.7552 17.7887 68.7676 18.4072C68.7923 19.0257 68.3408 19.2051 67.4131 18.9453ZM79.0098 13.9355C79.3932 14.752 79.4798 15.4941 79.2695 16.1621C79.0716 16.8177 78.6263 16.7373 77.9336 15.9209C77.5007 15.4508 77.1667 14.9499 76.9316 14.418C76.4121 13.2552 76.4801 12.0615 77.1357 10.8369C77.7913 9.6123 78.6016 8.50521 79.5664 7.51562C78.8242 7.70117 77.9398 7.87435 76.9131 8.03516C75.8864 8.18359 75.0824 8.27637 74.501 8.31348C74.0186 11.3688 73.8206 13.6016 73.9072 15.0117C73.9938 16.4095 74.3958 18.6732 75.1133 21.8027C75.4225 23.1634 75.0947 24.4004 74.1299 25.5137C73.1774 26.6146 72.4785 26.4043 72.0332 24.8828C71.1178 22.7799 70.7591 20.0277 70.957 16.626C71.1549 13.2119 71.4333 10.4102 71.792 8.2207C71.124 8.24544 70.1035 8.1403 68.7305 7.90527C67.3698 7.67025 66.708 7.52799 66.7451 7.47852C67.4378 8.38151 68.0934 9.2474 68.7119 10.0762C69.3304 10.8926 69.2809 11.7275 68.5635 12.5811C68.2666 12.9521 67.8275 13.3294 67.2461 13.7129C66.6771 14.084 66.2441 14.1891 65.9473 14.0283C65.6133 13.8551 65.4896 13.6016 65.5762 13.2676C65.6504 12.9336 65.9596 12.2285 66.5039 11.1523C66.5905 10.8555 66.3307 10.3298 65.7246 9.5752C65.1185 8.82064 64.6794 8.10938 64.4072 7.44141C64.1351 6.76107 64.3021 6.26009 64.9082 5.93848C65.5143 5.61686 67.0791 5.73438 69.6025 6.29102C69.8623 6.36523 70.2829 6.38997 70.8643 6.36523C71.458 6.32812 71.9775 6.25391 72.4229 6.14258C73.3753 4.48503 74.3773 3.16764 75.4287 2.19043C76.4801 1.20085 76.9873 1.38639 76.9502 2.74707C76.8389 3.21712 76.6038 3.76139 76.2451 4.37988C75.8988 4.986 75.6823 5.45605 75.5957 5.79004C77.9089 5.40658 80.0798 4.86849 82.1084 4.17578C83.3701 3.53255 84.2979 3.35938 84.8916 3.65625C85.4977 3.95312 85.2689 4.77572 84.2051 6.12402C83.8711 6.5446 83.3206 7.08268 82.5537 7.73828C81.7992 8.39388 81.0755 9.09277 80.3828 9.83496C79.6901 10.5648 79.1644 11.2946 78.8057 12.0244C78.4469 12.7419 78.515 13.3789 79.0098 13.9355ZM89.4746 22.9717C88.8314 24.5426 87.7985 25.0127 86.376 24.3818C85.2998 23.8623 84.7679 23.1882 84.7803 22.3594C84.805 21.5182 85.1823 20.8193 85.9121 20.2627C86.778 19.6318 87.681 19.6566 88.6211 20.3369C89.5612 21.0173 89.8457 21.8955 89.4746 22.9717ZM93.4268 6.38379C93.4268 6.96517 93.4268 7.78776 93.4268 8.85156C93.4391 9.90299 93.4515 10.7132 93.4639 11.2822C94.7751 10.874 96.1976 10.4163 97.7314 9.90918C99.2653 9.40202 100.682 9.03092 101.98 8.7959C103.118 7.22493 103.366 6.19824 102.723 5.71582C102.092 5.22103 101.133 5.00456 99.8467 5.06641C98.5726 5.12826 97.2552 5.33854 95.8945 5.69727C94.5462 6.04362 93.7236 6.27246 93.4268 6.38379ZM93.2412 4.37988C94.5524 3.71191 96.1852 3.23568 98.1396 2.95117C100.094 2.66667 101.807 2.67285 103.279 2.96973C104.764 3.2666 105.722 3.90365 106.155 4.88086C106.601 5.8457 105.97 7.2373 104.263 9.05566C104.819 9.2041 105.339 9.43294 105.821 9.74219C106.316 10.0514 106.298 10.8617 105.766 12.1729C105.419 13.0511 104.615 14.2633 103.354 15.8096C102.092 17.3434 100.682 18.8587 99.123 20.3555C97.5645 21.8522 96.0182 23.1387 94.4844 24.2148C92.9505 25.2786 91.7383 25.7734 90.8477 25.6992C89.9447 25.5013 89.4561 25.0312 89.3818 24.2891C89.3076 23.5345 89.3571 22.7861 89.5303 22.0439C89.6416 20.9554 89.8395 19.7679 90.124 18.4814C90.3962 17.1826 90.5879 15.9827 90.6992 14.8818C89.3757 15.4014 88.7077 15.1787 88.6953 14.2139C88.6829 13.249 89.4375 12.5439 90.959 12.0986C91.0332 11.4307 91.1136 10.6143 91.2002 9.64941C91.2744 8.6722 91.3486 7.83724 91.4229 7.14453C89.7529 7.09505 89.1839 6.84147 89.7158 6.38379C90.2354 5.91374 90.86 5.45605 91.5898 5.01074C91.8001 4.00879 92.1279 3.50163 92.5732 3.48926C93.0309 3.47689 93.2536 3.77376 93.2412 4.37988ZM92.9072 21.209C93.3525 20.9492 94.1257 20.4297 95.2266 19.6504C96.3275 18.8711 97.4284 17.999 98.5293 17.0342C99.6426 16.057 100.595 15.0736 101.387 14.084C102.178 13.0944 102.5 12.2471 102.352 11.542C102.29 11.2699 101.832 11.2018 100.979 11.3379C100.125 11.474 99.1787 11.6966 98.1396 12.0059C97.1006 12.3151 96.1172 12.6553 95.1895 13.0264C94.2617 13.3851 93.6989 13.6572 93.501 13.8428C93.5133 14.6715 93.4762 15.8838 93.3896 17.4795C93.3031 19.0752 93.1423 20.3184 92.9072 21.209ZM104.782 22.6006C104.844 22.4274 105.017 21.778 105.302 20.6523C105.586 19.5267 105.846 18.3145 106.081 17.0156C106.551 14.7891 106.86 12.6058 107.009 10.4658C107.17 8.32585 106.879 6.60645 106.137 5.30762C105.32 4.0459 105.382 3.44596 106.322 3.50781C107.275 3.55729 108.091 4.07064 108.771 5.04785C110.058 7.31152 110.54 9.6556 110.219 12.0801C109.897 14.5046 109.458 16.8734 108.901 19.1865C110.076 18.5062 111.672 18.0547 113.688 17.832C115.705 17.6094 117.103 17.6898 117.882 18.0732C117.907 18.0732 117.925 18.0299 117.938 17.9434C117.95 17.8568 117.975 17.8135 118.012 17.8135C119.1 18.5186 119.478 19.2236 119.144 19.9287C118.81 20.6338 117.616 20.7451 115.562 20.2627C113.781 20.374 112.235 20.875 110.924 21.7656C109.613 22.6562 108.543 23.516 107.714 24.3447C106.65 25.8415 105.858 26.7321 105.339 27.0166C104.819 27.2887 104.479 27.2207 104.318 26.8125C104.158 26.3919 104.139 25.7673 104.263 24.9385C104.374 24.1097 104.547 23.3304 104.782 22.6006ZM127.233 12.0801C126.862 13.0078 126.695 14.0592 126.732 15.2344C126.77 16.3971 126.992 17.4053 127.4 18.2588C127.796 19.1123 127.734 19.6751 127.215 19.9473C126.695 20.2194 126.139 19.9473 125.545 19.1309C124.79 17.9928 124.283 16.7435 124.023 15.3828C123.764 14.0221 123.881 12.7109 124.376 11.4492C124.71 10.5586 125.353 10.2184 126.306 10.4287C127.271 10.639 127.58 11.1895 127.233 12.0801ZM125.062 8.61035C124.79 8.46191 124.463 8.48047 124.079 8.66602C123.708 8.85156 123.454 9.00618 123.318 9.12988C122.366 9.9834 121.525 10.8245 120.795 11.6533C120.065 12.4697 119.521 13.3851 119.162 14.3994C119.36 13.9912 119.824 13.7376 120.554 13.6387C121.42 13.5892 121.945 14.1706 122.131 15.3828C122.329 16.5827 122.817 17.5104 123.597 18.166C124.326 18.7845 124.506 19.3783 124.135 19.9473C123.764 20.5163 123.219 20.4915 122.502 19.873C122.02 19.5762 121.284 18.8402 120.294 17.665C119.317 16.4899 118.909 15.4941 119.069 14.6777C118.896 15.222 118.76 16.0632 118.661 17.2012C118.562 18.3392 118.562 19.2731 118.661 20.0029C118.748 20.7822 119.174 21.7223 119.941 22.8232C120.708 23.9118 121.556 24.2705 122.483 23.8994C123.856 23.7139 125.322 22.9036 126.881 21.4688C128.439 20.0339 129.54 18.1042 130.184 15.6797C130.703 14.6406 130.592 13.2738 129.85 11.5791C129.12 9.87207 128.402 8.5918 127.697 7.73828C127.685 7.75065 127.635 7.88053 127.549 8.12793C127.462 8.36296 127.419 8.48047 127.419 8.48047C126.813 9.30924 126.027 9.35254 125.062 8.61035ZM115.729 21.1904C115.581 20.6585 115.482 20.238 115.433 19.9287C115.346 19.2236 115.303 18.6113 115.303 18.0918C115.278 18.0918 115.259 18.098 115.247 18.1104C115.297 17.5413 115.383 16.7559 115.507 15.7539C115.618 14.7396 115.89 13.7129 116.323 12.6738C116.917 11.14 117.752 9.70508 118.828 8.36914C119.348 7.70117 119.991 7.07031 120.758 6.47656C121.537 5.87044 122.403 5.47461 123.355 5.28906L121.89 4.52832C120.813 4.14486 120.047 3.60677 119.589 2.91406C119.131 2.22135 120.127 2.06055 122.576 2.43164C125.632 3.12435 128.192 4.60254 130.258 6.86621C132.324 9.11751 133.245 11.9626 133.022 15.4014C132.936 16.6383 132.521 17.9495 131.779 19.335C131.049 20.708 130.128 21.9635 129.015 23.1016C127.914 24.2272 126.695 25.1364 125.359 25.8291C124.023 26.5094 122.718 26.7754 121.444 26.627C118.5 26.3301 116.595 24.5179 115.729 21.1904ZM141.205 21.5059C140.945 21.1719 140.778 20.7266 140.704 20.1699C140.642 19.6009 140.648 19.0443 140.723 18.5C140.97 17.7331 140.426 17.5228 139.09 17.8691C137.766 18.2155 136.554 18.4814 135.453 18.667C135.008 18.766 134.822 18.6175 134.896 18.2217C134.983 17.8258 135.187 17.3805 135.509 16.8857C135.83 16.391 136.195 15.9456 136.604 15.5498C137.024 15.154 137.352 15.0055 137.587 15.1045C138.082 15.2282 138.743 15.3024 139.572 15.3271C140.413 15.3519 141.199 15.3952 141.929 15.457C142.659 15.5189 143.215 15.6302 143.599 15.791C143.994 15.9395 144.001 16.1992 143.617 16.5703C143.122 17.4238 142.906 18.2526 142.968 19.0566C143.03 19.8607 143.141 20.4854 143.302 20.9307C144.588 20.8193 145.151 21.0729 144.99 21.6914C144.842 22.3099 144.557 22.7119 144.137 22.8975C144.075 23.652 144.279 24.1406 144.749 24.3633C145.219 24.5736 145.244 24.8457 144.823 25.1797C143.797 25.9837 142.813 25.5632 141.873 23.918C138.867 25.1426 136.808 25.7178 135.694 25.6436C134.593 25.5693 133.511 25.0684 132.447 24.1406C131.049 22.916 130.338 21.6234 130.313 20.2627C130.289 18.8896 130.586 17.5537 131.204 16.2549C131.81 14.9437 132.559 13.7191 133.449 12.5811C134.352 11.4307 135.026 10.4658 135.472 9.68652C136.35 8.15267 137.012 6.65592 137.457 5.19629C137.902 3.73665 138.521 2.90169 139.312 2.69141C140.079 2.49349 140.605 2.66667 140.89 3.21094C141.248 2.44401 141.737 1.82552 142.355 1.35547C142.776 1.03385 143.085 1.00911 143.283 1.28125C143.493 1.55339 143.506 1.83789 143.32 2.13477C142.937 3.52018 142.64 4.49121 142.43 5.04785C142.219 5.59212 142.448 6.88477 143.116 8.92578C143.277 9.54427 143.129 9.99577 142.671 10.2803C142.213 10.5648 141.743 10.373 141.261 9.70508C140.568 8.78971 140.197 7.80013 140.147 6.73633C140.011 7.25586 139.572 8.09082 138.83 9.24121C138.1 10.3792 137.476 11.3936 136.956 12.2842C135.892 14.1025 134.847 15.8219 133.82 17.4424C132.806 19.0628 132.905 20.5905 134.117 22.0254C134.426 22.4583 135.008 22.8109 135.861 23.083C136.715 23.3428 138.496 22.8171 141.205 21.5059Z" fill="white"/>
</svg>
